<svg xmlns="http://www.w3.org/2000/svg" xmlns:xlink="http://www.w3.org/1999/xlink" xmlns:inkscape="http://www.inkscape.org/namespaces/inkscape" version="1.1" width="1600" height="900" viewBox="0 0 1600 900">
<defs>
<clipPath id="clip_0">
<path transform="matrix(1,0,0,-1,0,900)" d="M0 0H1600V900H0Z"/>
</clipPath>
<clipPath id="clip_1">
<path transform="matrix(1,0,0,-1,0,900)" d="M0 0H1600V900H0Z"/>
</clipPath>
<clipPath id="clip_2">
<path transform="matrix(1,0,0,-1,0,900)" d="M1133.159 182.3719H1474.432V354.6311H1133.159Z"/>
</clipPath>
<clipPath id="clip_3">
<path transform="matrix(1,0,0,-1,0,900)" d="M1139 0H1600V350H1139Z"/>
</clipPath>
<clipPath id="clip_4">
<path transform="matrix(1,0,0,-1,0,900)" d="M0 0H1600V900H0Z"/>
</clipPath>
<clipPath id="clip_5">
<path transform="matrix(1,0,0,-1,0,900)" d="M662.9692 369.503H1033.884V427.0799H662.9692Z"/>
</clipPath>
<clipPath id="clip_6">
<path transform="matrix(1,0,0,-1,0,900)" d="M669 0H1600V423H669Z"/>
</clipPath>
<clipPath id="clip_7">
<path transform="matrix(1,0,0,-1,0,900)" d="M0 0H1600V900H0Z"/>
</clipPath>
<clipPath id="clip_8">
<path transform="matrix(1,0,0,-1,0,900)" d="M214.8746 415.5596H559.8304V715.546H214.8746Z"/>
</clipPath>
<clipPath id="clip_9">
<path transform="matrix(1,0,0,-1,0,900)" d="M219 226H777V709H219Z"/>
</clipPath>
<clipPath id="clip_10">
<path transform="matrix(1,0,0,-1,0,900)" d="M153.8038 707.1575H278.1658V823.954H153.8038Z"/>
</clipPath>
<clipPath id="clip_11">
<path transform="matrix(1,0,0,-1,0,900)" d="M0 0H1600V900H0Z"/>
</clipPath>
<clipPath id="clip_12">
<path transform="matrix(1,0,0,-1,0,900)" d="M549.1502 358.8016H673.3354V475.5981H549.1502Z"/>
</clipPath>
<clipPath id="clip_13">
<path transform="matrix(1,0,0,-1,0,900)" d="M0 0H1600V900H0Z"/>
</clipPath>
<clipPath id="clip_14">
<path transform="matrix(1,0,0,-1,0,900)" d="M1021.25 303.2949H1145.6073V420.0914H1021.25Z"/>
</clipPath>
<clipPath id="clip_15">
<path transform="matrix(1,0,0,-1,0,900)" d="M0 0H1600V900H0Z"/>
</clipPath>
<clipPath id="clip_16">
<path transform="matrix(1,0,0,-1,0,900)" d="M1450.863 95.48484H1575.3704V212.28134H1450.863Z"/>
</clipPath>
<clipPath id="clip_17">
<path transform="matrix(1,0,0,-1,0,900)" d="M0 0H1600V900H0Z"/>
</clipPath>
<clipPath id="clip_18">
<path transform="matrix(1,0,0,-1,0,900)" d="M1186.402 629.6648H1305.9094V746.4613H1186.402Z"/>
</clipPath>
<clipPath id="clip_19">
<path transform="matrix(1,0,0,-1,0,900)" d="M0 0H1600V900H0Z"/>
</clipPath>
<clipPath id="clip_20">
<path transform="matrix(1,0,0,-1,0,900)" d="M141.6196 68.76344H975.35147V215.85724H141.6196Z"/>
</clipPath>
<clipPath id="clip_21">
<path transform="matrix(1,0,0,-1,0,900)" d="M0 0H1600V900H0Z"/>
</clipPath>
</defs>
<g>
<g clip-path="url(#clip_0)">
<path transform="matrix(1,0,0,-1,0,900)" d="M0 900H1600V0H0Z" fill="#ffffff"/>
</g>
<g clip-path="url(#clip_1)">
<g opacity=".2689">
<g clip-path="url(#clip_2)">
<g clip-path="url(#clip_3)">
<path transform="matrix(1,0,0,1,1141.159,553.3689)" stroke-width="4" stroke-linecap="butt" stroke-miterlimit="4" stroke-linejoin="miter" fill="none" stroke="#000000" d="M0 0C122.4976 35.13701 230.9219 87.22341 325.2728 156.2592"/>
</g>
</g>
</g>
</g>
<g clip-path="url(#clip_4)">
<g opacity=".2689">
<g clip-path="url(#clip_5)">
<g clip-path="url(#clip_6)">
<path transform="matrix(1,0,0,1,670.9692,481.4561)" stroke-width="4" stroke-linecap="butt" stroke-miterlimit="4" stroke-linejoin="miter" fill="none" stroke="#000000" d="M0 .01606644C124.9374-.5359933 243.2423 13.13896 354.9146 41.04092"/>
</g>
</g>
</g>
</g>
<g clip-path="url(#clip_7)">
<g opacity=".2689">
<g clip-path="url(#clip_8)">
<g clip-path="url(#clip_9)">
<path transform="matrix(1,0,0,1,222.8746,192.45398)" stroke-width="4" stroke-linecap="butt" stroke-miterlimit="4" stroke-linejoin="miter" fill="none" stroke="#000000" d="M328.9558 283.9864C138.9571 256.1068 29.30522 161.4447 0 0"/>
</g>
</g>
</g>
<path transform="matrix(.9975276,.07027515,-.07027515,.9975276,291.6757,135.58313)" stroke-width="5" stroke-linecap="butt" stroke-dasharray="10,10" stroke-miterlimit="4" stroke-linejoin="miter" fill="none" stroke="#7f9191" d="M17.05 0H19.55 861.4048 863.9048"/>
<path transform="matrix(.2389355,-3.391594,3.391594,.2389355,1150.234,206.29328)" stroke-width="1.470588" stroke-linecap="butt" stroke-linejoin="round" fill="none" stroke="#7f9191" d="M0 0 3 5 6 0M3 0V5"/>
<path transform="matrix(-.2389355,3.391594,-3.391594,-.2389355,311.8942,126.78223)" stroke-width="1.470588" stroke-linecap="butt" stroke-linejoin="round" fill="none" stroke="#7f9191" d="M0 0 3 5 6 0M3 0V5"/>
<path transform="matrix(0,-1,1,0,127.4665,842.1515)" stroke-width="6" stroke-linecap="butt" stroke-miterlimit="4" stroke-linejoin="miter" fill="none" stroke="#000000" d="M0 0H738.2091 741.2091"/>
<path transform="matrix(1,0,0,-1,0,900)" d="M139.4665 796.0576 127.4665 820.0576 115.4665 796.0576Z"/>
<path transform="matrix(1,0,0,1,123.9606,838.24868)" stroke-width="6" stroke-linecap="butt" stroke-miterlimit="4" stroke-linejoin="miter" fill="none" stroke="#000000" d="M0 0H1416.983 1419.983"/>
<path transform="matrix(1,0,0,-1,0,900)" d="M1540.943 49.75134 1564.943 61.75134 1540.943 73.75134Z"/>
<path transform="matrix(1,0,0,-1,0,900)" d="M258.2251 806.8495C281.5604 784.0436 281.5604 747.0679 258.2251 724.262 234.8899 701.456 197.0559 701.456 173.7206 724.262 150.3854 747.0679 150.3854 784.0436 173.7206 806.8495 197.0559 829.6555 234.8899 829.6555 258.2251 806.8495ZM258.2251 806.8495" fill="#1e29a2"/>
</g>
<g clip-path="url(#clip_10)">
<text fill="#ffffff" xml:space="preserve" transform="matrix(1 0 -0 1 196.3129 145.6814)" font-size="32" font-family="Roboto"><tspan y="0" x="0 18.985602">SV</tspan></text>
</g>
<g clip-path="url(#clip_11)">
<path transform="matrix(1,0,0,-1,0,900)" d="M653.4831 458.4936C676.8184 435.6877 676.8184 398.712 653.4831 375.906 630.1478 353.1001 592.3139 353.1001 568.9786 375.906 545.6433 398.712 545.6433 435.6877 568.9786 458.4936 592.3139 481.2995 630.1478 481.2995 653.4831 458.4936ZM653.4831 458.4936" fill="#3e54d9"/>
</g>
<g clip-path="url(#clip_12)">
<text fill="#ffffff" xml:space="preserve" transform="matrix(1 0 -0 1 586.8678 493.6624)" font-size="32" font-family="Roboto"><tspan y="0" x="0 28.3904">WV</tspan></text>
</g>
<g clip-path="url(#clip_13)">
<path transform="matrix(1,0,0,-1,0,900)" d="M1125.669 402.9869C1149.005 380.181 1149.005 343.2053 1125.669 320.3994 1102.334 297.5934 1064.5 297.5934 1041.165 320.3994 1017.83 343.2053 1017.83 380.181 1041.165 402.9869 1064.5 425.7929 1102.334 425.7929 1125.669 402.9869ZM1125.669 402.9869" fill="#7790d6"/>
</g>
<g clip-path="url(#clip_14)">
<text fill="#ffffff" xml:space="preserve" transform="matrix(1 0 -0 1 1048.609 549.55178)" font-size="32" font-family="Roboto"><tspan y="0" x="0 22 41.696">ORM</tspan></text>
</g>
<g clip-path="url(#clip_15)">
<path transform="matrix(1,0,0,-1,0,900)" d="M1555.357 195.1769C1578.692 172.3709 1578.692 135.3952 1555.357 112.5893 1532.022 89.78336 1494.188 89.78336 1470.852 112.5893 1447.517 135.3952 1447.517 172.3709 1470.852 195.1769 1494.188 217.9828 1532.022 217.9828 1555.357 195.1769ZM1555.357 195.1769" fill="#90afff"/>
</g>
<g clip-path="url(#clip_16)">
<text fill="#ffffff" xml:space="preserve" transform="matrix(1 0 -0 1 1491.789 757.9195)" font-size="32" font-family="HelveticaNeue"><tspan y="0" x="0 23.104002">CV</tspan></text>
</g>
<g clip-path="url(#clip_17)">
<text fill="#1e28a2" xml:space="preserve" transform="matrix(1 0 -0 1 313.5063 220.505)" font-size="34" font-family="Roboto" font-weight="bold"><tspan y="0" x="0 20.8998 32.3884 44.1932 63.416799 82.460208 101.86741 120.244419 137.72722 149.21582 157.68183 179.18004 197.55704 209.95685">Strongest Veri</tspan></text>
<text fill="#1e28a2" xml:space="preserve" transform="matrix(1 0 -0 1 313.5063 220.505)" font-size="34" font-family="Roboto" font-weight="bold"><tspan y="0" x="218.9746">&#xfb01;</tspan></text>
<text fill="#1e28a2" xml:space="preserve" transform="matrix(1 0 -0 1 313.5063 220.505)" font-size="34" font-family="Roboto" font-weight="bold"><tspan y="0" x="239.6602 258.0372">er</tspan></text>
<text fill="#1e28a2" xml:space="preserve" transform="matrix(1 0 -0 1 313.5063 220.505)" font-size="30" font-family="Roboto" font-weight="bold"><tspan y="0" x="270.4395"> </tspan></text>
<text fill="#5e5e5e" xml:space="preserve" transform="matrix(1 0 -0 1 321.3359 256.48164)" font-size="30" font-family="Roboto"><tspan y="0" x="0 10.254001 26.148 34.044004 50.874006 58.770006 66.198009 82.45801 98.99701 106.27801 113.559009 120.98701 130.78801 146.682 162.15001 171.951 179.37902 194.84702 211.38602 218.667 228.468 244.362 254.793">(e.g. Full test suite) </tspan></text>
<text fill="#017100" xml:space="preserve" transform="matrix(1 0 -0 1 265.8329 291.48164)" font-size="30" font-family="Roboto"><tspan y="0" x="0 17.007 35.753999 51.650999 62.028 72.075 87.972 103.688999 113.495998 120.933 140.48999 156.20699 171.92398 188.45099 198.01798 214.33498 230.05197">+Perfect Accuracy</tspan></text>
<text fill="#5e5e5e" xml:space="preserve" transform="matrix(1 0 -0 1 265.8329 291.48164)" font-size="30" font-family="Roboto"><tspan y="0" x="244.1895"> </tspan></text>
<text fill="#b51700" xml:space="preserve" transform="matrix(1 0 -0 1 265.8329 291.48164)" font-size="30" font-family="Roboto"><tspan y="0" x="251.6162 259.8932 277.68019 284.96717 302.06416 324.62117 340.51817 355.99516">-Slowest</tspan></text>
<text fill="#3f54d9" xml:space="preserve" transform="matrix(1 0 -0 1 508.6249 579.93716)" font-size="34" font-family="Roboto" font-weight="bold"><tspan y="0" x="0 29.219603 47.596605 65.824008 83.98681 92.45281 113.95101 132.32802 144.72783">Weak Veri</tspan></text>
<text fill="#3f54d9" xml:space="preserve" transform="matrix(1 0 -0 1 508.6249 579.93716)" font-size="34" font-family="Roboto" font-weight="bold"><tspan y="0" x="153.7471">&#xfb01;</tspan></text>
<text fill="#3f54d9" xml:space="preserve" transform="matrix(1 0 -0 1 508.6249 579.93716)" font-size="34" font-family="Roboto" font-weight="bold"><tspan y="0" x="174.4326 192.8096 205.2026">er </tspan></text>
<text fill="#5e5e5e" xml:space="preserve" transform="matrix(1 0 -0 1 542.7968 611.8902)" font-size="26" font-family="Roboto"><tspan y="0" x="0 8.8868 22.661602 29.504803 44.090806 50.934007 57.37161 71.97061 77.89861 92.15442 105.929218 119.334819 127.82902 136.86922">(e.g. 1 Test) </tspan></text>
<text fill="#017100" xml:space="preserve" transform="matrix(1 0 -0 1 484.2524 641.8902)" font-size="26" font-family="Roboto"><tspan y="0" x="0 14.739401 37.4374 52.2652 60.821805 74.5966 81.0342 97.994 111.6024 125.2108 139.5446 147.83339 161.9748 170.469">+More Accurate</tspan></text>
<text fill="#5e5e5e" xml:space="preserve" transform="matrix(1 0 -0 1 484.2524 641.8902)" font-size="26" font-family="Roboto"><tspan y="0" x="184.2471"> </tspan></text>
<text fill="#b51700" xml:space="preserve" transform="matrix(1 0 -0 1 484.2524 641.8902)" font-size="26" font-family="Roboto"><tspan y="0" x="190.6836 197.857 213.2724 219.5878 234.4052">-Slow</tspan></text>
<text fill="#7790d6" xml:space="preserve" transform="matrix(1 0 -0 1 1178.89 490.5315)" font-size="36" font-family="Roboto" font-weight="bold"><tspan y="0" x="0 24.854403 45.000005 57.164407 75.93841 96.29281 127.45801 146.916 155.88 178.85521 198.3132 224.7696 244.06922 256.86723 277.15324 286.11723 317.65324 338.00764 358.29365 377.75166 387.29527">Outcome Reward Model </tspan></text>
<text fill="#017100" xml:space="preserve" transform="matrix(1 0 -0 1 1219.581 526.99636)" font-size="30" font-family="Roboto"><tspan y="0" x="0 17.007 33.084005 49.401006 64.878009 74.685009 90.58201">+Faster</tspan></text>
<text fill="#5e5e5e" xml:space="preserve" transform="matrix(1 0 -0 1 1219.581 526.99636)" font-size="30" font-family="Roboto"><tspan y="0" x="100.7227"> </tspan></text>
<text fill="#b51700" xml:space="preserve" transform="matrix(1 0 -0 1 1219.581 526.99636)" font-size="30" font-family="Roboto"><tspan y="0" x="108.1494 116.4264 132.5634 148.4604 163.93741 179.41442 186.85141 206.40842 222.12541 237.8424 254.36942 263.9364 280.25343 290.06044">-Less Accurate</tspan></text>
<text fill="#90afff" xml:space="preserve" transform="matrix(1 0 -0 1 1120.042 712.5031)" font-size="34" font-family="Roboto" font-weight="bold"><tspan y="0" x="0 29.219603 47.596605 65.824008 83.65361 102.03061 119.513408 131.002 139.468 160.96622 179.34322 191.74303">Weakest Veri</tspan></text>
<text fill="#90afff" xml:space="preserve" transform="matrix(1 0 -0 1 1120.042 712.5031)" font-size="34" font-family="Roboto" font-weight="bold"><tspan y="0" x="200.7627">&#xfb01;</tspan></text>
<text fill="#90afff" xml:space="preserve" transform="matrix(1 0 -0 1 1120.042 712.5031)" font-size="34" font-family="Roboto" font-weight="bold"><tspan y="0" x="221.4482 239.8252 252.2182">er </tspan></text>
<text fill="#5e5e5e" xml:space="preserve" transform="matrix(1 0 -0 1 1082.012 748.4796)" font-size="30" font-family="Roboto"><tspan y="0" x="0 10.254001 26.148 34.044004 50.874006 58.770006 66.198009 85.725009 102.834018 129.12902 145.95902 153.24 160.521 176.838 186.63899 193.91999 211.02899 227.583 235.011 254.538 271.06199 286.95597 302.65797 317.86195 328.29295">(e.g. Compilation Check) </tspan></text>
<text fill="#017100" xml:space="preserve" transform="matrix(1 0 -0 1 1080.313 783.4796)" font-size="30" font-family="Roboto"><tspan y="0" x="0 17.007 33.084005 49.401006 64.878009 74.685009 90.58201 106.059009">+Fastest</tspan></text>
<text fill="#5e5e5e" xml:space="preserve" transform="matrix(1 0 -0 1 1080.313 783.4796)" font-size="30" font-family="Roboto"><tspan y="0" x="115.8398"> </tspan></text>
<text fill="#b51700" xml:space="preserve" transform="matrix(1 0 -0 1 1080.313 783.4796)" font-size="30" font-family="Roboto"><tspan y="0" x="123.2666 131.54361 147.6806 163.5776 179.8946 195.37162 205.17862 212.61562 232.1726 247.8896 263.6066 280.1336 289.7006 306.01759 315.8246">-Least Accurate</tspan></text>
<path transform="matrix(1,0,0,-1,0,900)" d="M1288.408 729.3569C1311.743 706.5509 1311.743 669.5752 1288.408 646.7693 1265.072 623.9634 1227.238 623.9634 1203.903 646.7693 1180.568 669.5752 1180.568 706.5509 1203.903 729.3569 1227.238 752.1628 1265.072 752.1628 1288.408 729.3569ZM1288.408 729.3569" fill="#d8aa3d"/>
</g>
<g clip-path="url(#clip_18)">
<text fill="#ffffff" xml:space="preserve" transform="matrix(1 0 -0 1 1221.272 203.88019)" font-size="32" font-family="HelveticaNeue"><tspan y="0" x="0 30.208003 49.760004">WV </tspan></text>
<text fill="#ffffff" xml:space="preserve" transform="matrix(1 0 -0 1 1208.519 242.88019)" font-size="32" font-family="HelveticaNeue"><tspan y="0" x="0 24.320002 46.848005">ORM</tspan></text>
</g>
<g clip-path="url(#clip_19)">
<text fill="#d8aa3d" xml:space="preserve" transform="matrix(1 0 -0 1 1102.287 73.010379)" font-size="36" font-family="Roboto" font-weight="bold"><tspan y="0" x="0 23.220002 36.3492 56.4948 76.6584 96.1164 110.0736 132.3468 152.4924 171.9504 192.114 206.0712 229.0464 248.34601 268.5096 287.7408">Prune-Then-Rank </tspan></text>
<text fill="#5e5e5e" xml:space="preserve" transform="matrix(1 0 -0 1 992.9424 109.47522)" font-size="30" font-family="Roboto"><tspan y="0" x="0 10.254001 26.148 34.044004 50.874006 58.770006 66.198009 85.12501 95.27701 111.81601 128.37001 144.264 151.69202 174.23702 186.60002 194.02803 210.87303 217.71303 234.16204 250.05603 265.52406 275.32505 281.66703 289.09504 307.56605 323.88307 340.43705 355.64103 363.06904 389.68504 396.96604 406.76704 423.29103 430.71903 451.34403 469.81504 496.00505 506.43605">(e.g. Prune w/ 1 Test; Rank With ORM) </tspan></text>
<text fill="#017100" xml:space="preserve" transform="matrix(1 0 -0 1 1044.593 144.47522)" font-size="30" font-family="Roboto"><tspan y="0" x="0 17.007 43.197 60.306 70.179 86.073009 93.50101 113.07001 128.772 144.474 161.013 170.577 186.894 196.69499 212.58899 220.017 237.02399 263.214 279.753 295.455 311.97898 319.40699 335.49 351.807 367.27503 377.07603 392.97">+More Accurate +Much Faster</tspan></text>
<text fill="#d8aa3d" xml:space="preserve" transform="matrix(.9975641 .06975647 -.06975647 .9975641 817.3878 215.50177)" font-size="30" font-family="Roboto" font-weight="bold"><tspan y="0" x="0 17.210999 34.422 43.137 60.348005 77.559 96.618007 104.088008 120.02401 136.10701 151.533 161.67 177.885 188.82599">11.65X Faster </tspan></text>
<text fill="#5e5e5e" xml:space="preserve" transform="matrix(0 -1 1 0 103.0312 631.6937)" font-size="34" font-family="Roboto" font-weight="bold"><tspan y="0" x="0 22.878602 40.6096 58.3406 77.367 89.27039 107.497798 125.22879 142.29679 150.76279 162.7002 184.399 202.776 220.2588 231.7474 244.92922 268.40284 280.58845 293.77024 315.35343">Accuracy (Best-Of-K)</tspan></text>
<text fill="#5e5e5e" xml:space="preserve" transform="matrix(1 0 -0 1 547.9634 882.81069)" font-size="34" font-family="Roboto" font-weight="bold"><tspan y="0" x="0 21.0358 40.062204 51.867 71.0906 90.117 109.5242 128.55062 147.69261 166.71901 178.20761 186.67362 198.61103 220.54103 232.34584 251.56945 270.97666 282.88008 301.10746 330.54127 348.02409 356.49009 369.1891 377.6551 398.5549 416.93193 434.6629 453.8865 472.9299 492.0889">Throughput (Programs / Second)</tspan></text>
<path transform="matrix(1,0,0,-1,0,900)" d="M148.8332 75.97697H968.138V208.64368H148.8332Z"/>
</g>
<g clip-path="url(#clip_20)">
<text fill="#ffffff" xml:space="preserve" transform="matrix(1 0 -0 1 199.6808 727.90066)" font-size="36" font-family="Roboto"><tspan y="0" x="0 21.3588 40.431608 49.168809 68.24161 87.08401 98.84521 107.582408 127.447208 147.6432 156.5568 176.13719 185.05078 205.24678 217.07639 237.6072 257.8032 269.28 288.8604 320.41444 329.32804 340.80485 360.38526 380.25007 398.49488 407.23207 427.09687 447.29289 456.20649 487.7605 506.8333 518.5945 538.4233 558.9541 579.2581 588.1717 600.01937 619.09219 639.55459 659.40139 668.13858 679.9862 699.059 717.6206">Selecting a program ranking method requires </tspan></text>
<text fill="#ffffff" xml:space="preserve" transform="matrix(1 0 -0 1 200.0676 769.90066)" font-size="36" font-family="Roboto"><tspan y="0" x="0 11.761201 23.238003 42.818407 63.122407 71.859607 91.7244 111.9204 120.83401 141.3648 153.86402 166.36322 175.27681 193.83841 214.03441 233.10721 252.18001 272.484 281.3976 293.89683 314.4276 326.61003 335.52363 355.10404 373.94645 392.78886 412.63566 424.11247 443.69288 462.53529 477.68769 487.16288 496.07649 504.99009 527.70248 539.8849 559.7317 579.5965 588.3337 608.1985 628.3945 636.6025 658.0837 677.9125 696.9853 716.8501">trading off speed for accuracy.  Pruning Then </tspan></text>
<text fill="#ffffff" xml:space="preserve" transform="matrix(1 0 -0 1 226.092 811.90066)" font-size="36" font-family="Roboto"><tspan y="0" x="0 22.165204 41.745607 61.61041 79.85521 88.59241 108.45721 128.65322 137.5668 157.1472 165.8844 174.6216 195.1524 222.2064 240.768 249.6816 269.262 278.1756 309.7296 330.2604 342.108 361.1808 370.0944 382.5936 401.91123 419.08683 439.6176 451.09443 470.67485 490.87086 499.60804 518.68087 527.5944 539.3556 550.8324 570.4128 590.7168 609.7896 630.32046 642.81967 655.31887">Ranking allows a more favorable tradeoff.</tspan></text>
</g>
<g clip-path="url(#clip_21)">
<path transform="matrix(.4078164,-.913064,.913064,.4078164,1110.341,478.1029)" stroke-width="6" stroke-linecap="butt" stroke-dasharray="12,12" stroke-miterlimit="4" stroke-linejoin="miter" fill="none" stroke="#929292" d="M0 0H199.7393 202.7393"/>
<path transform="matrix(1,0,0,-1,0,900)" d="M1202.755 599.3781 1201.585 626.1854 1180.841 609.1657Z" fill="#929292"/>
</g>
</g>
</svg>
