<svg class="main-svg" xmlns="http://www.w3.org/2000/svg" xmlns:xlink="http://www.w3.org/1999/xlink" width="800" height="500" style="" viewBox="0 0 800 500"><rect x="0" y="0" width="800" height="500" style="fill: rgb(255, 255, 255); fill-opacity: 1;"/><defs id="defs-a3e7d9"><g class="clips"><clipPath id="clipa3e7d9xyplot" class="plotclip"><rect width="541" height="480"/></clipPath><clipPath class="axesclip" id="clipa3e7d9x"><rect x="72" y="0" width="541" height="500"/></clipPath><clipPath class="axesclip" id="clipa3e7d9y"><rect x="0" y="10" width="800" height="480"/></clipPath><clipPath class="axesclip" id="clipa3e7d9xy"><rect x="72" y="10" width="541" height="480"/></clipPath></g><g class="gradients"/><g class="patterns"/></defs><g class="bglayer"/><g class="layer-below"><g class="imagelayer"/><g class="shapelayer"/></g><g class="cartesianlayer"><g class="subplot xy"><g class="layer-subplot"><g class="shapelayer"/><g class="imagelayer"/></g><g class="minor-gridlayer"><g class="x"/><g class="y"/></g><g class="gridlayer"><g class="x"><path class="xgrid crisp" transform="translate(121.18,0)" d="M0,10v480" style="stroke: rgb(211, 211, 211); stroke-opacity: 1; stroke-width: 1px;"/><path class="xgrid crisp" transform="translate(176.51,0)" d="M0,10v480" style="stroke: rgb(211, 211, 211); stroke-opacity: 1; stroke-width: 1px;"/><path class="xgrid crisp" transform="translate(231.84,0)" d="M0,10v480" style="stroke: rgb(211, 211, 211); stroke-opacity: 1; stroke-width: 1px;"/><path class="xgrid crisp" transform="translate(287.16999999999996,0)" d="M0,10v480" style="stroke: rgb(211, 211, 211); stroke-opacity: 1; stroke-width: 1px;"/><path class="xgrid crisp" transform="translate(342.5,0)" d="M0,10v480" style="stroke: rgb(211, 211, 211); stroke-opacity: 1; stroke-width: 1px;"/><path class="xgrid crisp" transform="translate(397.83,0)" d="M0,10v480" style="stroke: rgb(211, 211, 211); stroke-opacity: 1; stroke-width: 1px;"/><path class="xgrid crisp" transform="translate(453.16,0)" d="M0,10v480" style="stroke: rgb(211, 211, 211); stroke-opacity: 1; stroke-width: 1px;"/><path class="xgrid crisp" transform="translate(508.49,0)" d="M0,10v480" style="stroke: rgb(211, 211, 211); stroke-opacity: 1; stroke-width: 1px;"/><path class="xgrid crisp" transform="translate(563.8199999999999,0)" d="M0,10v480" style="stroke: rgb(211, 211, 211); stroke-opacity: 1; stroke-width: 1px;"/></g><g class="y"><path class="ygrid crisp" transform="translate(0,479.94)" d="M72,0h541" style="stroke: rgb(211, 211, 211); stroke-opacity: 1; stroke-width: 1px;"/><path class="ygrid crisp" transform="translate(0,424.26)" d="M72,0h541" style="stroke: rgb(211, 211, 211); stroke-opacity: 1; stroke-width: 1px;"/><path class="ygrid crisp" transform="translate(0,312.9)" d="M72,0h541" style="stroke: rgb(211, 211, 211); stroke-opacity: 1; stroke-width: 1px;"/><path class="ygrid crisp" transform="translate(0,257.22)" d="M72,0h541" style="stroke: rgb(211, 211, 211); stroke-opacity: 1; stroke-width: 1px;"/><path class="ygrid crisp" transform="translate(0,201.54)" d="M72,0h541" style="stroke: rgb(211, 211, 211); stroke-opacity: 1; stroke-width: 1px;"/><path class="ygrid crisp" transform="translate(0,145.87)" d="M72,0h541" style="stroke: rgb(211, 211, 211); stroke-opacity: 1; stroke-width: 1px;"/><path class="ygrid crisp" transform="translate(0,90.19)" d="M72,0h541" style="stroke: rgb(211, 211, 211); stroke-opacity: 1; stroke-width: 1px;"/><path class="ygrid crisp" transform="translate(0,34.510000000000005)" d="M72,0h541" style="stroke: rgb(211, 211, 211); stroke-opacity: 1; stroke-width: 1px;"/></g></g><g class="zerolinelayer"><path class="yzl zl crisp" transform="translate(0,368.58)" d="M72,0h541" style="stroke: rgb(255, 255, 255); stroke-opacity: 1; stroke-width: 2px;"/></g><g class="layer-between"><g class="shapelayer"/><g class="imagelayer"/></g><path class="xlines-below"/><path class="ylines-below"/><g class="overlines-below"/><g class="xaxislayer-below"/><g class="yaxislayer-below"/><g class="overaxes-below"/><g class="overplot"><g class="xy" transform="translate(72,10)" clip-path="url(#clipa3e7d9xyplot)"><g class="violinlayer mlayer"><g class="trace violins" style="opacity: 1;"><path class="violin" d="M49.47,383.51Q49.63,380.67 49.78,379.25C49.93,377.83 50.1,376.41 50.35,374.99C50.6,373.56 50.88,372.13 51.26,370.72C51.64,369.29 52.1,367.87 52.64,366.46C53.19,365.02 53.82,363.6 54.52,362.19C55.24,360.75 56.06,359.34 56.9,357.93C57.76,356.49 58.71,355.08 59.64,353.66C60.58,352.23 61.58,350.83 62.51,349.4C63.44,347.98 64.38,346.57 65.22,345.13C66.04,343.72 66.83,342.31 67.49,340.87C68.14,339.47 68.71,338.05 69.17,336.61C69.62,335.2 69.96,333.77 70.24,332.34C70.52,330.93 70.7,329.5 70.85,328.08C71,326.66 71.08,325.23 71.16,323.81C71.24,322.39 71.29,320.97 71.31,319.55C71.33,318.13 71.35,316.7 71.28,315.28C71.21,313.86 71.12,312.43 70.9,311.02C70.68,309.59 70.38,308.16 69.94,306.75C69.49,305.31 68.9,303.89 68.23,302.49C67.54,301.05 66.7,299.64 65.86,298.23C65,296.79 64.02,295.38 63.11,293.96C62.21,292.54 61.26,291.14 60.43,289.7C59.62,288.29 58.82,286.87 58.18,285.43C57.55,284.03 57.02,282.61 56.6,281.17C56.19,279.76 55.91,278.33 55.7,276.9C55.49,275.49 55.41,274.06 55.35,272.64C55.29,271.22 55.32,269.79 55.34,268.37C55.36,266.95 55.43,265.53 55.46,264.11C55.49,262.69 55.54,261.27 55.54,259.85C55.54,258.43 55.52,257 55.47,255.58C55.42,254.16 55.33,252.74 55.23,251.32C55.12,249.9 54.98,248.47 54.84,247.05C54.7,245.63 54.54,244.21 54.38,242.79C54.22,241.37 54.06,239.94 53.89,238.52C53.72,237.1 53.55,235.68 53.38,234.26C53.2,232.84 53.03,231.41 52.84,229.99C52.65,228.57 52.45,227.15 52.24,225.73C52.03,224.31 51.81,222.89 51.6,221.47C51.39,220.05 51.16,218.62 50.96,217.2C50.76,215.78 50.56,214.36 50.4,212.94C50.24,211.52 50.09,210.09 49.98,208.67C49.87,207.25 49.79,205.83 49.74,204.41C49.69,202.99 49.66,201.56 49.66,200.14C49.66,198.72 49.7,197.3 49.74,195.88C49.79,194.46 49.86,193.03 49.93,191.61C50,190.19 50.09,188.77 50.17,187.35C50.25,185.93 50.35,184.51 50.42,183.09C50.5,181.67 50.57,180.24 50.62,178.82C50.67,177.4 50.71,175.98 50.73,174.56C50.75,173.14 50.74,171.71 50.71,170.29C50.68,168.87 50.64,167.45 50.58,166.03C50.52,164.61 50.44,163.18 50.36,161.76C50.28,160.34 50.19,158.92 50.1,157.5C50.01,156.08 49.91,154.65 49.83,153.23C49.75,151.81 49.67,150.39 49.6,148.97C49.53,147.55 49.48,146.13 49.43,144.71Q49.38,143.29 49.31,140.44L49.05,140.44Q48.99,143.29 48.94,144.71C48.89,146.13 48.83,147.55 48.76,148.97C48.69,150.39 48.61,151.81 48.53,153.23C48.45,154.65 48.36,156.08 48.27,157.5C48.18,158.92 48.08,160.34 48,161.76C47.92,163.18 47.84,164.61 47.78,166.03C47.72,167.45 47.67,168.87 47.65,170.29C47.63,171.71 47.62,173.14 47.64,174.56C47.66,175.98 47.69,177.4 47.74,178.82C47.79,180.24 47.86,181.67 47.94,183.09C48.01,184.51 48.11,185.93 48.19,187.35C48.27,188.77 48.37,190.19 48.44,191.61C48.51,193.03 48.58,194.46 48.62,195.88C48.66,197.3 48.7,198.72 48.7,200.14C48.7,201.56 48.68,202.99 48.63,204.41C48.58,205.83 48.49,207.25 48.38,208.67C48.27,210.09 48.13,211.52 47.97,212.94C47.81,214.36 47.61,215.78 47.41,217.2C47.21,218.62 46.99,220.05 46.77,221.47C46.56,222.89 46.33,224.31 46.12,225.73C45.91,227.15 45.71,228.57 45.52,229.99C45.33,231.41 45.15,232.84 44.98,234.26C44.81,235.68 44.64,237.1 44.48,238.52C44.31,239.94 44.15,241.37 43.99,242.79C43.83,244.21 43.66,245.63 43.52,247.05C43.38,248.47 43.25,249.9 43.14,251.32C43.04,252.74 42.94,254.16 42.89,255.58C42.84,257 42.82,258.43 42.82,259.85C42.82,261.27 42.87,262.69 42.9,264.11C42.93,265.53 43,266.95 43.02,268.37C43.04,269.79 43.07,271.22 43.01,272.64C42.95,274.06 42.87,275.49 42.66,276.9C42.45,278.33 42.17,279.76 41.76,281.17C41.34,282.61 40.8,284.03 40.18,285.43C39.54,286.87 38.75,288.29 37.94,289.7C37.11,291.14 36.15,292.54 35.25,293.96C34.34,295.38 33.37,296.79 32.51,298.23C31.67,299.64 30.82,301.05 30.13,302.49C29.46,303.89 28.88,305.31 28.43,306.75C27.99,308.16 27.69,309.59 27.46,311.02C27.24,312.43 27.15,313.86 27.08,315.28C27.01,316.7 27.03,318.13 27.05,319.55C27.07,320.97 27.12,322.39 27.2,323.81C27.28,325.23 27.37,326.66 27.52,328.08C27.67,329.5 27.84,330.93 28.12,332.34C28.4,333.77 28.75,335.2 29.2,336.61C29.66,338.05 30.22,339.47 30.87,340.87C31.53,342.31 32.33,343.72 33.15,345.13C33.99,346.57 34.93,347.98 35.85,349.4C36.78,350.83 37.78,352.23 38.72,353.66C39.65,355.08 40.6,356.49 41.46,357.93C42.3,359.34 43.12,360.75 43.84,362.19C44.54,363.6 45.18,365.02 45.73,366.46C46.27,367.87 46.72,369.29 47.1,370.72C47.48,372.13 47.77,373.56 48.02,374.99C48.27,376.41 48.43,377.83 48.58,379.25Q48.73,380.67 48.9,383.51Z" style="vector-effect: none; stroke-width: 2px; stroke: rgb(160, 222, 205); stroke-opacity: 1; fill: rgb(160, 222, 205); fill-opacity: 0.5;"/><path class="box" d="M43.65,309.79H54.71M43.65,334.23H54.71V296.92H43.65ZM49.18,334.23V357.86M49.18,296.92V247.6" style="vector-effect: non-scaling-stroke; stroke-width: 2px; stroke: rgb(160, 222, 205); stroke-opacity: 1; fill: rgb(160, 222, 205); fill-opacity: 0.5;"/><path class="mean" d="M43.65,304.2H54.71" style="fill: none; vector-effect: non-scaling-stroke; stroke-width: 2px; stroke-dasharray: 4px, 2px; stroke: rgb(160, 222, 205); stroke-opacity: 1;"/><g class="points"><path class="point" transform="translate(40.9,232.99)" d="M3,0A3,3 0 1,1 0,-3A3,3 0 0,1 3,0Z" style="opacity: 1; stroke-width: 0px; fill: rgb(160, 222, 205); fill-opacity: 1;"/><path class="point" transform="translate(39.62,230.74)" d="M3,0A3,3 0 1,1 0,-3A3,3 0 0,1 3,0Z" style="opacity: 1; stroke-width: 0px; fill: rgb(160, 222, 205); fill-opacity: 1;"/><path class="point" transform="translate(41.19,226.16)" d="M3,0A3,3 0 1,1 0,-3A3,3 0 0,1 3,0Z" style="opacity: 1; stroke-width: 0px; fill: rgb(160, 222, 205); fill-opacity: 1;"/><path class="point" transform="translate(39.39,179.73)" d="M3,0A3,3 0 1,1 0,-3A3,3 0 0,1 3,0Z" style="opacity: 1; stroke-width: 0px; fill: rgb(160, 222, 205); fill-opacity: 1;"/><path class="point" transform="translate(40.06,166.1)" d="M3,0A3,3 0 1,1 0,-3A3,3 0 0,1 3,0Z" style="opacity: 1; stroke-width: 0px; fill: rgb(160, 222, 205); fill-opacity: 1;"/></g></g><g class="trace violins" style="opacity: 1;"><path class="violin" d="M104.89,388.58Q105.11,385.21 105.3,383.53C105.49,381.84 105.71,380.16 106.02,378.48C106.33,376.79 106.7,375.1 107.16,373.43C107.63,371.74 108.18,370.06 108.81,368.39C109.46,366.69 110.21,365.01 111.01,363.34C111.83,361.64 112.75,359.96 113.68,358.29C114.63,356.6 115.66,354.92 116.65,353.24C117.64,351.56 118.69,349.88 119.64,348.19C120.58,346.52 121.53,344.84 122.34,343.14C123.14,341.47 123.88,339.79 124.48,338.09C125.06,336.43 125.55,334.74 125.9,333.05C126.25,331.38 126.47,329.69 126.59,328C126.71,326.32 126.7,324.63 126.64,322.95C126.58,321.27 126.41,319.58 126.23,317.9C126.04,316.21 125.79,314.53 125.53,312.85C125.27,311.16 124.98,309.48 124.68,307.8C124.38,306.12 124.07,304.44 123.74,302.76C123.41,301.08 123.07,299.39 122.69,297.71C122.31,296.02 121.9,294.34 121.44,292.66C120.97,290.97 120.46,289.29 119.9,287.61C119.33,285.92 118.71,284.24 118.06,282.56C117.41,280.87 116.7,279.19 116,277.51C115.3,275.82 114.56,274.15 113.87,272.46C113.18,270.78 112.49,269.11 111.87,267.42C111.25,265.74 110.66,264.06 110.14,262.37C109.63,260.7 109.17,259.01 108.79,257.32C108.41,255.64 108.09,253.96 107.85,252.27C107.61,250.59 107.46,248.91 107.36,247.22C107.26,245.54 107.24,243.85 107.26,242.17C107.28,240.49 107.36,238.8 107.46,237.12C107.55,235.44 107.71,233.76 107.83,232.08C107.95,230.4 108.1,228.71 108.2,227.03C108.3,225.35 108.4,223.66 108.45,221.98C108.5,220.3 108.51,218.61 108.48,216.93C108.45,215.25 108.38,213.56 108.27,211.88C108.16,210.2 108,208.51 107.83,206.83C107.66,205.15 107.44,203.47 107.24,201.79C107.03,200.11 106.81,198.42 106.6,196.74C106.39,195.06 106.17,193.37 105.98,191.69C105.79,190.01 105.62,188.32 105.47,186.64C105.32,184.96 105.2,183.27 105.09,181.59C104.98,179.91 104.9,178.22 104.83,176.54Q104.76,174.86 104.67,171.49L104.35,171.49Q104.27,174.86 104.2,176.54C104.13,178.22 104.05,179.91 103.94,181.59C103.83,183.27 103.7,184.96 103.55,186.64C103.4,188.32 103.23,190.01 103.04,191.69C102.85,193.37 102.64,195.06 102.43,196.74C102.22,198.42 101.99,200.11 101.78,201.79C101.57,203.47 101.36,205.15 101.19,206.83C101.02,208.51 100.87,210.2 100.76,211.88C100.65,213.56 100.57,215.25 100.54,216.93C100.51,218.61 100.53,220.3 100.58,221.98C100.63,223.66 100.72,225.35 100.82,227.03C100.92,228.71 101.08,230.4 101.2,232.08C101.32,233.76 101.47,235.44 101.56,237.12C101.65,238.8 101.74,240.49 101.76,242.17C101.78,243.85 101.76,245.54 101.66,247.22C101.56,248.91 101.41,250.59 101.17,252.27C100.93,253.96 100.62,255.64 100.24,257.32C99.86,259.01 99.39,260.7 98.88,262.37C98.36,264.06 97.77,265.74 97.15,267.42C96.53,269.11 95.83,270.78 95.15,272.46C94.46,274.15 93.73,275.83 93.03,277.51C92.33,279.19 91.61,280.87 90.96,282.56C90.31,284.24 89.69,285.92 89.12,287.61C88.56,289.29 88.05,290.97 87.58,292.66C87.12,294.34 86.71,296.02 86.33,297.71C85.95,299.39 85.61,301.08 85.28,302.76C84.95,304.44 84.64,306.12 84.34,307.8C84.04,309.48 83.75,311.16 83.49,312.85C83.23,314.53 82.98,316.21 82.79,317.9C82.61,319.58 82.44,321.27 82.38,322.95C82.32,324.63 82.31,326.32 82.43,328C82.55,329.69 82.77,331.38 83.12,333.05C83.47,334.74 83.95,336.43 84.54,338.09C85.14,339.79 85.89,341.47 86.69,343.14C87.51,344.84 88.45,346.52 89.39,348.19C90.34,349.88 91.39,351.56 92.38,353.24C93.37,354.92 94.39,356.6 95.34,358.29C96.27,359.96 97.2,361.64 98.02,363.34C98.82,365.01 99.56,366.69 100.21,368.39C100.84,370.06 101.4,371.74 101.87,373.43C102.33,375.1 102.69,376.79 103,378.48C103.31,380.16 103.53,381.84 103.72,383.53Q103.91,385.21 104.13,388.58Z" style="vector-effect: none; stroke-width: 2px; stroke: rgb(84, 196, 166); stroke-opacity: 1; fill: rgb(84, 196, 166); fill-opacity: 0.5;"/><path class="box" d="M98.98,312.86H110.04M98.98,332.6H110.04V288.15H98.98ZM104.51,332.6V358.01M104.51,288.15V226.66" style="vector-effect: non-scaling-stroke; stroke-width: 2px; stroke: rgb(84, 196, 166); stroke-opacity: 1; fill: rgb(84, 196, 166); fill-opacity: 0.5;"/><path class="mean" d="M98.98,305.8H110.04" style="fill: none; vector-effect: non-scaling-stroke; stroke-width: 2px; stroke-dasharray: 4px, 2px; stroke: rgb(84, 196, 166); stroke-opacity: 1;"/><g class="points"><path class="point" transform="translate(96.23,221.32)" d="M3,0A3,3 0 1,1 0,-3A3,3 0 0,1 3,0Z" style="opacity: 1; stroke-width: 0px; fill: rgb(84, 196, 166); fill-opacity: 1;"/><path class="point" transform="translate(94.95,213.44)" d="M3,0A3,3 0 1,1 0,-3A3,3 0 0,1 3,0Z" style="opacity: 1; stroke-width: 0px; fill: rgb(84, 196, 166); fill-opacity: 1;"/><path class="point" transform="translate(96.52,212.19)" d="M3,0A3,3 0 1,1 0,-3A3,3 0 0,1 3,0Z" style="opacity: 1; stroke-width: 0px; fill: rgb(84, 196, 166); fill-opacity: 1;"/><path class="point" transform="translate(94.72,202.06)" d="M3,0A3,3 0 1,1 0,-3A3,3 0 0,1 3,0Z" style="opacity: 1; stroke-width: 0px; fill: rgb(84, 196, 166); fill-opacity: 1;"/></g></g><g class="trace violins" style="opacity: 1;"><path class="violin" d="M159.93,456Q159.98,452.14 160.01,450.21C160.04,448.28 160.07,446.35 160.11,444.42C160.15,442.49 160.2,440.55 160.24,438.62C160.28,436.69 160.33,434.76 160.37,432.83C160.41,430.9 160.45,428.97 160.47,427.04C160.49,425.11 160.51,423.18 160.51,421.25C160.51,419.32 160.51,417.38 160.49,415.45C160.47,413.52 160.43,411.59 160.4,409.66C160.37,407.73 160.33,405.8 160.3,403.87C160.27,401.94 160.24,400.01 160.23,398.08C160.22,396.15 160.22,394.21 160.26,392.28C160.3,390.35 160.36,388.42 160.48,386.49C160.6,384.56 160.75,382.63 161,380.7C161.25,378.76 161.56,376.83 161.99,374.91C162.43,372.97 162.96,371.02 163.61,369.11C164.28,367.16 165.08,365.23 165.97,363.32C166.88,361.37 167.94,359.44 169.03,357.53C170.13,355.58 171.38,353.67 172.55,351.74C173.73,349.81 174.98,347.89 176.08,345.94C177.16,344.03 178.24,342.11 179.09,340.15C179.92,338.25 180.66,336.31 181.14,334.36C181.61,332.45 181.89,330.5 181.97,328.57C182.05,326.64 181.9,324.69 181.63,322.77C181.36,320.83 180.86,318.9 180.33,316.98C179.79,315.04 179.11,313.11 178.43,311.19C177.75,309.25 176.98,307.33 176.26,305.4C175.54,303.47 174.8,301.55 174.13,299.61C173.47,297.68 172.83,295.75 172.27,293.81C171.71,291.89 171.22,289.96 170.78,288.02C170.34,286.1 169.98,284.16 169.64,282.23C169.3,280.3 169.02,278.37 168.74,276.44C168.46,274.51 168.22,272.57 167.97,270.64C167.72,268.71 167.48,266.78 167.24,264.85C166.99,262.92 166.74,260.99 166.5,259.06C166.26,257.13 166.01,255.2 165.78,253.27C165.55,251.34 165.33,249.4 165.12,247.47C164.91,245.54 164.72,243.61 164.54,241.68C164.36,239.75 164.2,237.82 164.03,235.89C163.86,233.96 163.7,232.03 163.54,230.1C163.38,228.17 163.22,226.23 163.05,224.3C162.88,222.37 162.71,220.44 162.53,218.51C162.35,216.58 162.15,214.65 161.97,212.72C161.79,210.79 161.6,208.86 161.43,206.93C161.26,205 161.09,203.06 160.94,201.13C160.79,199.2 160.66,197.27 160.54,195.34C160.43,193.41 160.33,191.48 160.25,189.55C160.17,187.62 160.11,185.69 160.06,183.76C160.01,181.83 159.98,179.89 159.95,177.96C159.92,176.03 159.91,174.1 159.89,172.17C159.88,170.24 159.87,168.31 159.86,166.38C159.85,164.45 159.85,162.52 159.85,160.59C159.85,158.66 159.84,156.73 159.84,154.8C159.84,152.87 159.84,150.93 159.84,149C159.84,147.07 159.84,145.14 159.84,143.21C159.84,141.28 159.84,139.35 159.84,137.42C159.84,135.49 159.84,133.56 159.84,131.63C159.84,129.7 159.84,127.76 159.84,125.83C159.84,123.9 159.84,121.97 159.84,120.04C159.84,118.11 159.85,116.18 159.85,114.25C159.85,112.32 159.85,110.39 159.86,108.46C159.87,106.53 159.88,104.59 159.89,102.66C159.9,100.73 159.92,98.8 159.94,96.87C159.96,94.94 159.99,93.01 160.02,91.08C160.05,89.15 160.09,87.22 160.13,85.29C160.17,83.36 160.22,81.42 160.26,79.49C160.3,77.56 160.35,75.63 160.39,73.7C160.43,71.77 160.46,69.84 160.48,67.91C160.5,65.98 160.51,64.05 160.51,62.12C160.51,60.19 160.49,58.25 160.47,56.32C160.45,54.39 160.41,52.46 160.37,50.53C160.33,48.6 160.28,46.67 160.24,44.74C160.2,42.81 160.15,40.88 160.11,38.95C160.07,37.02 160.04,35.08 160.01,33.15Q159.98,31.22 159.93,27.36L159.75,27.36Q159.7,31.22 159.67,33.15C159.64,35.08 159.61,37.02 159.57,38.95C159.53,40.88 159.48,42.81 159.44,44.74C159.4,46.67 159.35,48.6 159.31,50.53C159.27,52.46 159.23,54.39 159.21,56.32C159.19,58.25 159.17,60.19 159.17,62.12C159.17,64.05 159.18,65.98 159.2,67.91C159.22,69.84 159.25,71.77 159.29,73.7C159.33,75.63 159.38,77.56 159.42,79.49C159.46,81.42 159.51,83.36 159.55,85.29C159.59,87.22 159.63,89.15 159.66,91.08C159.69,93.01 159.72,94.94 159.74,96.87C159.76,98.8 159.78,100.73 159.79,102.66C159.8,104.59 159.81,106.53 159.82,108.46C159.83,110.39 159.83,112.32 159.83,114.25C159.83,116.18 159.84,118.11 159.84,120.04C159.84,121.97 159.84,123.9 159.84,125.83C159.84,127.76 159.84,129.7 159.84,131.63C159.84,133.56 159.84,135.49 159.84,137.42C159.84,139.35 159.84,141.28 159.84,143.21C159.84,145.14 159.84,147.07 159.84,149C159.84,150.93 159.84,152.87 159.84,154.8C159.84,156.73 159.83,158.66 159.83,160.59C159.83,162.52 159.83,164.45 159.82,166.38C159.81,168.31 159.8,170.24 159.79,172.17C159.77,174.1 159.76,176.03 159.73,177.96C159.7,179.89 159.67,181.83 159.62,183.76C159.57,185.69 159.51,187.62 159.43,189.55C159.35,191.48 159.25,193.41 159.14,195.34C159.02,197.27 158.89,199.2 158.74,201.13C158.59,203.06 158.42,205 158.25,206.93C158.08,208.86 157.89,210.79 157.71,212.72C157.53,214.65 157.34,216.58 157.16,218.51C156.98,220.44 156.8,222.37 156.63,224.3C156.46,226.23 156.3,228.17 156.14,230.1C155.98,232.03 155.83,233.96 155.66,235.89C155.49,237.82 155.32,239.75 155.14,241.68C154.96,243.61 154.77,245.54 154.56,247.47C154.35,249.4 154.13,251.34 153.9,253.27C153.67,255.2 153.42,257.13 153.18,259.06C152.94,260.99 152.69,262.92 152.45,264.85C152.2,266.78 151.96,268.71 151.71,270.64C151.46,272.57 151.22,274.51 150.94,276.44C150.66,278.37 150.39,280.3 150.05,282.23C149.71,284.16 149.34,286.1 148.9,288.02C148.46,289.96 147.97,291.89 147.41,293.81C146.85,295.75 146.21,297.68 145.55,299.61C144.88,301.55 144.14,303.47 143.43,305.4C142.71,307.33 141.94,309.25 141.26,311.19C140.58,313.11 139.89,315.04 139.35,316.98C138.82,318.9 138.32,320.83 138.05,322.77C137.78,324.69 137.63,326.64 137.71,328.57C137.79,330.51 138.08,332.45 138.55,334.36C139.03,336.31 139.77,338.25 140.59,340.15C141.44,342.11 142.52,344.03 143.6,345.94C144.7,347.89 145.95,349.81 147.13,351.74C148.3,353.67 149.55,355.58 150.65,357.53C151.74,359.44 152.8,361.37 153.71,363.32C154.6,365.23 155.4,367.16 156.07,369.11C156.72,371.02 157.25,372.97 157.69,374.91C158.12,376.83 158.43,378.77 158.68,380.7C158.93,382.63 159.09,384.56 159.21,386.49C159.33,388.42 159.38,390.35 159.42,392.28C159.46,394.21 159.46,396.15 159.45,398.08C159.44,400.01 159.41,401.94 159.38,403.87C159.35,405.8 159.31,407.73 159.28,409.66C159.25,411.59 159.22,413.52 159.2,415.45C159.18,417.38 159.17,419.32 159.17,421.25C159.17,423.18 159.19,425.11 159.21,427.04C159.23,428.97 159.27,430.9 159.31,432.83C159.35,434.76 159.4,436.69 159.44,438.62C159.48,440.55 159.53,442.49 159.57,444.42C159.61,446.35 159.64,448.28 159.67,450.21Q159.7,452.14 159.75,456Z" style="vector-effect: none; stroke-width: 2px; stroke: rgb(45, 132, 109); stroke-opacity: 1; fill: rgb(45, 132, 109); fill-opacity: 0.5;"/><path class="box" d="M154.31,317.13H165.37M154.31,336.18H165.37V285.09H154.31ZM159.84,336.18V357.62M159.84,285.09V214.98" style="vector-effect: non-scaling-stroke; stroke-width: 2px; stroke: rgb(45, 132, 109); stroke-opacity: 1; fill: rgb(45, 132, 109); fill-opacity: 0.5;"/><path class="mean" d="M154.31,305.67H165.37" style="fill: none; vector-effect: non-scaling-stroke; stroke-width: 2px; stroke-dasharray: 4px, 2px; stroke: rgb(45, 132, 109); stroke-opacity: 1;"/><g class="points"><path class="point" transform="translate(151.56,420.86)" d="M3,0A3,3 0 1,1 0,-3A3,3 0 0,1 3,0Z" style="opacity: 1; stroke-width: 0px; fill: rgb(45, 132, 109); fill-opacity: 1;"/><path class="point" transform="translate(150.53,62.5)" d="M3,0A3,3 0 1,1 0,-3A3,3 0 0,1 3,0Z" style="opacity: 1; stroke-width: 0px; fill: rgb(45, 132, 109); fill-opacity: 1;"/></g></g><g class="trace violins" style="opacity: 1;"><path class="violin" d="M215.42,389.59Q215.55,386.22 215.67,384.54C215.79,382.85 215.93,381.16 216.12,379.48C216.31,377.79 216.53,376.11 216.82,374.43C217.11,372.74 217.45,371.05 217.86,369.37C218.27,367.68 218.75,365.99 219.3,364.32C219.86,362.62 220.49,360.93 221.19,359.26C221.9,357.56 222.69,355.87 223.53,354.2C224.39,352.5 225.33,350.83 226.29,349.15C227.26,347.46 228.3,345.78 229.3,344.09C230.3,342.41 231.35,340.74 232.28,339.04C233.19,337.37 234.11,335.69 234.84,333.98C235.55,332.32 236.2,330.64 236.61,328.93C237.01,327.26 237.26,325.56 237.3,323.87C237.34,322.19 237.16,320.49 236.85,318.82C236.54,317.12 236,315.43 235.42,313.76C234.82,312.06 234.05,310.38 233.3,308.7C232.54,307.01 231.69,305.34 230.9,303.65C230.11,301.97 229.29,300.28 228.55,298.59C227.82,296.91 227.11,295.24 226.49,293.54C225.88,291.87 225.33,290.18 224.86,288.48C224.4,286.81 224.01,285.12 223.69,283.43C223.37,281.75 223.13,280.06 222.94,278.37C222.75,276.69 222.63,275 222.53,273.31C222.43,271.63 222.38,269.94 222.33,268.26C222.27,266.57 222.26,264.89 222.2,263.2C222.14,261.52 222.08,259.83 221.98,258.15C221.87,256.46 221.74,254.77 221.57,253.09C221.39,251.4 221.17,249.72 220.93,248.04C220.69,246.35 220.4,244.67 220.12,242.98C219.84,241.29 219.53,239.61 219.25,237.92C218.97,236.24 218.68,234.56 218.44,232.87C218.2,231.19 217.98,229.5 217.8,227.81C217.62,226.13 217.47,224.45 217.35,222.76C217.23,221.08 217.15,219.39 217.07,217.7C216.99,216.02 216.94,214.33 216.88,212.65C216.82,210.96 216.79,209.28 216.73,207.59C216.67,205.9 216.6,204.22 216.53,202.53C216.46,200.85 216.38,199.16 216.3,197.48C216.22,195.79 216.12,194.11 216.03,192.42C215.94,190.74 215.85,189.05 215.77,187.37C215.69,185.68 215.61,184 215.55,182.31C215.49,180.63 215.43,178.94 215.39,177.26Q215.35,175.57 215.29,172.2L215.05,172.2Q214.99,175.57 214.95,177.26C214.91,178.94 214.85,180.63 214.79,182.31C214.73,184 214.65,185.68 214.57,187.37C214.49,189.05 214.4,190.74 214.31,192.42C214.22,194.11 214.12,195.79 214.04,197.48C213.96,199.16 213.88,200.85 213.81,202.53C213.74,204.22 213.68,205.9 213.62,207.59C213.56,209.28 213.52,210.96 213.46,212.65C213.4,214.33 213.35,216.02 213.27,217.7C213.19,219.39 213.11,221.08 212.99,222.76C212.87,224.45 212.73,226.13 212.55,227.81C212.37,229.5 212.14,231.19 211.9,232.87C211.66,234.56 211.38,236.24 211.1,237.92C210.82,239.61 210.5,241.29 210.22,242.98C209.94,244.67 209.65,246.35 209.41,248.04C209.17,249.72 208.95,251.4 208.77,253.09C208.6,254.77 208.47,256.46 208.36,258.15C208.26,259.83 208.2,261.52 208.14,263.2C208.08,264.89 208.07,266.57 208.01,268.26C207.96,269.94 207.91,271.63 207.81,273.31C207.71,275 207.59,276.69 207.4,278.37C207.21,280.06 206.97,281.75 206.65,283.43C206.33,285.12 205.94,286.81 205.48,288.48C205.01,290.18 204.46,291.87 203.85,293.54C203.23,295.24 202.52,296.91 201.79,298.59C201.05,300.28 200.23,301.97 199.44,303.65C198.65,305.34 197.79,307.01 197.04,308.7C196.29,310.38 195.53,312.06 194.93,313.76C194.35,315.43 193.8,317.12 193.49,318.82C193.18,320.49 193,322.19 193.04,323.87C193.08,325.56 193.33,327.26 193.73,328.93C194.14,330.64 194.79,332.32 195.5,333.98C196.23,335.69 197.15,337.37 198.06,339.04C198.99,340.74 200.04,342.41 201.04,344.09C202.04,345.78 203.08,347.46 204.05,349.15C205.01,350.83 205.95,352.5 206.81,354.2C207.65,355.87 208.45,357.56 209.16,359.26C209.86,360.93 210.48,362.62 211.04,364.32C211.59,365.99 212.07,367.68 212.48,369.37C212.89,371.05 213.23,372.74 213.52,374.43C213.81,376.11 214.03,377.79 214.22,379.48C214.41,381.16 214.55,382.85 214.67,384.54Q214.79,386.22 214.92,389.59Z" style="vector-effect: none; stroke-width: 2px; stroke: rgb(220, 202, 161); stroke-opacity: 1; fill: rgb(220, 202, 161); fill-opacity: 0.5;"/><path class="box" d="M209.64,317.02H220.7M209.64,330.66H220.7V285.57H209.64ZM215.17,330.66V358.58M215.17,285.57V234.1" style="vector-effect: non-scaling-stroke; stroke-width: 2px; stroke: rgb(220, 202, 161); stroke-opacity: 1; fill: rgb(220, 202, 161); fill-opacity: 0.5;"/><path class="mean" d="M209.64,306.01H220.7" style="fill: none; vector-effect: non-scaling-stroke; stroke-width: 2px; stroke-dasharray: 4px, 2px; stroke: rgb(220, 202, 161); stroke-opacity: 1;"/><g class="points"><path class="point" transform="translate(206.89,212.12)" d="M3,0A3,3 0 1,1 0,-3A3,3 0 0,1 3,0Z" style="opacity: 1; stroke-width: 0px; fill: rgb(220, 202, 161); fill-opacity: 1;"/><path class="point" transform="translate(205.61,203.22)" d="M3,0A3,3 0 1,1 0,-3A3,3 0 0,1 3,0Z" style="opacity: 1; stroke-width: 0px; fill: rgb(220, 202, 161); fill-opacity: 1;"/></g></g><g class="trace violins" style="opacity: 1;"><path class="violin" d="M270.88,388.57Q271.12,384.75 271.32,382.84C271.52,380.92 271.76,379.01 272.09,377.1C272.43,375.18 272.83,373.27 273.33,371.37C273.84,369.45 274.44,367.53 275.12,365.63C275.81,363.7 276.61,361.8 277.44,359.9C278.28,357.98 279.23,356.07 280.16,354.16C281.1,352.24 282.1,350.34 283.05,348.43C284,346.52 284.96,344.61 285.85,342.69C286.73,340.79 287.59,338.88 288.34,336.96C289.08,335.06 289.77,333.15 290.35,331.22C290.92,329.32 291.42,327.41 291.79,325.49C292.16,323.59 292.44,321.67 292.58,319.75C292.72,317.84 292.74,315.93 292.63,314.02C292.52,312.1 292.26,310.18 291.91,308.28C291.55,306.36 291.04,304.45 290.5,302.55C289.95,300.63 289.27,298.72 288.62,296.81C287.97,294.89 287.24,292.99 286.58,291.08C285.92,289.17 285.25,287.26 284.65,285.34C284.05,283.44 283.49,281.53 282.97,279.61C282.45,277.7 281.98,275.79 281.53,273.87C281.08,271.96 280.68,270.04 280.27,268.13C279.86,266.22 279.47,264.31 279.08,262.4C278.69,260.49 278.31,258.57 277.94,256.66C277.57,254.75 277.2,252.84 276.84,250.93C276.49,249.02 276.14,247.1 275.81,245.19C275.48,243.28 275.17,241.37 274.87,239.46C274.57,237.55 274.3,235.63 274.03,233.72C273.76,231.81 273.5,229.9 273.26,227.99C273.02,226.08 272.8,224.16 272.59,222.25C272.38,220.34 272.19,218.43 272.02,216.52C271.85,214.61 271.7,212.69 271.57,210.78C271.45,208.87 271.34,206.96 271.27,205.05C271.2,203.14 271.15,201.22 271.13,199.31C271.11,197.4 271.13,195.49 271.16,193.58C271.19,191.67 271.25,189.75 271.31,187.84C271.37,185.93 271.47,184.02 271.54,182.11C271.62,180.2 271.7,178.28 271.76,176.37C271.82,174.46 271.87,172.55 271.9,170.64C271.93,168.73 271.93,166.81 271.91,164.9C271.89,162.99 271.83,161.08 271.77,159.17C271.71,157.26 271.62,155.34 271.53,153.43C271.44,151.52 271.34,149.61 271.25,147.7C271.16,145.79 271.07,143.87 270.99,141.96C270.91,140.05 270.85,138.13 270.79,136.22Q270.73,134.31 270.65,130.49L270.35,130.49Q270.27,134.31 270.21,136.22C270.15,138.13 270.09,140.05 270.01,141.96C269.93,143.87 269.84,145.79 269.75,147.7C269.66,149.61 269.56,151.52 269.47,153.43C269.38,155.34 269.29,157.26 269.23,159.17C269.17,161.08 269.11,162.99 269.09,164.9C269.07,166.81 269.07,168.73 269.1,170.64C269.13,172.55 269.18,174.46 269.24,176.37C269.3,178.28 269.38,180.2 269.46,182.11C269.53,184.02 269.63,185.93 269.69,187.84C269.75,189.75 269.81,191.67 269.84,193.58C269.87,195.49 269.89,197.4 269.87,199.31C269.85,201.22 269.8,203.14 269.73,205.05C269.66,206.96 269.55,208.87 269.43,210.78C269.3,212.69 269.15,214.61 268.98,216.52C268.81,218.43 268.62,220.34 268.41,222.25C268.2,224.16 267.98,226.08 267.74,227.99C267.5,229.9 267.24,231.81 266.97,233.72C266.7,235.63 266.43,237.55 266.13,239.46C265.83,241.37 265.52,243.28 265.19,245.19C264.86,247.1 264.51,249.02 264.16,250.93C263.8,252.84 263.43,254.75 263.06,256.66C262.69,258.57 262.31,260.49 261.92,262.4C261.53,264.31 261.14,266.22 260.73,268.13C260.32,270.04 259.92,271.96 259.47,273.87C259.02,275.79 258.55,277.7 258.03,279.61C257.51,281.53 256.95,283.44 256.35,285.34C255.75,287.26 255.08,289.17 254.42,291.08C253.76,292.99 253.03,294.89 252.38,296.81C251.73,298.72 251.05,300.63 250.5,302.55C249.96,304.45 249.45,306.36 249.09,308.28C248.74,310.18 248.48,312.1 248.37,314.02C248.26,315.93 248.28,317.84 248.42,319.75C248.56,321.67 248.84,323.59 249.21,325.49C249.58,327.41 250.08,329.32 250.65,331.22C251.23,333.15 251.92,335.06 252.66,336.96C253.41,338.88 254.27,340.79 255.15,342.69C256.04,344.61 257,346.52 257.95,348.43C258.9,350.34 259.9,352.24 260.84,354.16C261.77,356.07 262.72,357.98 263.56,359.9C264.39,361.8 265.19,363.7 265.88,365.63C266.56,367.53 267.16,369.45 267.67,371.37C268.17,373.27 268.57,375.18 268.91,377.1C269.24,379.01 269.48,380.92 269.68,382.84Q269.88,384.75 270.12,388.57Z" style="vector-effect: none; stroke-width: 2px; stroke: rgb(193, 159, 87); stroke-opacity: 1; fill: rgb(193, 159, 87); fill-opacity: 0.5;"/><path class="box" d="M264.97,308.32H276.03M264.97,329.71H276.03V279.44H264.97ZM270.5,329.71V354M270.5,279.44V224.49" style="vector-effect: non-scaling-stroke; stroke-width: 2px; stroke: rgb(193, 159, 87); stroke-opacity: 1; fill: rgb(193, 159, 87); fill-opacity: 0.5;"/><path class="mean" d="M264.97,301.77H276.03" style="fill: none; vector-effect: non-scaling-stroke; stroke-width: 2px; stroke-dasharray: 4px, 2px; stroke: rgb(193, 159, 87); stroke-opacity: 1;"/><g class="points"><path class="point" transform="translate(262.22,169.7)" d="M3,0A3,3 0 1,1 0,-3A3,3 0 0,1 3,0Z" style="opacity: 1; stroke-width: 0px; fill: rgb(193, 159, 87); fill-opacity: 1;"/><path class="point" transform="translate(260.94,165.07)" d="M3,0A3,3 0 1,1 0,-3A3,3 0 0,1 3,0Z" style="opacity: 1; stroke-width: 0px; fill: rgb(193, 159, 87); fill-opacity: 1;"/></g></g><g class="trace violins" style="opacity: 1;"><path class="violin" d="M326.72,396.17Q327.19,392.03 327.53,389.97C327.87,387.9 328.28,385.83 328.78,383.77C329.28,381.69 329.88,379.62 330.53,377.56C331.19,375.48 331.94,373.42 332.71,371.36C333.49,369.29 334.35,367.22 335.19,365.16C336.04,363.09 336.93,361.02 337.79,358.95C338.65,356.88 339.52,354.82 340.34,352.75C341.15,350.69 341.95,348.62 342.69,346.55C343.42,344.49 344.12,342.43 344.74,340.35C345.35,338.29 345.92,336.22 346.37,334.14C346.82,332.08 347.19,330.01 347.46,327.94C347.72,325.88 347.89,323.81 347.96,321.74C348.03,319.67 347.99,317.6 347.89,315.53C347.79,313.46 347.57,311.39 347.33,309.33C347.09,307.26 346.77,305.19 346.43,303.13C346.08,301.06 345.69,298.99 345.26,296.93C344.83,294.86 344.36,292.78 343.85,290.72C343.34,288.65 342.78,286.58 342.2,284.52C341.62,282.45 340.98,280.39 340.35,278.32C339.72,276.25 339.05,274.18 338.41,272.11C337.77,270.04 337.12,267.98 336.52,265.91C335.92,263.85 335.34,261.78 334.82,259.71C334.3,257.65 333.82,255.58 333.38,253.51C332.94,251.45 332.56,249.37 332.2,247.3C331.84,245.24 331.53,243.17 331.22,241.1C330.91,239.03 330.62,236.97 330.34,234.9C330.06,232.83 329.78,230.76 329.52,228.69C329.26,226.62 329.01,224.56 328.77,222.49C328.53,220.42 328.3,218.36 328.1,216.29C327.9,214.22 327.72,212.16 327.58,210.09C327.44,208.02 327.33,205.95 327.24,203.88C327.15,201.81 327.1,199.75 327.06,197.68C327.02,195.61 327,193.55 326.99,191.48C326.98,189.41 326.99,187.34 327,185.27C327,183.2 327.01,181.14 327.02,179.07C327.03,177 327.04,174.94 327.04,172.87C327.04,170.8 327.04,168.74 327.04,166.67C327.04,164.6 327.03,162.53 327.02,160.46C327.01,158.39 327,156.33 326.99,154.26C326.98,152.19 326.96,150.13 326.95,148.06C326.94,145.99 326.93,143.92 326.92,141.85C326.91,139.78 326.9,137.72 326.89,135.65C326.88,133.58 326.87,131.52 326.86,129.45C326.85,127.38 326.83,125.32 326.81,123.25C326.79,121.18 326.76,119.11 326.72,117.04C326.69,114.97 326.64,112.91 326.6,110.84C326.56,108.77 326.5,106.71 326.46,104.64C326.42,102.57 326.38,100.5 326.35,98.43C326.32,96.36 326.3,94.3 326.3,92.23C326.3,90.16 326.3,88.1 326.32,86.03C326.34,83.96 326.38,81.9 326.41,79.83C326.44,77.76 326.49,75.69 326.52,73.62C326.55,71.55 326.59,69.49 326.61,67.42C326.63,65.35 326.64,63.29 326.64,61.22C326.64,59.15 326.62,57.08 326.59,55.01C326.56,52.94 326.52,50.88 326.47,48.81C326.42,46.74 326.36,44.68 326.31,42.61C326.26,40.54 326.21,38.48 326.16,36.41C326.11,34.34 326.07,32.27 326.03,30.2Q325.99,28.13 325.94,24L325.72,24Q325.67,28.13 325.63,30.2C325.59,32.27 325.55,34.34 325.5,36.41C325.45,38.48 325.4,40.54 325.35,42.61C325.3,44.68 325.24,46.74 325.19,48.81C325.14,50.88 325.1,52.94 325.07,55.01C325.04,57.08 325.02,59.15 325.02,61.22C325.02,63.29 325.03,65.35 325.05,67.42C325.07,69.49 325.11,71.55 325.14,73.62C325.17,75.69 325.22,77.76 325.25,79.83C325.28,81.9 325.32,83.96 325.34,86.03C325.36,88.1 325.36,90.16 325.36,92.23C325.36,94.3 325.34,96.36 325.31,98.43C325.28,100.5 325.24,102.57 325.2,104.64C325.16,106.71 325.1,108.77 325.06,110.84C325.02,112.91 324.97,114.97 324.94,117.04C324.9,119.11 324.87,121.18 324.85,123.25C324.83,125.32 324.81,127.38 324.8,129.45C324.79,131.52 324.78,133.58 324.77,135.65C324.76,137.72 324.75,139.78 324.74,141.85C324.73,143.92 324.72,145.99 324.71,148.06C324.7,150.13 324.68,152.19 324.67,154.26C324.66,156.33 324.64,158.39 324.63,160.46C324.62,162.53 324.62,164.6 324.62,166.67C324.62,168.74 324.62,170.8 324.62,172.87C324.62,174.94 324.63,177 324.64,179.07C324.65,181.14 324.66,183.2 324.66,185.27C324.67,187.34 324.68,189.41 324.67,191.48C324.66,193.55 324.64,195.61 324.6,197.68C324.56,199.75 324.51,201.81 324.42,203.88C324.33,205.95 324.22,208.02 324.08,210.09C323.94,212.16 323.76,214.22 323.56,216.29C323.36,218.36 323.13,220.42 322.89,222.49C322.65,224.56 322.39,226.62 322.13,228.69C321.87,230.76 321.6,232.83 321.32,234.9C321.04,236.97 320.75,239.03 320.44,241.1C320.13,243.17 319.82,245.24 319.46,247.3C319.1,249.37 318.72,251.45 318.28,253.51C317.84,255.58 317.36,257.65 316.84,259.71C316.32,261.78 315.74,263.85 315.14,265.91C314.54,267.98 313.89,270.04 313.25,272.11C312.61,274.18 311.94,276.25 311.31,278.32C310.68,280.39 310.04,282.45 309.46,284.52C308.88,286.58 308.32,288.65 307.81,290.72C307.3,292.78 306.83,294.86 306.4,296.93C305.97,298.99 305.58,301.06 305.23,303.13C304.88,305.19 304.56,307.26 304.32,309.33C304.08,311.39 303.87,313.46 303.77,315.53C303.67,317.6 303.63,319.67 303.7,321.74C303.77,323.81 303.94,325.88 304.2,327.94C304.47,330.01 304.84,332.08 305.29,334.14C305.74,336.22 306.31,338.29 306.92,340.35C307.54,342.43 308.24,344.49 308.97,346.55C309.71,348.62 310.51,350.69 311.32,352.75C312.14,354.82 313.01,356.88 313.87,358.95C314.73,361.02 315.62,363.09 316.47,365.16C317.31,367.22 318.17,369.29 318.95,371.36C319.72,373.42 320.47,375.48 321.13,377.56C321.78,379.62 322.38,381.69 322.88,383.77C323.38,385.83 323.79,387.9 324.13,389.97Q324.47,392.03 324.94,396.17Z" style="vector-effect: none; stroke-width: 2px; stroke: rgb(130, 104, 48); stroke-opacity: 1; fill: rgb(130, 104, 48); fill-opacity: 0.5;"/><path class="box" d="M320.3,310.94H331.36M320.3,333.28H331.36V278.62H320.3ZM325.83,333.28V358.58M325.83,278.62V226.22" style="vector-effect: non-scaling-stroke; stroke-width: 2px; stroke: rgb(130, 104, 48); stroke-opacity: 1; fill: rgb(130, 104, 48); fill-opacity: 0.5;"/><path class="mean" d="M320.3,297.84H331.36" style="fill: none; vector-effect: non-scaling-stroke; stroke-width: 2px; stroke-dasharray: 4px, 2px; stroke: rgb(130, 104, 48); stroke-opacity: 1;"/><g class="points"><path class="point" transform="translate(317.55,185.71)" d="M3,0A3,3 0 1,1 0,-3A3,3 0 0,1 3,0Z" style="opacity: 1; stroke-width: 0px; fill: rgb(130, 104, 48); fill-opacity: 1;"/><path class="point" transform="translate(316.27,155.93)" d="M3,0A3,3 0 1,1 0,-3A3,3 0 0,1 3,0Z" style="opacity: 1; stroke-width: 0px; fill: rgb(130, 104, 48); fill-opacity: 1;"/><path class="point" transform="translate(317.83,120.77)" d="M3,0A3,3 0 1,1 0,-3A3,3 0 0,1 3,0Z" style="opacity: 1; stroke-width: 0px; fill: rgb(130, 104, 48); fill-opacity: 1;"/><path class="point" transform="translate(316.04,61.59)" d="M3,0A3,3 0 1,1 0,-3A3,3 0 0,1 3,0Z" style="opacity: 1; stroke-width: 0px; fill: rgb(130, 104, 48); fill-opacity: 1;"/></g></g><g class="trace violins" style="opacity: 1;"><path class="violin" d="M381.68,395.14Q381.98,391.1 382.22,389.09C382.46,387.07 382.75,385.06 383.13,383.05C383.51,381.03 383.97,379 384.52,377C385.08,374.97 385.73,372.96 386.46,370.96C387.2,368.93 388.04,366.91 388.93,364.91C389.83,362.88 390.84,360.88 391.84,358.87C392.84,356.85 393.92,354.85 394.94,352.83C395.95,350.82 397,348.81 397.93,346.78C398.85,344.78 399.76,342.77 400.5,340.74C401.23,338.74 401.88,336.72 402.35,334.69C402.81,332.69 403.14,330.67 403.29,328.65C403.44,326.64 403.42,324.61 403.27,322.6C403.12,320.58 402.78,318.56 402.37,316.56C401.96,314.53 401.38,312.52 400.8,310.51C400.21,308.49 399.52,306.48 398.85,304.47C398.18,302.45 397.46,300.44 396.8,298.42C396.14,296.41 395.49,294.4 394.9,292.38C394.32,290.37 393.77,288.35 393.28,286.33C392.8,284.32 392.37,282.31 391.98,280.29C391.6,278.28 391.27,276.26 390.97,274.24C390.67,272.23 390.42,270.21 390.18,268.2C389.95,266.19 389.75,264.17 389.56,262.16C389.37,260.14 389.2,258.13 389.02,256.11C388.84,254.1 388.67,252.08 388.49,250.07C388.3,248.05 388.12,246.04 387.91,244.02C387.7,242.01 387.48,239.99 387.25,237.98C387.02,235.96 386.79,233.95 386.54,231.93C386.3,229.92 386.03,227.9 385.78,225.89C385.53,223.87 385.28,221.86 385.04,219.84C384.8,217.83 384.55,215.81 384.33,213.8C384.11,211.78 383.89,209.77 383.7,207.75C383.51,205.74 383.32,203.73 383.17,201.71C383.02,199.7 382.89,197.68 382.78,195.66C382.67,193.65 382.57,191.63 382.49,189.62C382.41,187.6 382.35,185.59 382.28,183.57C382.22,181.56 382.16,179.54 382.1,177.53C382.04,175.52 381.99,173.5 381.94,171.49C381.89,169.47 381.84,167.46 381.79,165.44C381.75,163.43 381.7,161.41 381.67,159.4C381.64,157.38 381.62,155.37 381.61,153.35C381.6,151.34 381.61,149.32 381.62,147.31C381.63,145.29 381.67,143.28 381.7,141.26C381.73,139.25 381.76,137.23 381.79,135.22C381.82,133.2 381.86,131.19 381.88,129.17C381.9,127.16 381.9,125.14 381.9,123.13C381.9,121.11 381.89,119.1 381.86,117.08C381.84,115.07 381.79,113.05 381.75,111.04C381.71,109.02 381.65,107.01 381.6,104.99C381.55,102.98 381.5,100.96 381.46,98.95C381.42,96.93 381.37,94.92 381.34,92.9Q381.31,90.89 381.26,86.86L381.06,86.86Q381.01,90.89 380.98,92.9C380.95,94.92 380.91,96.93 380.86,98.95C380.82,100.96 380.76,102.98 380.71,104.99C380.66,107.01 380.61,109.02 380.57,111.04C380.53,113.05 380.48,115.07 380.46,117.08C380.43,119.1 380.42,121.11 380.42,123.13C380.42,125.14 380.42,127.16 380.44,129.17C380.46,131.19 380.49,133.2 380.52,135.22C380.55,137.23 380.59,139.25 380.62,141.26C380.65,143.28 380.69,145.29 380.7,147.31C380.71,149.32 380.72,151.34 380.71,153.35C380.7,155.37 380.68,157.38 380.65,159.4C380.62,161.41 380.57,163.43 380.53,165.44C380.48,167.46 380.43,169.47 380.38,171.49C380.33,173.5 380.28,175.52 380.22,177.53C380.16,179.54 380.1,181.56 380.04,183.57C379.97,185.59 379.91,187.6 379.83,189.62C379.75,191.63 379.65,193.65 379.54,195.66C379.42,197.68 379.29,199.69 379.14,201.71C378.99,203.72 378.81,205.74 378.62,207.75C378.43,209.77 378.21,211.78 377.99,213.8C377.77,215.81 377.52,217.83 377.28,219.84C377.04,221.86 376.78,223.87 376.53,225.89C376.28,227.9 376.02,229.92 375.78,231.93C375.54,233.95 375.3,235.96 375.07,237.98C374.84,239.99 374.62,242.01 374.41,244.02C374.2,246.04 374.02,248.05 373.83,250.07C373.65,252.08 373.48,254.1 373.3,256.11C373.12,258.13 372.96,260.14 372.76,262.16C372.57,264.17 372.36,266.19 372.13,268.2C371.89,270.21 371.65,272.23 371.35,274.24C371.05,276.26 370.72,278.28 370.34,280.29C369.95,282.31 369.52,284.32 369.04,286.33C368.55,288.35 368,290.37 367.42,292.38C366.83,294.4 366.18,296.41 365.52,298.42C364.86,300.44 364.14,302.45 363.47,304.47C362.8,306.48 362.11,308.49 361.52,310.51C360.94,312.52 360.36,314.53 359.95,316.56C359.54,318.56 359.2,320.58 359.05,322.6C358.9,324.61 358.88,326.64 359.03,328.65C359.18,330.67 359.51,332.69 359.97,334.69C360.44,336.72 361.09,338.74 361.82,340.74C362.56,342.77 363.46,344.78 364.38,346.78C365.31,348.81 366.36,350.82 367.38,352.83C368.4,354.85 369.48,356.85 370.48,358.87C371.48,360.88 372.48,362.88 373.38,364.91C374.27,366.91 375.12,368.93 375.86,370.96C376.59,372.96 377.24,374.97 377.8,377C378.35,379 378.81,381.03 379.19,383.05C379.57,385.06 379.86,387.07 380.1,389.09Q380.34,391.1 380.63,395.14Z" style="vector-effect: none; stroke-width: 2px; stroke: rgb(233, 167, 148); stroke-opacity: 1; fill: rgb(233, 167, 148); fill-opacity: 0.5;"/><path class="box" d="M375.63,313.35H386.69M375.63,334.81H386.69V281.65H375.63ZM381.16,334.81V358.58M381.16,281.65V211.85" style="vector-effect: non-scaling-stroke; stroke-width: 2px; stroke: rgb(233, 167, 148); stroke-opacity: 1; fill: rgb(233, 167, 148); fill-opacity: 0.5;"/><path class="mean" d="M375.63,301.45H386.69" style="fill: none; vector-effect: non-scaling-stroke; stroke-width: 2px; stroke-dasharray: 4px, 2px; stroke: rgb(233, 167, 148); stroke-opacity: 1;"/><g class="points"><path class="point" transform="translate(372.88,180.1)" d="M3,0A3,3 0 1,1 0,-3A3,3 0 0,1 3,0Z" style="opacity: 1; stroke-width: 0px; fill: rgb(233, 167, 148); fill-opacity: 1;"/><path class="point" transform="translate(371.6,123.42)" d="M3,0A3,3 0 1,1 0,-3A3,3 0 0,1 3,0Z" style="opacity: 1; stroke-width: 0px; fill: rgb(233, 167, 148); fill-opacity: 1;"/></g></g><g class="trace violins" style="opacity: 1;"><path class="violin" d="M437.15,398.63Q437.53,394.18 437.83,391.96C438.14,389.73 438.5,387.5 438.98,385.29C439.46,383.06 440.03,380.83 440.71,378.62C441.39,376.38 442.2,374.16 443.07,371.95C443.95,369.71 444.96,367.49 445.97,365.28C446.99,363.05 448.11,360.83 449.17,358.61C450.23,356.39 451.35,354.18 452.35,351.94C453.34,349.73 454.31,347.51 455.12,345.27C455.92,343.07 456.64,340.84 457.18,338.6C457.71,336.39 458.11,334.16 458.35,331.93C458.59,329.71 458.66,327.48 458.62,325.26C458.58,323.04 458.37,320.81 458.1,318.59C457.82,316.36 457.41,314.14 456.97,311.92C456.53,309.69 455.99,307.47 455.45,305.25C454.91,303.02 454.31,300.8 453.74,298.58C453.17,296.36 452.57,294.14 452.03,291.91C451.49,289.69 450.96,287.47 450.48,285.24C450,283.02 449.56,280.8 449.16,278.57C448.76,276.35 448.41,274.12 448.07,271.9C447.73,269.68 447.42,267.45 447.1,265.23C446.77,263.01 446.46,260.78 446.12,258.56C445.77,256.34 445.42,254.11 445.03,251.89C444.64,249.66 444.21,247.44 443.79,245.22C443.37,242.99 442.92,240.77 442.49,238.54C442.06,236.32 441.62,234.1 441.22,231.87C440.82,229.65 440.43,227.43 440.08,225.2C439.73,222.98 439.41,220.76 439.12,218.53C438.84,216.31 438.58,214.09 438.37,211.86C438.16,209.64 437.99,207.41 437.84,205.19C437.7,202.97 437.59,200.74 437.5,198.52C437.42,196.3 437.37,194.07 437.33,191.85C437.29,189.63 437.29,187.4 437.28,185.18C437.27,182.96 437.29,180.73 437.29,178.51C437.29,176.29 437.3,174.06 437.3,171.84C437.3,169.62 437.29,167.39 437.28,165.17C437.27,162.95 437.26,160.72 437.25,158.5C437.24,156.28 437.22,154.05 437.22,151.83C437.22,149.61 437.22,147.38 437.22,145.16C437.22,142.94 437.24,140.71 437.25,138.49C437.26,136.27 437.27,134.04 437.27,131.82C437.27,129.6 437.27,127.37 437.26,125.15C437.25,122.93 437.22,120.7 437.19,118.48C437.16,116.26 437.12,114.03 437.08,111.81C437.04,109.59 436.98,107.36 436.93,105.14C436.88,102.92 436.83,100.69 436.79,98.47C436.75,96.25 436.7,94.02 436.67,91.8Q436.64,89.58 436.59,85.13L436.39,85.13Q436.34,89.58 436.31,91.8C436.28,94.02 436.23,96.25 436.19,98.47C436.15,100.69 436.1,102.92 436.05,105.14C436,107.36 435.95,109.59 435.9,111.81C435.86,114.03 435.81,116.26 435.78,118.48C435.75,120.7 435.73,122.93 435.72,125.15C435.71,127.37 435.71,129.6 435.71,131.82C435.71,134.04 435.72,136.27 435.73,138.49C435.74,140.71 435.76,142.94 435.76,145.16C435.76,147.38 435.75,149.61 435.75,151.83C435.74,154.05 435.74,156.28 435.73,158.5C435.72,160.72 435.7,162.95 435.69,165.17C435.68,167.39 435.68,169.62 435.68,171.84C435.68,174.06 435.69,176.29 435.69,178.51C435.69,180.73 435.7,182.96 435.69,185.18C435.68,187.4 435.67,189.63 435.64,191.85C435.61,194.07 435.56,196.3 435.48,198.52C435.4,200.74 435.29,202.97 435.14,205.19C434.99,207.41 434.81,209.64 434.6,211.86C434.38,214.09 434.13,216.31 433.85,218.53C433.56,220.76 433.24,222.98 432.89,225.2C432.54,227.43 432.15,229.65 431.75,231.87C431.35,234.1 430.92,236.32 430.49,238.54C430.06,240.77 429.6,242.99 429.18,245.22C428.76,247.44 428.34,249.66 427.95,251.89C427.56,254.11 427.2,256.34 426.85,258.56C426.5,260.78 426.19,263.01 425.87,265.23C425.55,267.45 425.25,269.68 424.91,271.9C424.57,274.12 424.22,276.35 423.82,278.57C423.42,280.8 422.98,283.02 422.5,285.24C422.02,287.47 421.48,289.69 420.94,291.91C420.4,294.14 419.81,296.36 419.24,298.58C418.67,300.8 418.07,303.02 417.53,305.25C416.99,307.47 416.45,309.69 416.01,311.92C415.57,314.14 415.16,316.36 414.88,318.59C414.61,320.81 414.4,323.04 414.36,325.26C414.32,327.48 414.39,329.71 414.63,331.93C414.87,334.16 415.27,336.39 415.8,338.6C416.34,340.84 417.06,343.07 417.86,345.27C418.67,347.51 419.64,349.73 420.63,351.94C421.63,354.18 422.75,356.39 423.81,358.61C424.87,360.83 425.99,363.05 427.01,365.28C428.02,367.49 429.03,369.71 429.91,371.95C430.78,374.16 431.59,376.38 432.27,378.62C432.95,380.83 433.52,383.06 434,385.29C434.48,387.5 434.84,389.73 435.15,391.96Q435.45,394.18 435.83,398.63Z" style="vector-effect: none; stroke-width: 2px; stroke: rgb(217, 96, 63); stroke-opacity: 1; fill: rgb(217, 96, 63); fill-opacity: 0.5;"/><path class="box" d="M430.96,314.01H442.02M430.96,337.09H442.02V278.86H430.96ZM436.49,337.09V358.58M436.49,278.86V224.95" style="vector-effect: non-scaling-stroke; stroke-width: 2px; stroke: rgb(217, 96, 63); stroke-opacity: 1; fill: rgb(217, 96, 63); fill-opacity: 0.5;"/><path class="mean" d="M430.96,303.89H442.02" style="fill: none; vector-effect: non-scaling-stroke; stroke-width: 2px; stroke-dasharray: 4px, 2px; stroke: rgb(217, 96, 63); stroke-opacity: 1;"/><g class="points"><path class="point" transform="translate(428.21,172.07)" d="M3,0A3,3 0 1,1 0,-3A3,3 0 0,1 3,0Z" style="opacity: 1; stroke-width: 0px; fill: rgb(217, 96, 63); fill-opacity: 1;"/><path class="point" transform="translate(426.93,125.18)" d="M3,0A3,3 0 1,1 0,-3A3,3 0 0,1 3,0Z" style="opacity: 1; stroke-width: 0px; fill: rgb(217, 96, 63); fill-opacity: 1;"/></g></g><g class="trace violins" style="opacity: 1;"><path class="violin" d="M492.34,390.18Q492.62,386.7 492.83,384.97C493.04,383.23 493.3,381.49 493.62,379.76C493.95,378.02 494.33,376.28 494.78,374.55C495.24,372.8 495.76,371.07 496.35,369.34C496.94,367.6 497.62,365.86 498.33,364.14C499.05,362.39 499.84,360.66 500.66,358.93C501.48,357.18 502.37,355.45 503.25,353.72C504.13,351.98 505.06,350.25 505.95,348.51C506.84,346.78 507.75,345.05 508.57,343.3C509.38,341.57 510.19,339.84 510.87,338.09C511.54,336.37 512.16,334.63 512.63,332.88C513.09,331.16 513.46,329.42 513.68,327.68C513.9,325.95 513.98,324.21 513.95,322.47C513.92,320.73 513.73,318.99 513.47,317.26C513.21,315.52 512.81,313.78 512.38,312.05C511.95,310.31 511.41,308.57 510.88,306.84C510.34,305.1 509.74,303.37 509.16,301.63C508.58,299.89 507.97,298.16 507.4,296.42C506.83,294.69 506.26,292.95 505.72,291.21C505.18,289.48 504.67,287.75 504.17,286.01C503.68,284.28 503.2,282.54 502.75,280.8C502.3,279.07 501.87,277.33 501.45,275.59C501.03,273.86 500.63,272.12 500.24,270.38C499.85,268.64 499.47,266.91 499.1,265.17C498.73,263.43 498.37,261.7 498.04,259.96C497.71,258.23 497.4,256.49 497.12,254.75C496.85,253.02 496.6,251.29 496.39,249.55C496.18,247.82 496.01,246.08 495.87,244.34C495.73,242.6 495.63,240.87 495.54,239.13C495.45,237.39 495.38,235.66 495.32,233.92C495.26,232.18 495.21,230.45 495.16,228.71C495.11,226.97 495.07,225.24 495.03,223.5C494.99,221.76 494.95,220.03 494.93,218.29C494.91,216.55 494.9,214.82 494.89,213.08C494.88,211.35 494.89,209.61 494.88,207.88C494.87,206.14 494.87,204.41 494.85,202.67C494.83,200.93 494.79,199.2 494.73,197.46C494.67,195.72 494.58,193.99 494.48,192.25C494.38,190.51 494.24,188.78 494.11,187.04C493.98,185.3 493.82,183.57 493.68,181.83C493.54,180.09 493.39,178.36 493.27,176.62C493.15,174.89 493.05,173.15 492.97,171.42C492.89,169.68 492.84,167.95 492.8,166.21C492.76,164.47 492.74,162.74 492.72,161C492.7,159.26 492.71,157.53 492.7,155.79C492.69,154.05 492.69,152.32 492.67,150.58C492.65,148.84 492.62,147.11 492.59,145.37C492.55,143.63 492.51,141.9 492.46,140.16C492.41,138.42 492.35,136.69 492.3,134.95C492.25,133.22 492.19,131.48 492.14,129.75C492.09,128.01 492.06,126.28 492.02,124.54Q491.99,122.8 491.93,119.33L491.71,119.33Q491.66,122.8 491.62,124.54C491.58,126.28 491.54,128.01 491.49,129.75C491.44,131.48 491.39,133.22 491.34,134.95C491.29,136.69 491.23,138.42 491.18,140.16C491.13,141.9 491.09,143.63 491.05,145.37C491.02,147.11 490.99,148.84 490.97,150.58C490.95,152.32 490.95,154.05 490.94,155.79C490.93,157.53 490.93,159.26 490.91,161C490.89,162.74 490.88,164.47 490.84,166.21C490.8,167.95 490.75,169.68 490.67,171.42C490.59,173.15 490.48,174.89 490.36,176.62C490.24,178.36 490.1,180.09 489.96,181.83C489.82,183.57 489.66,185.3 489.53,187.04C489.4,188.78 489.27,190.51 489.16,192.25C489.06,193.99 488.96,195.72 488.9,197.46C488.84,199.2 488.8,200.93 488.78,202.67C488.76,204.41 488.75,206.14 488.75,207.88C488.75,209.61 488.76,211.35 488.75,213.08C488.74,214.82 488.72,216.55 488.7,218.29C488.68,220.03 488.65,221.76 488.61,223.5C488.57,225.24 488.53,226.97 488.48,228.71C488.43,230.45 488.37,232.18 488.31,233.92C488.24,235.66 488.18,237.39 488.09,239.13C488,240.87 487.9,242.6 487.76,244.34C487.62,246.08 487.46,247.82 487.25,249.55C487.04,251.29 486.79,253.02 486.52,254.75C486.24,256.49 485.93,258.23 485.6,259.96C485.27,261.7 484.91,263.43 484.54,265.17C484.17,266.91 483.78,268.64 483.39,270.38C483,272.12 482.6,273.85 482.18,275.59C481.76,277.33 481.34,279.07 480.89,280.8C480.44,282.54 479.96,284.28 479.47,286.01C478.97,287.75 478.46,289.48 477.92,291.21C477.38,292.95 476.81,294.69 476.24,296.42C475.67,298.16 475.06,299.89 474.48,301.63C473.9,303.37 473.3,305.1 472.76,306.84C472.22,308.57 471.68,310.31 471.25,312.05C470.82,313.78 470.42,315.52 470.16,317.26C469.9,318.99 469.72,320.73 469.69,322.47C469.66,324.21 469.74,325.95 469.96,327.68C470.18,329.42 470.55,331.16 471.01,332.88C471.48,334.63 472.1,336.37 472.77,338.09C473.45,339.84 474.26,341.57 475.07,343.3C475.89,345.05 476.8,346.78 477.69,348.51C478.58,350.25 479.51,351.98 480.39,353.72C481.27,355.45 482.16,357.18 482.98,358.93C483.8,360.66 484.59,362.39 485.31,364.14C486.02,365.86 486.7,367.6 487.29,369.34C487.88,371.07 488.4,372.8 488.86,374.55C489.31,376.28 489.69,378.02 490.02,379.76C490.34,381.49 490.6,383.23 490.81,384.97Q491.02,386.7 491.3,390.18Z" style="vector-effect: none; stroke-width: 2px; stroke: rgb(149, 55, 29); stroke-opacity: 1; fill: rgb(149, 55, 29); fill-opacity: 0.5;"/><path class="box" d="M486.29,315.57H497.35M486.29,333.6H497.35V287.66H486.29ZM491.82,333.6V358.58M491.82,287.66V231.93" style="vector-effect: non-scaling-stroke; stroke-width: 2px; stroke: rgb(149, 55, 29); stroke-opacity: 1; fill: rgb(149, 55, 29); fill-opacity: 0.5;"/><path class="mean" d="M486.29,301.32H497.35" style="fill: none; vector-effect: non-scaling-stroke; stroke-width: 2px; stroke-dasharray: 4px, 2px; stroke: rgb(149, 55, 29); stroke-opacity: 1;"/><g class="points"><path class="point" transform="translate(483.54,213.85)" d="M3,0A3,3 0 1,1 0,-3A3,3 0 0,1 3,0Z" style="opacity: 1; stroke-width: 0px; fill: rgb(149, 55, 29); fill-opacity: 1;"/><path class="point" transform="translate(482.26,200.06)" d="M3,0A3,3 0 1,1 0,-3A3,3 0 0,1 3,0Z" style="opacity: 1; stroke-width: 0px; fill: rgb(149, 55, 29); fill-opacity: 1;"/><path class="point" transform="translate(483.82,196.49)" d="M3,0A3,3 0 1,1 0,-3A3,3 0 0,1 3,0Z" style="opacity: 1; stroke-width: 0px; fill: rgb(149, 55, 29); fill-opacity: 1;"/><path class="point" transform="translate(482.03,189.6)" d="M3,0A3,3 0 1,1 0,-3A3,3 0 0,1 3,0Z" style="opacity: 1; stroke-width: 0px; fill: rgb(149, 55, 29); fill-opacity: 1;"/><path class="point" transform="translate(482.69,150.93)" d="M3,0A3,3 0 1,1 0,-3A3,3 0 0,1 3,0Z" style="opacity: 1; stroke-width: 0px; fill: rgb(149, 55, 29); fill-opacity: 1;"/></g></g></g></g></g><g class="zerolinelayer-above"/><path class="xlines-above crisp" d="M0,0" style="fill: none;"/><path class="ylines-above crisp" d="M0,0" style="fill: none;"/><g class="overlines-above"/><g class="xaxislayer-above"/><g class="yaxislayer-above"><g class="ytick"><text text-anchor="end" x="71" y="5.25" transform="translate(0,479.94)" style="font-family: Inter, Roboto, Arial, sans-serif; font-size: 15px; fill: rgb(34, 34, 34); fill-opacity: 1; white-space: pre;">100</text></g><g class="ytick"><text text-anchor="end" x="71" y="5.25" style="font-family: Inter, Roboto, Arial, sans-serif; font-size: 15px; fill: rgb(34, 34, 34); fill-opacity: 1; white-space: pre;" transform="translate(0,424.26)">50</text></g><g class="ytick"><text text-anchor="end" x="71" y="5.25" style="font-family: Inter, Roboto, Arial, sans-serif; font-size: 15px; fill: rgb(34, 34, 34); fill-opacity: 1; white-space: pre;" transform="translate(0,368.58)">0</text></g><g class="ytick"><text text-anchor="end" x="71" y="5.25" style="font-family: Inter, Roboto, Arial, sans-serif; font-size: 15px; fill: rgb(34, 34, 34); fill-opacity: 1; white-space: pre;" transform="translate(0,312.9)">50</text></g><g class="ytick"><text text-anchor="end" x="71" y="5.25" style="font-family: Inter, Roboto, Arial, sans-serif; font-size: 15px; fill: rgb(34, 34, 34); fill-opacity: 1; white-space: pre;" transform="translate(0,257.22)">100</text></g><g class="ytick"><text text-anchor="end" x="71" y="5.25" style="font-family: Inter, Roboto, Arial, sans-serif; font-size: 15px; fill: rgb(34, 34, 34); fill-opacity: 1; white-space: pre;" transform="translate(0,201.54)">150</text></g><g class="ytick"><text text-anchor="end" x="71" y="5.25" style="font-family: Inter, Roboto, Arial, sans-serif; font-size: 15px; fill: rgb(34, 34, 34); fill-opacity: 1; white-space: pre;" transform="translate(0,145.87)">200</text></g><g class="ytick"><text text-anchor="end" x="71" y="5.25" style="font-family: Inter, Roboto, Arial, sans-serif; font-size: 15px; fill: rgb(34, 34, 34); fill-opacity: 1; white-space: pre;" transform="translate(0,90.19)">250</text></g><g class="ytick"><text text-anchor="end" x="71" y="5.25" style="font-family: Inter, Roboto, Arial, sans-serif; font-size: 15px; fill: rgb(34, 34, 34); fill-opacity: 1; white-space: pre;" transform="translate(0,34.510000000000005)">300</text></g></g><g class="overaxes-above"/></g></g><g class="polarlayer"/><g class="smithlayer"/><g class="ternarylayer"/><g class="geolayer"/><g class="funnelarealayer"/><g class="pielayer"/><g class="iciclelayer"/><g class="treemaplayer"/><g class="sunburstlayer"/><g class="glimages"/><defs id="topdefs-a3e7d9"><g class="clips"/><clipPath id="legenda3e7d9"><rect width="166" height="305" x="0" y="0"/></clipPath></defs><g class="layer-above"><g class="imagelayer"/><g class="shapelayer"/></g><g class="infolayer"><g class="legend" pointer-events="all" transform="translate(623.82,10)"><rect class="bg" shape-rendering="crispEdges" style="stroke: rgb(68, 68, 68); stroke-opacity: 1; fill: rgb(255, 255, 255); fill-opacity: 0.9; stroke-width: 0px;" width="166" height="305" x="0" y="0"/><g class="scrollbox" transform="" clip-path="url(#legenda3e7d9)"><g class="groups" transform=""><g class="traces" transform="translate(0,17.55)" style="opacity: 1;"><text class="legendtext" text-anchor="start" x="5" y="6.63" style="font-family: Inter, Roboto, Arial, sans-serif; font-size: 17px; fill: rgb(65, 189, 156); fill-opacity: 1; white-space: pre;"><tspan style="font-weight:bold">GPT 5.1 Codex Max</tspan></text><g class="layers"><g class="legendfill"/><g class="legendlines"/><g class="legendsymbols"><g class="legendpoints"/></g></g><rect class="legendtoggle" x="0" y="-12.55" width="160.84765625" height="25.1" style="fill: rgb(0, 0, 0); fill-opacity: 0;"/></g><g class="traces" transform="translate(0,40.050000000000004)" style="opacity: 1;"><text class="legendtext" text-anchor="start" x="40" y="5.07" style="font-family: Inter, Roboto, Arial, sans-serif; font-size: 13px; fill: rgb(34, 34, 34); fill-opacity: 1; white-space: pre;">No Thinking</text><g class="layers" style="opacity: 1;"><g class="legendfill"/><g class="legendlines"/><g class="legendsymbols"><g class="legendpoints"><path class="legendbox" d="M6,6H-6V-6H6Z" transform="translate(20,0)" style="stroke-width: 2px; fill: rgb(160, 222, 205); fill-opacity: 0.5; stroke: rgb(160, 222, 205); stroke-opacity: 1;"/></g></g></g><rect class="legendtoggle" x="0" y="-9.950000000000001" width="160.84765625" height="19.900000000000002" style="fill: rgb(0, 0, 0); fill-opacity: 0;"/></g><g class="traces" transform="translate(0,59.95)" style="opacity: 1;"><text class="legendtext" text-anchor="start" x="40" y="5.07" style="font-family: Inter, Roboto, Arial, sans-serif; font-size: 13px; fill: rgb(34, 34, 34); fill-opacity: 1; white-space: pre;">Low</text><g class="layers" style="opacity: 1;"><g class="legendfill"/><g class="legendlines"/><g class="legendsymbols"><g class="legendpoints"><path class="legendbox" d="M6,6H-6V-6H6Z" transform="translate(20,0)" style="stroke-width: 2px; fill: rgb(84, 196, 166); fill-opacity: 0.5; stroke: rgb(84, 196, 166); stroke-opacity: 1;"/></g></g></g><rect class="legendtoggle" x="0" y="-9.950000000000001" width="160.84765625" height="19.900000000000002" style="fill: rgb(0, 0, 0); fill-opacity: 0;"/></g><g class="traces" transform="translate(0,79.85000000000001)" style="opacity: 1;"><text class="legendtext" text-anchor="start" x="40" y="5.07" style="font-family: Inter, Roboto, Arial, sans-serif; font-size: 13px; fill: rgb(34, 34, 34); fill-opacity: 1; white-space: pre;">High</text><g class="layers" style="opacity: 1;"><g class="legendfill"/><g class="legendlines"/><g class="legendsymbols"><g class="legendpoints"><path class="legendbox" d="M6,6H-6V-6H6Z" transform="translate(20,0)" style="stroke-width: 2px; fill: rgb(45, 132, 109); fill-opacity: 0.5; stroke: rgb(45, 132, 109); stroke-opacity: 1;"/></g></g></g><rect class="legendtoggle" x="0" y="-9.950000000000001" width="160.84765625" height="19.900000000000002" style="fill: rgb(0, 0, 0); fill-opacity: 0;"/></g></g><g class="groups" transform="translate(0,20)"><g class="traces" transform="translate(0,102.35000000000001)" style="opacity: 1;"><text class="legendtext" text-anchor="start" x="5" y="6.63" style="font-family: Inter, Roboto, Arial, sans-serif; font-size: 17px; fill: rgb(194, 161, 91); fill-opacity: 1; white-space: pre;"><tspan style="font-weight:bold">GPT 5.2</tspan></text><g class="layers"><g class="legendfill"/><g class="legendlines"/><g class="legendsymbols"><g class="legendpoints"/></g></g><rect class="legendtoggle" x="0" y="-12.55" width="160.84765625" height="25.1" style="fill: rgb(0, 0, 0); fill-opacity: 0;"/></g><g class="traces" transform="translate(0,124.85000000000001)" style="opacity: 1;"><text class="legendtext" text-anchor="start" x="40" y="5.07" style="font-family: Inter, Roboto, Arial, sans-serif; font-size: 13px; fill: rgb(34, 34, 34); fill-opacity: 1; white-space: pre;">No Thinking</text><g class="layers" style="opacity: 1;"><g class="legendfill"/><g class="legendlines"/><g class="legendsymbols"><g class="legendpoints"><path class="legendbox" d="M6,6H-6V-6H6Z" transform="translate(20,0)" style="stroke-width: 2px; fill: rgb(220, 202, 161); fill-opacity: 0.5; stroke: rgb(220, 202, 161); stroke-opacity: 1;"/></g></g></g><rect class="legendtoggle" x="0" y="-9.950000000000001" width="160.84765625" height="19.900000000000002" style="fill: rgb(0, 0, 0); fill-opacity: 0;"/></g><g class="traces" transform="translate(0,144.75)" style="opacity: 1;"><text class="legendtext" text-anchor="start" x="40" y="5.07" style="font-family: Inter, Roboto, Arial, sans-serif; font-size: 13px; fill: rgb(34, 34, 34); fill-opacity: 1; white-space: pre;">Low</text><g class="layers" style="opacity: 1;"><g class="legendfill"/><g class="legendlines"/><g class="legendsymbols"><g class="legendpoints"><path class="legendbox" d="M6,6H-6V-6H6Z" transform="translate(20,0)" style="stroke-width: 2px; fill: rgb(193, 159, 87); fill-opacity: 0.5; stroke: rgb(193, 159, 87); stroke-opacity: 1;"/></g></g></g><rect class="legendtoggle" x="0" y="-9.950000000000001" width="160.84765625" height="19.900000000000002" style="fill: rgb(0, 0, 0); fill-opacity: 0;"/></g><g class="traces" transform="translate(0,164.65)" style="opacity: 1;"><text class="legendtext" text-anchor="start" x="40" y="5.07" style="font-family: Inter, Roboto, Arial, sans-serif; font-size: 13px; fill: rgb(34, 34, 34); fill-opacity: 1; white-space: pre;">High</text><g class="layers" style="opacity: 1;"><g class="legendfill"/><g class="legendlines"/><g class="legendsymbols"><g class="legendpoints"><path class="legendbox" d="M6,6H-6V-6H6Z" transform="translate(20,0)" style="stroke-width: 2px; fill: rgb(130, 104, 48); fill-opacity: 0.5; stroke: rgb(130, 104, 48); stroke-opacity: 1;"/></g></g></g><rect class="legendtoggle" x="0" y="-9.950000000000001" width="160.84765625" height="19.900000000000002" style="fill: rgb(0, 0, 0); fill-opacity: 0;"/></g></g><g class="groups" transform="translate(0,40)"><g class="traces" transform="translate(0,187.15000000000003)" style="opacity: 1;"><text class="legendtext" text-anchor="start" x="5" y="6.63" style="font-family: Inter, Roboto, Arial, sans-serif; font-size: 17px; fill: rgb(221, 114, 84); fill-opacity: 1; white-space: pre;"><tspan style="font-weight:bold">Opus 4.5</tspan></text><g class="layers"><g class="legendfill"/><g class="legendlines"/><g class="legendsymbols"><g class="legendpoints"/></g></g><rect class="legendtoggle" x="0" y="-12.55" width="160.84765625" height="25.1" style="fill: rgb(0, 0, 0); fill-opacity: 0;"/></g><g class="traces" transform="translate(0,209.65)" style="opacity: 1;"><text class="legendtext" text-anchor="start" x="40" y="5.07" style="font-family: Inter, Roboto, Arial, sans-serif; font-size: 13px; fill: rgb(34, 34, 34); fill-opacity: 1; white-space: pre;">No Thinking</text><g class="layers" style="opacity: 1;"><g class="legendfill"/><g class="legendlines"/><g class="legendsymbols"><g class="legendpoints"><path class="legendbox" d="M6,6H-6V-6H6Z" transform="translate(20,0)" style="stroke-width: 2px; fill: rgb(233, 167, 148); fill-opacity: 0.5; stroke: rgb(233, 167, 148); stroke-opacity: 1;"/></g></g></g><rect class="legendtoggle" x="0" y="-9.950000000000001" width="160.84765625" height="19.900000000000002" style="fill: rgb(0, 0, 0); fill-opacity: 0;"/></g><g class="traces" transform="translate(0,229.55)" style="opacity: 1;"><text class="legendtext" text-anchor="start" x="40" y="5.07" style="font-family: Inter, Roboto, Arial, sans-serif; font-size: 13px; fill: rgb(34, 34, 34); fill-opacity: 1; white-space: pre;">Low</text><g class="layers" style="opacity: 1;"><g class="legendfill"/><g class="legendlines"/><g class="legendsymbols"><g class="legendpoints"><path class="legendbox" d="M6,6H-6V-6H6Z" transform="translate(20,0)" style="stroke-width: 2px; fill: rgb(217, 96, 63); fill-opacity: 0.5; stroke: rgb(217, 96, 63); stroke-opacity: 1;"/></g></g></g><rect class="legendtoggle" x="0" y="-9.950000000000001" width="160.84765625" height="19.900000000000002" style="fill: rgb(0, 0, 0); fill-opacity: 0;"/></g><g class="traces" transform="translate(0,249.45000000000002)" style="opacity: 1;"><text class="legendtext" text-anchor="start" x="40" y="5.07" style="font-family: Inter, Roboto, Arial, sans-serif; font-size: 13px; fill: rgb(34, 34, 34); fill-opacity: 1; white-space: pre;">High</text><g class="layers" style="opacity: 1;"><g class="legendfill"/><g class="legendlines"/><g class="legendsymbols"><g class="legendpoints"><path class="legendbox" d="M6,6H-6V-6H6Z" transform="translate(20,0)" style="stroke-width: 2px; fill: rgb(149, 55, 29); fill-opacity: 0.5; stroke: rgb(149, 55, 29); stroke-opacity: 1;"/></g></g></g><rect class="legendtoggle" x="0" y="-9.950000000000001" width="160.84765625" height="19.900000000000002" style="fill: rgb(0, 0, 0); fill-opacity: 0;"/></g></g></g><rect class="scrollbar" rx="20" ry="3" width="0" height="0" style="fill: rgb(128, 139, 164); fill-opacity: 1;" x="0" y="0"/></g><g class="g-gtitle"><text class="gtitle" x="400" y="10" text-anchor="middle" dy="0.7em" style="opacity: 1; font-family: Inter, Roboto, Arial, sans-serif; font-size: 28px; fill: rgb(17, 17, 17); fill-opacity: 1; white-space: pre;">LOC Delta</text></g><g class="g-xtitle"/><g class="g-ytitle" transform="translate(0.6748046875,0)"><text class="ytitle" transform="rotate(-90,16.325000000000003,250)" x="16.325000000000003" y="250" text-anchor="middle" style="opacity: 1; font-family: Inter, Roboto, Arial, sans-serif; font-size: 18px; fill: rgb(34, 34, 34); fill-opacity: 1; white-space: pre;">% Change</text></g></g></svg>