<svg class="main-svg" xmlns="http://www.w3.org/2000/svg" xmlns:xlink="http://www.w3.org/1999/xlink" width="800" height="500" style="" viewBox="0 0 800 500"><rect x="0" y="0" width="800" height="500" style="fill: rgb(255, 255, 255); fill-opacity: 1;"/><defs id="defs-94290d"><g class="clips"><clipPath id="clip94290dxyplot" class="plotclip"><rect width="549" height="480"/></clipPath><clipPath class="axesclip" id="clip94290dx"><rect x="64" y="0" width="549" height="500"/></clipPath><clipPath class="axesclip" id="clip94290dy"><rect x="0" y="10" width="800" height="480"/></clipPath><clipPath class="axesclip" id="clip94290dxy"><rect x="64" y="10" width="549" height="480"/></clipPath></g><g class="gradients"/><g class="patterns"/></defs><g class="bglayer"/><g class="layer-below"><g class="imagelayer"/><g class="shapelayer"/></g><g class="cartesianlayer"><g class="subplot xy"><g class="layer-subplot"><g class="shapelayer"/><g class="imagelayer"/></g><g class="minor-gridlayer"><g class="x"/><g class="y"/></g><g class="gridlayer"><g class="x"><path class="xgrid crisp" transform="translate(113.91,0)" d="M0,10v480" style="stroke: rgb(211, 211, 211); stroke-opacity: 1; stroke-width: 1px;"/><path class="xgrid crisp" transform="translate(170.06,0)" d="M0,10v480" style="stroke: rgb(211, 211, 211); stroke-opacity: 1; stroke-width: 1px;"/><path class="xgrid crisp" transform="translate(226.2,0)" d="M0,10v480" style="stroke: rgb(211, 211, 211); stroke-opacity: 1; stroke-width: 1px;"/><path class="xgrid crisp" transform="translate(282.35,0)" d="M0,10v480" style="stroke: rgb(211, 211, 211); stroke-opacity: 1; stroke-width: 1px;"/><path class="xgrid crisp" transform="translate(338.5,0)" d="M0,10v480" style="stroke: rgb(211, 211, 211); stroke-opacity: 1; stroke-width: 1px;"/><path class="xgrid crisp" transform="translate(394.65,0)" d="M0,10v480" style="stroke: rgb(211, 211, 211); stroke-opacity: 1; stroke-width: 1px;"/><path class="xgrid crisp" transform="translate(450.8,0)" d="M0,10v480" style="stroke: rgb(211, 211, 211); stroke-opacity: 1; stroke-width: 1px;"/><path class="xgrid crisp" transform="translate(506.94,0)" d="M0,10v480" style="stroke: rgb(211, 211, 211); stroke-opacity: 1; stroke-width: 1px;"/><path class="xgrid crisp" transform="translate(563.0899999999999,0)" d="M0,10v480" style="stroke: rgb(211, 211, 211); stroke-opacity: 1; stroke-width: 1px;"/></g><g class="y"><path class="ygrid crisp" transform="translate(0,312.23)" d="M64,0h549" style="stroke: rgb(211, 211, 211); stroke-opacity: 1; stroke-width: 1px;"/><path class="ygrid crisp" transform="translate(0,218.68)" d="M64,0h549" style="stroke: rgb(211, 211, 211); stroke-opacity: 1; stroke-width: 1px;"/><path class="ygrid crisp" transform="translate(0,125.14)" d="M64,0h549" style="stroke: rgb(211, 211, 211); stroke-opacity: 1; stroke-width: 1px;"/><path class="ygrid crisp" transform="translate(0,31.6)" d="M64,0h549" style="stroke: rgb(211, 211, 211); stroke-opacity: 1; stroke-width: 1px;"/></g></g><g class="zerolinelayer"><path class="yzl zl crisp" transform="translate(0,405.77)" d="M64,0h549" style="stroke: rgb(255, 255, 255); stroke-opacity: 1; stroke-width: 2px;"/></g><g class="layer-between"><g class="shapelayer"/><g class="imagelayer"/></g><path class="xlines-below"/><path class="ylines-below"/><g class="overlines-below"/><g class="xaxislayer-below"/><g class="yaxislayer-below"/><g class="overaxes-below"/><g class="overplot"><g class="xy" transform="translate(64,10)" clip-path="url(#clip94290dxyplot)"><g class="violinlayer mlayer"><g class="trace violins" style="opacity: 1;"><path class="violin" d="M51.7,416.47Q52.66,414.16 53.31,413.04C53.99,411.87 54.82,410.72 55.73,409.61C56.69,408.43 57.81,407.3 58.94,406.18C60.11,405.02 61.41,403.9 62.64,402.76C63.87,401.62 65.17,400.5 66.32,399.33C67.42,398.21 68.52,397.09 69.4,395.9C70.21,394.79 70.95,393.65 71.45,392.47C71.92,391.36 72.23,390.19 72.37,389.04C72.51,387.91 72.44,386.75 72.31,385.61C72.18,384.46 71.9,383.31 71.59,382.18C71.28,381.03 70.88,379.89 70.46,378.76C70.04,377.61 69.56,376.47 69.06,375.33C68.56,374.18 68.02,373.04 67.47,371.9C66.92,370.75 66.33,369.61 65.75,368.47C65.17,367.33 64.57,366.19 64,365.04C63.43,363.9 62.85,362.76 62.31,361.61C61.77,360.47 61.26,359.33 60.77,358.19C60.28,357.05 59.82,355.91 59.36,354.76C58.9,353.62 58.46,352.47 58.02,351.33C57.58,350.19 57.13,349.04 56.7,347.9C56.27,346.76 55.83,345.62 55.42,344.47C55.01,343.33 54.61,342.19 54.25,341.04C53.9,339.9 53.56,338.76 53.29,337.61C53.02,336.47 52.79,335.33 52.61,334.19C52.43,333.05 52.3,331.9 52.19,330.76C52.08,329.62 52.02,328.47 51.95,327.33C51.88,326.19 51.83,325.04 51.78,323.9C51.73,322.76 51.69,321.61 51.65,320.47C51.61,319.33 51.57,318.18 51.55,317.04C51.53,315.9 51.51,314.75 51.51,313.61C51.51,312.47 51.52,311.33 51.53,310.19C51.54,309.05 51.57,307.9 51.57,306.76C51.57,305.62 51.58,304.47 51.56,303.33C51.54,302.19 51.5,301.04 51.45,299.9C51.39,298.76 51.31,297.61 51.23,296.47C51.14,295.33 51.04,294.18 50.94,293.04C50.84,291.9 50.73,290.76 50.64,289.62C50.55,288.48 50.45,287.33 50.38,286.19C50.31,285.05 50.25,283.9 50.21,282.76C50.17,281.62 50.14,280.47 50.14,279.33C50.14,278.19 50.15,277.04 50.18,275.9C50.21,274.76 50.26,273.61 50.32,272.47C50.38,271.33 50.46,270.18 50.55,269.04C50.64,267.9 50.74,266.76 50.84,265.62C50.94,264.48 51.05,263.33 51.13,262.19C51.21,261.05 51.29,259.9 51.34,258.76C51.39,257.62 51.42,256.47 51.42,255.33C51.42,254.19 51.38,253.04 51.33,251.9C51.28,250.76 51.19,249.61 51.11,248.47C51.02,247.33 50.92,246.18 50.82,245.04C50.72,243.9 50.62,242.76 50.53,241.62C50.44,240.48 50.35,239.33 50.28,238.19Q50.21,237.05 50.11,234.76L49.71,234.76Q49.6,237.05 49.53,238.19C49.46,239.33 49.38,240.48 49.29,241.62C49.2,242.76 49.1,243.9 49,245.04C48.9,246.18 48.8,247.33 48.71,248.47C48.63,249.61 48.54,250.76 48.49,251.9C48.44,253.04 48.4,254.19 48.4,255.33C48.4,256.47 48.43,257.62 48.48,258.76C48.53,259.9 48.61,261.05 48.69,262.19C48.77,263.33 48.88,264.48 48.98,265.62C49.07,266.76 49.17,267.9 49.26,269.04C49.35,270.18 49.44,271.33 49.5,272.47C49.56,273.61 49.61,274.76 49.64,275.9C49.67,277.04 49.67,278.19 49.67,279.33C49.67,280.47 49.65,281.62 49.61,282.76C49.57,283.9 49.51,285.05 49.44,286.19C49.37,287.33 49.27,288.48 49.18,289.62C49.09,290.76 48.98,291.9 48.88,293.04C48.78,294.18 48.68,295.33 48.59,296.47C48.51,297.61 48.43,298.76 48.37,299.9C48.32,301.04 48.28,302.19 48.26,303.33C48.24,304.47 48.25,305.62 48.25,306.76C48.25,307.9 48.28,309.05 48.29,310.19C48.3,311.33 48.31,312.47 48.31,313.61C48.31,314.75 48.29,315.9 48.27,317.04C48.25,318.18 48.21,319.33 48.17,320.47C48.13,321.61 48.09,322.76 48.04,323.9C47.99,325.04 47.94,326.19 47.87,327.33C47.8,328.47 47.74,329.62 47.63,330.76C47.52,331.9 47.38,333.05 47.2,334.19C47.02,335.33 46.8,336.47 46.53,337.61C46.26,338.76 45.92,339.9 45.57,341.04C45.21,342.19 44.81,343.33 44.4,344.47C43.99,345.62 43.55,346.76 43.12,347.9C42.69,349.04 42.24,350.19 41.8,351.33C41.36,352.47 40.92,353.62 40.46,354.76C40,355.91 39.54,357.05 39.05,358.19C38.56,359.33 38.05,360.47 37.51,361.61C36.97,362.76 36.39,363.9 35.82,365.04C35.25,366.19 34.65,367.33 34.07,368.47C33.49,369.61 32.9,370.75 32.35,371.9C31.8,373.04 31.26,374.18 30.76,375.33C30.26,376.47 29.78,377.61 29.36,378.76C28.94,379.89 28.54,381.03 28.23,382.18C27.92,383.31 27.63,384.46 27.5,385.61C27.37,386.75 27.31,387.91 27.45,389.04C27.59,390.19 27.9,391.36 28.37,392.47C28.87,393.65 29.61,394.79 30.42,395.9C31.3,397.09 32.4,398.21 33.5,399.33C34.65,400.5 35.95,401.62 37.18,402.76C38.41,403.9 39.71,405.02 40.88,406.18C42.01,407.3 43.13,408.43 44.09,409.61C45,410.72 45.83,411.87 46.51,413.04Q47.16,414.16 48.12,416.47Z" style="vector-effect: none; stroke-width: 2px; stroke: rgb(160, 222, 205); stroke-opacity: 1; fill: rgb(160, 222, 205); fill-opacity: 0.5;"/><path class="box" d="M44.29,378.62H55.52M44.29,393.71H55.52V363.81H44.29ZM49.91,393.71V395.77M49.91,363.81V325.61" style="vector-effect: non-scaling-stroke; stroke-width: 2px; stroke: rgb(160, 222, 205); stroke-opacity: 1; fill: rgb(160, 222, 205); fill-opacity: 0.5;"/><path class="mean" d="M44.29,370.86H55.52" style="fill: none; vector-effect: non-scaling-stroke; stroke-width: 2px; stroke-dasharray: 4px, 2px; stroke: rgb(160, 222, 205); stroke-opacity: 1;"/><g class="points"><path class="point" transform="translate(41.51,302.23)" d="M3,0A3,3 0 1,1 0,-3A3,3 0 0,1 3,0Z" style="opacity: 1; stroke-width: 0px; fill: rgb(160, 222, 205); fill-opacity: 1;"/><path class="point" transform="translate(40.21,302.23)" d="M3,0A3,3 0 1,1 0,-3A3,3 0 0,1 3,0Z" style="opacity: 1; stroke-width: 0px; fill: rgb(160, 222, 205); fill-opacity: 1;"/><path class="point" transform="translate(41.8,255.46)" d="M3,0A3,3 0 1,1 0,-3A3,3 0 0,1 3,0Z" style="opacity: 1; stroke-width: 0px; fill: rgb(160, 222, 205); fill-opacity: 1;"/><path class="point" transform="translate(39.98,255.46)" d="M3,0A3,3 0 1,1 0,-3A3,3 0 0,1 3,0Z" style="opacity: 1; stroke-width: 0px; fill: rgb(160, 222, 205); fill-opacity: 1;"/></g></g><g class="trace violins" style="opacity: 1;"><path class="violin" d="M107.59,411.7Q108.39,409.94 108.92,409.09C109.48,408.19 110.15,407.32 110.88,406.47C111.65,405.57 112.55,404.72 113.44,403.86C114.36,402.98 115.37,402.12 116.33,401.25C117.28,400.38 118.28,399.53 119.16,398.64C120,397.79 120.83,396.92 121.52,396.02C122.17,395.17 122.74,394.3 123.2,393.41C123.64,392.56 123.96,391.68 124.25,390.8C124.54,389.94 124.72,389.06 124.95,388.19C125.18,387.32 125.38,386.44 125.63,385.57C125.88,384.7 126.17,383.83 126.46,382.96C126.76,382.09 127.11,381.22 127.4,380.35C127.69,379.48 128,378.62 128.19,377.74C128.37,376.88 128.53,375.99 128.52,375.12C128.51,374.25 128.38,373.36 128.12,372.51C127.85,371.62 127.39,370.75 126.89,369.9C126.36,369 125.66,368.15 124.97,367.29C124.26,366.4 123.43,365.55 122.67,364.68C121.91,363.81 121.11,362.95 120.41,362.06C119.74,361.2 119.08,360.34 118.54,359.45C118.02,358.6 117.59,357.72 117.22,356.84C116.87,355.98 116.63,355.1 116.37,354.23C116.12,353.36 115.94,352.48 115.69,351.61C115.44,350.74 115.19,349.86 114.86,349C114.53,348.12 114.13,347.25 113.7,346.39C113.25,345.51 112.72,344.65 112.21,343.78C111.69,342.9 111.11,342.04 110.59,341.16C110.08,340.29 109.55,339.43 109.1,338.55C108.66,337.69 108.24,336.82 107.9,335.94C107.57,335.08 107.29,334.21 107.07,333.33C106.85,332.46 106.69,331.59 106.56,330.71C106.43,329.84 106.35,328.97 106.28,328.1C106.21,327.23 106.19,326.36 106.16,325.49C106.13,324.62 106.13,323.75 106.12,322.88C106.11,322.01 106.12,321.13 106.13,320.26C106.14,319.39 106.16,318.52 106.19,317.65C106.22,316.78 106.25,315.91 106.29,315.04C106.33,314.17 106.38,313.3 106.43,312.43C106.48,311.56 106.54,310.68 106.59,309.81C106.64,308.94 106.7,308.07 106.75,307.2C106.79,306.33 106.83,305.46 106.86,304.59C106.88,303.72 106.9,302.85 106.9,301.98C106.9,301.11 106.88,300.23 106.85,299.36C106.82,298.49 106.77,297.62 106.72,296.75C106.67,295.88 106.61,295.01 106.56,294.14C106.51,293.27 106.45,292.4 106.4,291.53C106.35,290.66 106.31,289.78 106.27,288.91Q106.23,288.04 106.17,286.3L105.94,286.3Q105.89,288.04 105.85,288.91C105.81,289.78 105.76,290.66 105.71,291.53C105.66,292.4 105.6,293.27 105.55,294.14C105.5,295.01 105.44,295.88 105.39,296.75C105.34,297.62 105.3,298.49 105.27,299.36C105.24,300.23 105.21,301.11 105.21,301.98C105.21,302.85 105.23,303.72 105.25,304.59C105.28,305.46 105.32,306.33 105.36,307.2C105.41,308.07 105.47,308.94 105.52,309.81C105.57,310.68 105.63,311.56 105.68,312.43C105.73,313.3 105.78,314.17 105.82,315.04C105.86,315.91 105.89,316.78 105.92,317.65C105.95,318.52 105.97,319.39 105.98,320.26C105.99,321.13 106,322.01 106,322.88C106,323.75 105.99,324.62 105.96,325.49C105.93,326.36 105.9,327.23 105.83,328.1C105.76,328.97 105.69,329.84 105.56,330.71C105.43,331.59 105.27,332.46 105.05,333.33C104.82,334.21 104.54,335.08 104.21,335.94C103.87,336.82 103.45,337.69 103.01,338.55C102.56,339.43 102.03,340.29 101.52,341.16C101,342.04 100.42,342.9 99.9,343.78C99.39,344.65 98.87,345.51 98.42,346.39C97.98,347.25 97.59,348.12 97.25,349C96.92,349.86 96.67,350.74 96.42,351.61C96.17,352.48 95.99,353.36 95.74,354.23C95.48,355.1 95.24,355.98 94.89,356.84C94.53,357.72 94.09,358.6 93.58,359.45C93.04,360.34 92.38,361.2 91.71,362.06C91.01,362.95 90.2,363.81 89.44,364.68C88.68,365.55 87.85,366.4 87.14,367.29C86.45,368.15 85.75,369 85.22,369.9C84.72,370.75 84.27,371.62 84,372.51C83.74,373.36 83.61,374.25 83.6,375.12C83.59,375.99 83.74,376.88 83.92,377.74C84.11,378.62 84.43,379.48 84.72,380.35C85.01,381.22 85.36,382.09 85.65,382.96C85.94,383.83 86.23,384.7 86.48,385.57C86.73,386.44 86.93,387.32 87.16,388.19C87.39,389.06 87.58,389.94 87.87,390.8C88.17,391.68 88.48,392.56 88.92,393.41C89.38,394.3 89.95,395.17 90.6,396.02C91.29,396.92 92.12,397.79 92.96,398.64C93.84,399.53 94.84,400.38 95.79,401.25C96.75,402.12 97.76,402.98 98.68,403.86C99.57,404.72 100.46,405.57 101.23,406.47C101.96,407.32 102.64,408.19 103.2,409.09Q103.73,409.94 104.53,411.7Z" style="vector-effect: none; stroke-width: 2px; stroke: rgb(84, 196, 166); stroke-opacity: 1; fill: rgb(84, 196, 166); fill-opacity: 0.5;"/><path class="box" d="M100.44,374.98H111.67M100.44,390.01H111.67V366.93H100.44ZM106.06,390.01V395.77M106.06,366.93V349" style="vector-effect: non-scaling-stroke; stroke-width: 2px; stroke: rgb(84, 196, 166); stroke-opacity: 1; fill: rgb(84, 196, 166); fill-opacity: 0.5;"/><path class="mean" d="M100.44,374.61H111.67" style="fill: none; vector-effect: non-scaling-stroke; stroke-width: 2px; stroke-dasharray: 4px, 2px; stroke: rgb(84, 196, 166); stroke-opacity: 1;"/><g class="points"><path class="point" transform="translate(97.07,302.23)" d="M3,0A3,3 0 1,1 0,-3A3,3 0 0,1 3,0Z" style="opacity: 1; stroke-width: 0px; fill: rgb(84, 196, 166); fill-opacity: 1;"/></g></g><g class="trace violins" style="opacity: 1;"><path class="violin" d="M162.3,456Q162.35,453.47 162.39,452.21C162.42,450.95 162.47,449.69 162.51,448.43C162.55,447.17 162.6,445.9 162.65,444.64C162.7,443.38 162.76,442.12 162.8,440.86C162.84,439.6 162.88,438.33 162.91,437.07C162.94,435.81 162.96,434.55 162.98,433.29C163,432.03 163.01,430.76 163.03,429.5C163.05,428.24 163.06,426.97 163.12,425.71C163.18,424.45 163.25,423.19 163.41,421.93C163.57,420.66 163.77,419.39 164.09,418.14C164.42,416.87 164.83,415.6 165.36,414.36C165.91,413.07 166.6,411.81 167.36,410.57C168.16,409.28 169.1,408.03 170.07,406.79C171.07,405.51 172.19,404.26 173.27,403C174.35,401.74 175.51,400.49 176.56,399.22C177.59,397.97 178.63,396.72 179.53,395.43C180.39,394.19 181.2,392.93 181.86,391.64C182.5,390.4 183.04,389.14 183.46,387.86C183.87,386.61 184.16,385.34 184.36,384.07C184.56,382.82 184.65,381.55 184.66,380.29C184.67,379.03 184.58,377.76 184.41,376.5C184.24,375.23 183.97,373.97 183.65,372.72C183.32,371.45 182.89,370.19 182.44,368.93C181.99,367.66 181.47,366.4 180.96,365.14C180.45,363.88 179.91,362.62 179.39,361.36C178.87,360.1 178.36,358.83 177.85,357.57C177.34,356.31 176.86,355.05 176.35,353.79C175.84,352.53 175.33,351.26 174.79,350C174.24,348.73 173.67,347.48 173.08,346.22C172.48,344.95 171.85,343.69 171.23,342.43C170.61,341.17 169.97,339.91 169.37,338.64C168.77,337.38 168.18,336.13 167.64,334.86C167.11,333.61 166.61,332.34 166.17,331.07C165.74,329.82 165.35,328.56 165.01,327.29C164.67,326.03 164.39,324.77 164.14,323.5C163.89,322.24 163.68,320.98 163.5,319.72C163.32,318.46 163.17,317.19 163.04,315.93C162.91,314.67 162.81,313.41 162.72,312.15C162.63,310.89 162.56,309.62 162.5,308.36C162.44,307.1 162.4,305.83 162.36,304.57C162.32,303.31 162.3,302.05 162.28,300.79C162.26,299.53 162.25,298.26 162.24,297C162.23,295.74 162.22,294.48 162.22,293.22C162.22,291.96 162.22,290.69 162.22,289.43C162.22,288.17 162.22,286.91 162.23,285.65C162.24,284.39 162.25,283.12 162.26,281.86C162.27,280.6 162.29,279.33 162.31,278.07C162.33,276.81 162.36,275.55 162.39,274.29C162.42,273.03 162.46,271.76 162.51,270.5C162.55,269.24 162.61,267.98 162.66,266.72C162.71,265.46 162.76,264.19 162.8,262.93C162.84,261.67 162.88,260.41 162.9,259.15C162.92,257.89 162.94,256.62 162.94,255.36C162.94,254.1 162.93,252.83 162.9,251.57C162.88,250.31 162.83,249.05 162.79,247.79C162.75,246.53 162.7,245.26 162.65,244C162.6,242.74 162.55,241.48 162.51,240.22C162.47,238.96 162.43,237.69 162.39,236.43Q162.36,235.17 162.3,232.65L162.1,232.65Q162.05,235.17 162.02,236.43C161.99,237.69 161.94,238.96 161.9,240.22C161.86,241.48 161.81,242.74 161.76,244C161.71,245.26 161.66,246.53 161.62,247.79C161.58,249.05 161.53,250.31 161.51,251.57C161.48,252.83 161.47,254.1 161.47,255.36C161.47,256.62 161.49,257.89 161.51,259.15C161.53,260.41 161.57,261.67 161.61,262.93C161.65,264.19 161.7,265.46 161.75,266.72C161.8,267.98 161.86,269.24 161.9,270.5C161.95,271.76 161.99,273.03 162.02,274.29C162.05,275.55 162.08,276.81 162.1,278.07C162.12,279.33 162.14,280.6 162.15,281.86C162.16,283.12 162.17,284.39 162.18,285.65C162.19,286.91 162.19,288.17 162.19,289.43C162.19,290.69 162.19,291.96 162.19,293.22C162.19,294.48 162.18,295.74 162.17,297C162.16,298.26 162.15,299.53 162.13,300.79C162.11,302.05 162.09,303.31 162.05,304.57C162.01,305.83 161.97,307.1 161.91,308.36C161.85,309.62 161.78,310.89 161.69,312.15C161.6,313.41 161.5,314.67 161.37,315.93C161.24,317.19 161.09,318.46 160.91,319.72C160.73,320.98 160.52,322.24 160.27,323.5C160.02,324.77 159.74,326.03 159.4,327.29C159.06,328.56 158.67,329.82 158.24,331.07C157.8,332.34 157.3,333.61 156.77,334.86C156.23,336.13 155.64,337.38 155.04,338.64C154.44,339.91 153.79,341.17 153.17,342.43C152.55,343.69 151.92,344.95 151.33,346.22C150.74,347.48 150.17,348.73 149.62,350C149.08,351.26 148.57,352.53 148.06,353.79C147.55,355.05 147.07,356.31 146.56,357.57C146.05,358.83 145.54,360.1 145.02,361.36C144.5,362.62 143.96,363.88 143.45,365.14C142.94,366.4 142.42,367.66 141.97,368.93C141.52,370.19 141.09,371.45 140.76,372.72C140.44,373.97 140.17,375.23 140,376.5C139.83,377.76 139.74,379.03 139.75,380.29C139.76,381.55 139.84,382.82 140.04,384.07C140.24,385.34 140.54,386.61 140.95,387.86C141.37,389.14 141.9,390.4 142.54,391.64C143.2,392.93 144.02,394.19 144.88,395.43C145.78,396.72 146.82,397.97 147.85,399.22C148.9,400.49 150.06,401.74 151.14,403C152.22,404.26 153.34,405.51 154.34,406.79C155.31,408.03 156.25,409.28 157.05,410.57C157.81,411.81 158.5,413.07 159.05,414.36C159.58,415.6 159.99,416.87 160.32,418.14C160.64,419.39 160.84,420.66 161,421.93C161.16,423.19 161.22,424.45 161.28,425.71C161.34,426.97 161.36,428.24 161.38,429.5C161.4,430.76 161.4,432.03 161.42,433.29C161.44,434.55 161.47,435.81 161.5,437.07C161.53,438.33 161.57,439.6 161.61,440.86C161.65,442.12 161.71,443.38 161.76,444.64C161.81,445.9 161.86,447.17 161.9,448.43C161.94,449.69 161.99,450.95 162.02,452.21Q162.05,453.47 162.1,456Z" style="vector-effect: none; stroke-width: 2px; stroke: rgb(45, 132, 109); stroke-opacity: 1; fill: rgb(45, 132, 109); fill-opacity: 0.5;"/><path class="box" d="M156.59,372.39H167.82M156.59,391.52H167.82V358.35H156.59ZM162.2,391.52V433.19M162.2,358.35V325.61" style="vector-effect: non-scaling-stroke; stroke-width: 2px; stroke: rgb(45, 132, 109); stroke-opacity: 1; fill: rgb(45, 132, 109); fill-opacity: 0.5;"/><path class="mean" d="M156.59,372.48H167.82" style="fill: none; vector-effect: non-scaling-stroke; stroke-width: 2px; stroke-dasharray: 4px, 2px; stroke: rgb(45, 132, 109); stroke-opacity: 1;"/><g class="points"><path class="point" transform="translate(153.22,255.46)" d="M3,0A3,3 0 1,1 0,-3A3,3 0 0,1 3,0Z" style="opacity: 1; stroke-width: 0px; fill: rgb(45, 132, 109); fill-opacity: 1;"/></g></g><g class="trace violins" style="opacity: 1;"><path class="violin" d="M219.78,414.73Q220.55,412.62 221.09,411.6C221.65,410.53 222.34,409.49 223.1,408.48C223.91,407.41 224.86,406.38 225.84,405.36C226.87,404.29 228.02,403.26 229.14,402.23C230.28,401.18 231.51,400.16 232.64,399.11C233.75,398.08 234.88,397.06 235.87,395.99C236.81,394.97 237.71,393.94 238.43,392.86C239.1,391.85 239.68,390.81 240.08,389.74C240.46,388.72 240.7,387.66 240.81,386.61C240.92,385.58 240.87,384.52 240.75,383.49C240.63,382.44 240.38,381.4 240.1,380.37C239.82,379.32 239.44,378.28 239.05,377.24C238.65,376.19 238.19,375.16 237.73,374.12C237.26,373.08 236.77,372.04 236.27,371C235.77,369.95 235.25,368.91 234.72,367.87C234.19,366.83 233.66,365.79 233.11,364.75C232.56,363.71 232,362.66 231.43,361.62C230.86,360.58 230.28,359.54 229.7,358.5C229.12,357.46 228.53,356.42 227.96,355.38C227.39,354.34 226.81,353.3 226.27,352.25C225.73,351.21 225.21,350.18 224.72,349.13C224.24,348.09 223.78,347.05 223.37,346C222.96,344.97 222.58,343.93 222.25,342.88C221.92,341.85 221.64,340.81 221.39,339.76C221.14,338.72 220.93,337.68 220.75,336.63C220.57,335.59 220.43,334.55 220.3,333.51C220.17,332.47 220.07,331.43 219.98,330.39C219.89,329.35 219.81,328.3 219.74,327.26C219.67,326.22 219.6,325.18 219.55,324.14C219.5,323.1 219.45,322.05 219.42,321.01C219.39,319.97 219.37,318.93 219.37,317.89C219.37,316.85 219.38,315.81 219.41,314.77C219.44,313.73 219.48,312.68 219.53,311.64C219.58,310.6 219.65,309.56 219.7,308.52C219.75,307.48 219.81,306.43 219.84,305.39C219.87,304.35 219.89,303.31 219.88,302.27C219.87,301.23 219.83,300.19 219.78,299.15C219.73,298.11 219.65,297.06 219.56,296.02C219.48,294.98 219.37,293.94 219.27,292.9C219.17,291.86 219.07,290.82 218.98,289.78C218.89,288.74 218.81,287.69 218.74,286.65C218.67,285.61 218.61,284.57 218.57,283.53C218.53,282.49 218.5,281.44 218.48,280.4C218.46,279.36 218.45,278.32 218.45,277.28C218.45,276.24 218.46,275.2 218.48,274.16C218.5,273.12 218.52,272.07 218.55,271.03C218.58,269.99 218.63,268.95 218.67,267.91C218.71,266.87 218.76,265.83 218.81,264.79C218.86,263.75 218.91,262.7 218.95,261.66C218.99,260.62 219.04,259.58 219.06,258.54C219.09,257.5 219.1,256.45 219.1,255.41C219.1,254.37 219.08,253.33 219.06,252.29C219.03,251.25 218.99,250.21 218.95,249.17C218.91,248.13 218.86,247.08 218.81,246.04C218.76,245 218.7,243.96 218.66,242.92C218.61,241.88 218.57,240.83 218.54,239.79C218.51,238.75 218.48,237.71 218.46,236.67C218.44,235.63 218.41,234.59 218.4,233.55C218.39,232.51 218.39,231.46 218.38,230.42C218.37,229.38 218.36,228.34 218.36,227.3C218.36,226.26 218.36,225.22 218.36,224.18C218.36,223.14 218.35,222.09 218.35,221.05C218.35,220.01 218.35,218.97 218.35,217.93C218.35,216.89 218.35,215.84 218.35,214.8C218.35,213.76 218.35,212.72 218.35,211.68C218.35,210.64 218.35,209.6 218.35,208.56C218.35,207.52 218.35,206.47 218.35,205.43C218.35,204.39 218.35,203.35 218.35,202.31C218.35,201.27 218.35,200.23 218.35,199.19C218.35,198.15 218.35,197.1 218.35,196.06C218.35,195.02 218.36,193.98 218.36,192.94C218.36,191.9 218.36,190.85 218.36,189.81C218.36,188.77 218.37,187.73 218.38,186.69C218.39,185.65 218.4,184.61 218.41,183.57C218.42,182.53 218.44,181.48 218.46,180.44C218.48,179.4 218.52,178.36 218.55,177.32C218.59,176.28 218.62,175.23 218.67,174.19C218.71,173.15 218.77,172.11 218.82,171.07C218.87,170.03 218.92,168.99 218.96,167.95C219,166.91 219.04,165.86 219.06,164.82C219.08,163.78 219.1,162.74 219.1,161.7C219.1,160.66 219.08,159.62 219.05,158.58C219.02,157.54 218.98,156.49 218.94,155.45C218.9,154.41 218.85,153.37 218.8,152.33C218.75,151.29 218.7,150.24 218.66,149.2C218.62,148.16 218.58,147.12 218.54,146.08Q218.51,145.04 218.45,142.96L218.25,142.96Q218.2,145.04 218.17,146.08C218.14,147.12 218.09,148.16 218.05,149.2C218.01,150.24 217.96,151.29 217.91,152.33C217.86,153.37 217.8,154.41 217.76,155.45C217.72,156.49 217.68,157.54 217.65,158.58C217.63,159.62 217.61,160.66 217.61,161.7C217.61,162.74 217.62,163.78 217.64,164.82C217.66,165.86 217.7,166.91 217.74,167.95C217.78,168.99 217.83,170.03 217.88,171.07C217.93,172.11 217.99,173.15 218.03,174.19C218.08,175.23 218.11,176.28 218.15,177.32C218.18,178.36 218.22,179.4 218.24,180.44C218.27,181.48 218.28,182.53 218.3,183.57C218.31,184.61 218.32,185.65 218.33,186.69C218.34,187.73 218.34,188.77 218.34,189.81C218.34,190.85 218.35,191.9 218.35,192.94C218.35,193.98 218.35,195.02 218.35,196.06C218.35,197.1 218.35,198.15 218.35,199.19C218.35,200.23 218.35,201.27 218.35,202.31C218.35,203.35 218.35,204.39 218.35,205.43C218.35,206.47 218.35,207.52 218.35,208.56C218.35,209.6 218.35,210.64 218.35,211.68C218.35,212.72 218.35,213.76 218.35,214.8C218.35,215.84 218.35,216.89 218.35,217.93C218.35,218.97 218.35,220.01 218.35,221.05C218.35,222.09 218.35,223.14 218.35,224.18C218.35,225.22 218.34,226.26 218.34,227.3C218.34,228.34 218.34,229.38 218.33,230.42C218.32,231.46 218.31,232.51 218.3,233.55C218.29,234.59 218.27,235.63 218.25,236.67C218.23,237.71 218.19,238.75 218.16,239.79C218.12,240.83 218.08,241.88 218.04,242.92C218,243.96 217.95,245 217.9,246.04C217.85,247.08 217.79,248.13 217.75,249.17C217.71,250.21 217.67,251.25 217.65,252.29C217.63,253.33 217.61,254.37 217.61,255.41C217.61,256.45 217.63,257.5 217.65,258.54C217.67,259.58 217.71,260.62 217.75,261.66C217.79,262.7 217.84,263.75 217.89,264.79C217.94,265.83 218,266.87 218.04,267.91C218.08,268.95 218.12,269.99 218.15,271.03C218.18,272.07 218.21,273.12 218.23,274.16C218.25,275.2 218.25,276.24 218.25,277.28C218.25,278.32 218.24,279.36 218.22,280.4C218.2,281.44 218.17,282.49 218.13,283.53C218.09,284.57 218.03,285.61 217.96,286.65C217.89,287.69 217.81,288.74 217.72,289.78C217.63,290.82 217.53,291.86 217.43,292.9C217.33,293.94 217.22,294.98 217.14,296.02C217.05,297.06 216.97,298.11 216.92,299.15C216.87,300.19 216.83,301.23 216.82,302.27C216.81,303.31 216.83,304.35 216.86,305.39C216.89,306.43 216.95,307.48 217,308.52C217.05,309.56 217.12,310.6 217.17,311.64C217.22,312.68 217.27,313.73 217.3,314.77C217.33,315.81 217.33,316.85 217.33,317.89C217.33,318.93 217.31,319.97 217.28,321.01C217.25,322.05 217.2,323.1 217.15,324.14C217.1,325.18 217.04,326.22 216.97,327.26C216.9,328.3 216.82,329.35 216.73,330.39C216.64,331.43 216.54,332.47 216.41,333.51C216.28,334.55 216.13,335.59 215.95,336.63C215.77,337.67 215.57,338.72 215.32,339.76C215.07,340.81 214.78,341.85 214.45,342.88C214.12,343.93 213.75,344.97 213.34,346C212.93,347.05 212.46,348.09 211.98,349.13C211.49,350.18 210.97,351.21 210.43,352.25C209.89,353.3 209.31,354.34 208.74,355.38C208.17,356.42 207.58,357.46 207,358.5C206.42,359.54 205.84,360.58 205.27,361.62C204.7,362.66 204.15,363.71 203.6,364.75C203.05,365.79 202.52,366.83 201.99,367.87C201.46,368.91 200.94,369.96 200.44,371C199.94,372.04 199.44,373.07 198.97,374.12C198.51,375.16 198.06,376.19 197.66,377.24C197.27,378.28 196.89,379.32 196.6,380.37C196.32,381.4 196.07,382.44 195.95,383.49C195.83,384.52 195.78,385.58 195.89,386.61C196,387.66 196.24,388.72 196.62,389.74C197.02,390.81 197.61,391.85 198.28,392.86C199,393.94 199.9,394.97 200.83,395.99C201.82,397.06 202.96,398.08 204.07,399.11C205.2,400.16 206.43,401.18 207.57,402.23C208.69,403.26 209.84,404.29 210.87,405.36C211.85,406.38 212.8,407.41 213.61,408.48C214.37,409.49 215.05,410.53 215.61,411.6Q216.15,412.62 216.92,414.73Z" style="vector-effect: none; stroke-width: 2px; stroke: rgb(220, 202, 161); stroke-opacity: 1; fill: rgb(220, 202, 161); fill-opacity: 0.5;"/><path class="box" d="M212.74,380.18H223.97M212.74,389.93H223.97V362.36H212.74ZM218.35,389.93V395.77M218.35,362.36V325.61" style="vector-effect: non-scaling-stroke; stroke-width: 2px; stroke: rgb(220, 202, 161); stroke-opacity: 1; fill: rgb(220, 202, 161); fill-opacity: 0.5;"/><path class="mean" d="M212.74,369.43H223.97" style="fill: none; vector-effect: non-scaling-stroke; stroke-width: 2px; stroke-dasharray: 4px, 2px; stroke: rgb(220, 202, 161); stroke-opacity: 1;"/><g class="points"><path class="point" transform="translate(209.95,302.23)" d="M3,0A3,3 0 1,1 0,-3A3,3 0 0,1 3,0Z" style="opacity: 1; stroke-width: 0px; fill: rgb(220, 202, 161); fill-opacity: 1;"/><path class="point" transform="translate(208.65,302.23)" d="M3,0A3,3 0 1,1 0,-3A3,3 0 0,1 3,0Z" style="opacity: 1; stroke-width: 0px; fill: rgb(220, 202, 161); fill-opacity: 1;"/><path class="point" transform="translate(210.24,255.46)" d="M3,0A3,3 0 1,1 0,-3A3,3 0 0,1 3,0Z" style="opacity: 1; stroke-width: 0px; fill: rgb(220, 202, 161); fill-opacity: 1;"/><path class="point" transform="translate(208.42,161.91)" d="M3,0A3,3 0 1,1 0,-3A3,3 0 0,1 3,0Z" style="opacity: 1; stroke-width: 0px; fill: rgb(220, 202, 161); fill-opacity: 1;"/></g></g><g class="trace violins" style="opacity: 1;"><path class="violin" d="M275.6,422.22Q276.2,419.29 276.65,417.85C277.11,416.38 277.66,414.92 278.33,413.49C279.02,412.01 279.85,410.56 280.75,409.13C281.68,407.65 282.76,406.2 283.85,404.76C284.97,403.29 286.21,401.85 287.39,400.4C288.57,398.95 289.83,397.52 290.95,396.04C292.04,394.6 293.13,393.16 294.01,391.67C294.84,390.25 295.63,388.8 296.12,387.31C296.59,385.89 296.9,384.41 296.96,382.95C297.02,381.5 296.82,380.02 296.5,378.58C296.17,377.11 295.59,375.66 294.99,374.22C294.38,372.75 293.59,371.31 292.85,369.86C292.11,368.4 291.28,366.95 290.55,365.49C289.82,364.04 289.11,362.59 288.47,361.13C287.84,359.69 287.28,358.23 286.76,356.77C286.25,355.32 285.8,353.87 285.37,352.41C284.94,350.96 284.56,349.5 284.16,348.04C283.76,346.59 283.38,345.13 282.98,343.68C282.58,342.23 282.17,340.77 281.78,339.32C281.38,337.86 280.99,336.41 280.61,334.95C280.23,333.5 279.85,332.05 279.5,330.59C279.15,329.14 278.82,327.69 278.51,326.23C278.2,324.78 277.92,323.32 277.66,321.86C277.4,320.41 277.18,318.95 276.97,317.5C276.76,316.05 276.58,314.6 276.42,313.14C276.26,311.69 276.14,310.23 276.03,308.77C275.92,307.32 275.84,305.86 275.77,304.41C275.7,302.96 275.64,301.5 275.6,300.05C275.56,298.59 275.53,297.14 275.51,295.68C275.49,294.23 275.47,292.77 275.46,291.32C275.45,289.87 275.44,288.41 275.44,286.96C275.44,285.5 275.44,284.05 275.44,282.59C275.44,281.14 275.43,279.68 275.43,278.23C275.43,276.78 275.43,275.32 275.43,273.87C275.43,272.41 275.43,270.96 275.42,269.5C275.42,268.05 275.41,266.59 275.4,265.14C275.39,263.69 275.38,262.23 275.37,260.78C275.35,259.33 275.33,257.87 275.31,256.42C275.28,254.96 275.26,253.51 275.22,252.05C275.19,250.6 275.14,249.14 275.1,247.69C275.06,246.24 275.01,244.78 274.97,243.33C274.93,241.87 274.89,240.42 274.86,238.96C274.83,237.51 274.8,236.05 274.79,234.6C274.78,233.15 274.77,231.69 274.78,230.24C274.79,228.78 274.81,227.33 274.84,225.87C274.86,224.42 274.9,222.96 274.93,221.51C274.96,220.06 275.01,218.6 275.04,217.15C275.07,215.69 275.11,214.24 275.13,212.78C275.15,211.33 275.16,209.87 275.16,208.42C275.16,206.97 275.14,205.51 275.12,204.06C275.1,202.6 275.06,201.15 275.02,199.69C274.98,198.24 274.93,196.78 274.89,195.33C274.85,193.88 274.81,192.42 274.77,190.97C274.73,189.51 274.69,188.06 274.66,186.6Q274.63,185.15 274.59,182.24L274.41,182.24Q274.37,185.15 274.34,186.6C274.31,188.06 274.27,189.51 274.23,190.97C274.19,192.42 274.15,193.88 274.11,195.33C274.07,196.78 274.02,198.24 273.98,199.69C273.94,201.15 273.9,202.6 273.88,204.06C273.86,205.51 273.84,206.97 273.84,208.42C273.84,209.87 273.85,211.33 273.87,212.78C273.89,214.24 273.93,215.69 273.96,217.15C273.99,218.6 274.04,220.06 274.07,221.51C274.1,222.96 274.14,224.42 274.16,225.87C274.19,227.33 274.21,228.78 274.22,230.24C274.23,231.69 274.22,233.15 274.21,234.6C274.2,236.05 274.17,237.51 274.14,238.96C274.11,240.42 274.07,241.87 274.03,243.33C273.99,244.78 273.94,246.24 273.9,247.69C273.86,249.14 273.81,250.6 273.78,252.05C273.74,253.51 273.72,254.96 273.69,256.42C273.67,257.87 273.65,259.33 273.63,260.78C273.62,262.23 273.61,263.69 273.6,265.14C273.59,266.59 273.58,268.05 273.58,269.5C273.57,270.96 273.57,272.41 273.57,273.87C273.57,275.32 273.57,276.78 273.57,278.23C273.57,279.68 273.56,281.14 273.56,282.59C273.56,284.05 273.56,285.5 273.56,286.96C273.56,288.41 273.55,289.87 273.54,291.32C273.53,292.77 273.51,294.23 273.49,295.68C273.47,297.14 273.44,298.59 273.4,300.05C273.36,301.5 273.3,302.96 273.23,304.41C273.16,305.86 273.08,307.32 272.97,308.77C272.86,310.23 272.74,311.69 272.58,313.14C272.42,314.6 272.24,316.05 272.03,317.5C271.82,318.95 271.6,320.41 271.34,321.86C271.08,323.32 270.8,324.78 270.49,326.23C270.18,327.69 269.85,329.14 269.5,330.59C269.15,332.05 268.77,333.5 268.39,334.95C268.01,336.41 267.62,337.86 267.22,339.32C266.83,340.77 266.42,342.23 266.02,343.68C265.62,345.13 265.24,346.59 264.84,348.04C264.44,349.5 264.06,350.96 263.63,352.41C263.2,353.87 262.75,355.32 262.24,356.77C261.72,358.23 261.16,359.69 260.53,361.13C259.89,362.59 259.18,364.04 258.45,365.49C257.72,366.95 256.89,368.4 256.15,369.86C255.41,371.31 254.62,372.75 254.01,374.22C253.41,375.66 252.83,377.11 252.5,378.58C252.18,380.02 251.98,381.5 252.04,382.95C252.1,384.41 252.41,385.89 252.88,387.31C253.37,388.8 254.16,390.25 254.99,391.67C255.87,393.16 256.96,394.6 258.05,396.04C259.17,397.52 260.43,398.95 261.61,400.4C262.79,401.85 264.03,403.29 265.15,404.76C266.24,406.2 267.32,407.65 268.25,409.13C269.15,410.56 269.98,412.01 270.67,413.49C271.34,414.92 271.89,416.38 272.35,417.85Q272.8,419.29 273.4,422.22Z" style="vector-effect: none; stroke-width: 2px; stroke: rgb(193, 159, 87); stroke-opacity: 1; fill: rgb(193, 159, 87); fill-opacity: 0.5;"/><path class="box" d="M268.89,377.65H280.11M268.89,387.2H280.11V349H268.89ZM274.5,387.2V395.77M274.5,349V302.23" style="vector-effect: non-scaling-stroke; stroke-width: 2px; stroke: rgb(193, 159, 87); stroke-opacity: 1; fill: rgb(193, 159, 87); fill-opacity: 0.5;"/><path class="mean" d="M268.89,365.7H280.11" style="fill: none; vector-effect: non-scaling-stroke; stroke-width: 2px; stroke-dasharray: 4px, 2px; stroke: rgb(193, 159, 87); stroke-opacity: 1;"/><g class="points"><path class="point" transform="translate(266.1,278.84)" d="M3,0A3,3 0 1,1 0,-3A3,3 0 0,1 3,0Z" style="opacity: 1; stroke-width: 0px; fill: rgb(193, 159, 87); fill-opacity: 1;"/><path class="point" transform="translate(264.8,255.46)" d="M3,0A3,3 0 1,1 0,-3A3,3 0 0,1 3,0Z" style="opacity: 1; stroke-width: 0px; fill: rgb(193, 159, 87); fill-opacity: 1;"/><path class="point" transform="translate(266.39,208.68)" d="M3,0A3,3 0 1,1 0,-3A3,3 0 0,1 3,0Z" style="opacity: 1; stroke-width: 0px; fill: rgb(193, 159, 87); fill-opacity: 1;"/></g></g><g class="trace violins" style="opacity: 1;"><path class="violin" d="M332.01,422.99Q332.76,419.95 333.3,418.46C333.86,416.93 334.54,415.4 335.33,413.92C336.15,412.38 337.14,410.87 338.18,409.39C339.26,407.85 340.49,406.36 341.7,404.86C342.93,403.34 344.28,401.84 345.51,400.32C346.72,398.82 347.99,397.34 349.04,395.79C350.05,394.31 351.03,392.8 351.72,391.25C352.37,389.78 352.89,388.25 353.11,386.72C353.32,385.23 353.28,383.69 353.05,382.19C352.82,380.66 352.28,379.14 351.7,377.65C351.1,376.11 350.28,374.62 349.49,373.12C348.69,371.6 347.76,370.1 346.92,368.58C346.08,367.07 345.21,365.57 344.45,364.05C343.7,362.55 342.99,361.05 342.37,359.52C341.76,358.02 341.24,356.5 340.77,354.98C340.3,353.48 339.91,351.97 339.54,350.45C339.17,348.94 338.87,347.42 338.56,345.91C338.25,344.4 337.97,342.89 337.68,341.38C337.39,339.87 337.12,338.36 336.84,336.85C336.56,335.34 336.29,333.82 336.02,332.31C335.75,330.8 335.49,329.29 335.23,327.78C334.97,326.27 334.72,324.75 334.48,323.24C334.24,321.73 334.02,320.22 333.81,318.71C333.6,317.2 333.41,315.69 333.23,314.18C333.05,312.67 332.88,311.15 332.73,309.64C332.58,308.13 332.44,306.62 332.31,305.11C332.18,303.6 332.06,302.08 331.94,300.57C331.83,299.06 331.72,297.55 331.62,296.04C331.52,294.53 331.43,293.02 331.35,291.51C331.27,290 331.2,288.48 331.14,286.97C331.08,285.46 331.04,283.95 331.01,282.44C330.98,280.93 330.96,279.41 330.96,277.9C330.96,276.39 330.97,274.88 330.99,273.37C331.01,271.86 331.04,270.35 331.07,268.84C331.1,267.33 331.14,265.81 331.17,264.3C331.2,262.79 331.24,261.28 331.26,259.77C331.28,258.26 331.28,256.74 331.28,255.23C331.28,253.72 331.27,252.21 331.25,250.7C331.23,249.19 331.19,247.68 331.16,246.17C331.13,244.66 331.09,243.14 331.06,241.63C331.03,240.12 330.99,238.61 330.97,237.1C330.95,235.59 330.94,234.07 330.94,232.56C330.94,231.05 330.94,229.54 330.96,228.03C330.98,226.52 331.01,225.01 331.04,223.5C331.07,221.99 331.11,220.47 331.14,218.96C331.17,217.45 331.21,215.94 331.23,214.43C331.25,212.92 331.28,211.4 331.28,209.89C331.28,208.38 331.28,206.87 331.26,205.36C331.24,203.85 331.21,202.34 331.18,200.83C331.15,199.32 331.11,197.8 331.07,196.29C331.03,194.78 330.98,193.27 330.94,191.76C330.9,190.25 330.86,188.73 330.83,187.22C330.8,185.71 330.77,184.2 330.75,182.69C330.73,181.18 330.71,179.67 330.7,178.16C330.69,176.65 330.68,175.13 330.67,173.62C330.66,172.11 330.66,170.6 330.66,169.09C330.66,167.58 330.65,166.06 330.65,164.55C330.65,163.04 330.65,161.53 330.65,160.02C330.65,158.51 330.66,157 330.66,155.49C330.66,153.98 330.66,152.46 330.67,150.95C330.67,149.44 330.68,147.93 330.69,146.42C330.7,144.91 330.72,143.39 330.74,141.88C330.76,140.37 330.79,138.86 330.82,137.35C330.85,135.84 330.88,134.33 330.92,132.82C330.96,131.31 331.01,129.79 331.05,128.28C331.09,126.77 331.14,125.26 331.17,123.75C331.2,122.24 331.23,120.72 331.25,119.21C331.27,117.7 331.28,116.19 331.28,114.68C331.28,113.17 331.26,111.66 331.24,110.15C331.22,108.64 331.18,107.12 331.14,105.61C331.1,104.1 331.06,102.59 331.02,101.08C330.98,99.57 330.94,98.05 330.9,96.54C330.86,95.03 330.83,93.52 330.8,92.01C330.78,90.5 330.76,88.99 330.75,87.48C330.74,85.97 330.73,84.45 330.73,82.94C330.73,81.43 330.74,79.92 330.75,78.41C330.76,76.9 330.78,75.38 330.81,73.87C330.84,72.36 330.87,70.85 330.91,69.34C330.95,67.83 330.99,66.32 331.03,64.81C331.07,63.3 331.12,61.78 331.16,60.27C331.2,58.76 331.23,57.25 331.25,55.74C331.27,54.23 331.28,52.71 331.28,51.2C331.28,49.69 331.27,48.18 331.25,46.67C331.23,45.16 331.19,43.65 331.15,42.14C331.11,40.63 331.07,39.11 331.03,37.6C330.99,36.09 330.95,34.58 330.91,33.07C330.87,31.56 330.84,30.04 330.81,28.53Q330.78,27.02 330.73,24L330.56,24Q330.52,27.02 330.49,28.53C330.46,30.04 330.43,31.56 330.39,33.07C330.35,34.58 330.3,36.09 330.26,37.6C330.22,39.11 330.18,40.63 330.14,42.14C330.11,43.65 330.07,45.16 330.05,46.67C330.03,48.18 330.01,49.69 330.01,51.2C330.01,52.71 330.03,54.23 330.05,55.74C330.07,57.25 330.11,58.76 330.14,60.27C330.18,61.78 330.22,63.3 330.26,64.81C330.3,66.32 330.34,67.83 330.38,69.34C330.42,70.85 330.45,72.36 330.48,73.87C330.51,75.38 330.52,76.9 330.54,78.41C330.55,79.92 330.57,81.43 330.57,82.94C330.57,84.45 330.56,85.97 330.55,87.48C330.54,88.99 330.51,90.5 330.49,92.01C330.46,93.52 330.43,95.03 330.4,96.54C330.36,98.05 330.32,99.57 330.28,101.08C330.24,102.59 330.19,104.1 330.15,105.61C330.11,107.12 330.08,108.64 330.06,110.15C330.04,111.66 330.01,113.17 330.01,114.68C330.01,116.19 330.02,117.7 330.04,119.21C330.06,120.72 330.09,122.24 330.13,123.75C330.16,125.26 330.21,126.77 330.25,128.28C330.29,129.79 330.34,131.31 330.38,132.82C330.42,134.33 330.45,135.84 330.48,137.35C330.51,138.86 330.54,140.37 330.56,141.88C330.58,143.39 330.59,144.91 330.6,146.42C330.61,147.93 330.62,149.44 330.63,150.95C330.64,152.46 330.64,153.98 330.64,155.49C330.64,157 330.64,158.51 330.64,160.02C330.64,161.53 330.64,163.04 330.64,164.55C330.64,166.06 330.64,167.58 330.64,169.09C330.64,170.6 330.63,172.11 330.62,173.62C330.61,175.13 330.61,176.65 330.6,178.16C330.59,179.67 330.57,181.18 330.55,182.69C330.53,184.2 330.49,185.71 330.46,187.22C330.43,188.73 330.4,190.25 330.36,191.76C330.32,193.27 330.27,194.78 330.23,196.29C330.19,197.8 330.14,199.32 330.11,200.83C330.08,202.34 330.05,203.85 330.03,205.36C330.01,206.87 330.01,208.38 330.01,209.89C330.01,211.4 330.04,212.92 330.06,214.43C330.08,215.94 330.12,217.45 330.15,218.96C330.18,220.47 330.23,221.99 330.26,223.5C330.29,225.01 330.31,226.52 330.33,228.03C330.35,229.54 330.36,231.05 330.36,232.56C330.36,234.07 330.34,235.59 330.32,237.1C330.3,238.61 330.27,240.12 330.24,241.63C330.21,243.14 330.16,244.66 330.13,246.17C330.1,247.68 330.07,249.19 330.05,250.7C330.03,252.21 330.01,253.72 330.01,255.23C330.01,256.74 330.02,258.26 330.04,259.77C330.06,261.28 330.09,262.79 330.12,264.3C330.15,265.81 330.19,267.33 330.22,268.84C330.25,270.35 330.29,271.86 330.31,273.37C330.33,274.88 330.34,276.39 330.34,277.9C330.34,279.41 330.32,280.93 330.29,282.44C330.26,283.95 330.22,285.46 330.16,286.97C330.1,288.48 330.03,290 329.95,291.51C329.87,293.02 329.78,294.53 329.68,296.04C329.58,297.55 329.46,299.06 329.35,300.57C329.23,302.08 329.12,303.6 328.99,305.11C328.86,306.62 328.72,308.13 328.57,309.64C328.42,311.15 328.25,312.67 328.07,314.18C327.89,315.69 327.7,317.2 327.49,318.71C327.28,320.22 327.05,321.73 326.81,323.24C326.57,324.75 326.33,326.27 326.07,327.78C325.81,329.29 325.54,330.8 325.27,332.31C325,333.82 324.73,335.34 324.45,336.85C324.17,338.36 323.89,339.87 323.61,341.38C323.32,342.89 323.05,344.4 322.74,345.91C322.43,347.42 322.12,348.94 321.75,350.45C321.38,351.97 321,353.48 320.53,354.98C320.06,356.5 319.53,358.02 318.92,359.52C318.3,361.04 317.6,362.55 316.85,364.05C316.09,365.57 315.22,367.07 314.38,368.58C313.54,370.1 312.61,371.6 311.81,373.12C311.02,374.62 310.19,376.11 309.59,377.65C309.01,379.14 308.48,380.66 308.25,382.19C308.02,383.69 307.98,385.23 308.19,386.72C308.41,388.25 308.92,389.78 309.57,391.25C310.25,392.8 311.24,394.31 312.25,395.79C313.3,397.34 314.57,398.82 315.79,400.32C317.02,401.84 318.37,403.34 319.6,404.86C320.81,406.36 322.04,407.85 323.12,409.39C324.16,410.87 325.14,412.38 325.96,413.92C326.75,415.41 327.44,416.93 328,418.46Q328.54,419.95 329.29,422.99Z" style="vector-effect: none; stroke-width: 2px; stroke: rgb(130, 104, 48); stroke-opacity: 1; fill: rgb(130, 104, 48); fill-opacity: 0.5;"/><path class="box" d="M325.03,379.08H336.26M325.03,388.58H336.26V349H325.03ZM330.65,388.58V395.77M330.65,349V302.23" style="vector-effect: non-scaling-stroke; stroke-width: 2px; stroke: rgb(130, 104, 48); stroke-opacity: 1; fill: rgb(130, 104, 48); fill-opacity: 0.5;"/><path class="mean" d="M325.03,359.08H336.26" style="fill: none; vector-effect: non-scaling-stroke; stroke-width: 2px; stroke-dasharray: 4px, 2px; stroke: rgb(130, 104, 48); stroke-opacity: 1;"/><g class="points"><path class="point" transform="translate(322.25,255.46)" d="M3,0A3,3 0 1,1 0,-3A3,3 0 0,1 3,0Z" style="opacity: 1; stroke-width: 0px; fill: rgb(130, 104, 48); fill-opacity: 1;"/><path class="point" transform="translate(320.95,208.68)" d="M3,0A3,3 0 1,1 0,-3A3,3 0 0,1 3,0Z" style="opacity: 1; stroke-width: 0px; fill: rgb(130, 104, 48); fill-opacity: 1;"/><path class="point" transform="translate(322.53,115.14)" d="M3,0A3,3 0 1,1 0,-3A3,3 0 0,1 3,0Z" style="opacity: 1; stroke-width: 0px; fill: rgb(130, 104, 48); fill-opacity: 1;"/><path class="point" transform="translate(320.71,51.22)" d="M3,0A3,3 0 1,1 0,-3A3,3 0 0,1 3,0Z" style="opacity: 1; stroke-width: 0px; fill: rgb(130, 104, 48); fill-opacity: 1;"/></g></g><g class="trace violins" style="opacity: 1;"><path class="violin" d="M387.19,422.29Q387.44,420.09 387.66,419C387.88,417.9 388.16,416.79 388.53,415.71C388.91,414.6 389.38,413.49 389.94,412.42C390.53,411.3 391.23,410.21 392,409.14C392.8,408.02 393.72,406.93 394.66,405.85C395.62,404.74 396.69,403.65 397.71,402.56C398.74,401.46 399.81,400.38 400.81,399.27C401.78,398.19 402.76,397.11 403.62,395.99C404.45,394.91 405.24,393.82 405.91,392.7C406.56,391.62 407.14,390.52 407.61,389.41C408.07,388.33 408.46,387.23 408.73,386.12C409,385.03 409.18,383.93 409.25,382.83C409.32,381.74 409.29,380.64 409.15,379.55C409.01,378.45 408.74,377.34 408.4,376.26C408.05,375.15 407.56,374.05 407.05,372.97C406.53,371.86 405.92,370.77 405.32,369.68C404.72,368.58 404.05,367.49 403.44,366.39C402.83,365.3 402.22,364.21 401.67,363.11C401.13,362.02 400.62,360.92 400.16,359.82C399.71,358.73 399.3,357.63 398.92,356.53C398.54,355.44 398.23,354.34 397.89,353.24C397.56,352.15 397.25,351.05 396.91,349.96C396.57,348.86 396.24,347.76 395.87,346.67C395.5,345.57 395.11,344.47 394.7,343.38C394.29,342.28 393.86,341.19 393.43,340.09C393,338.99 392.56,337.9 392.14,336.8C391.73,335.71 391.31,334.62 390.94,333.52C390.57,332.43 390.23,331.33 389.93,330.23C389.63,329.14 389.37,328.04 389.14,326.94C388.91,325.85 388.72,324.75 388.57,323.65C388.42,322.56 388.31,321.46 388.23,320.36C388.15,319.27 388.1,318.17 388.07,317.08C388.04,315.98 388.06,314.89 388.08,313.79C388.1,312.69 388.16,311.6 388.21,310.5C388.26,309.4 388.32,308.31 388.36,307.21C388.4,306.12 388.43,305.02 388.44,303.93C388.45,302.83 388.44,301.74 388.4,300.64C388.36,299.54 388.3,298.45 388.22,297.35C388.14,296.25 388.04,295.16 387.94,294.06C387.84,292.96 387.72,291.87 387.62,290.77C387.52,289.68 387.41,288.58 387.32,287.49C387.23,286.39 387.16,285.3 387.1,284.2C387.04,283.1 386.99,282.01 386.95,280.91C386.91,279.81 386.89,278.72 386.87,277.62C386.85,276.52 386.84,275.43 386.83,274.33C386.82,273.24 386.81,272.14 386.81,271.05C386.8,269.95 386.8,268.86 386.8,267.76C386.8,266.66 386.8,265.57 386.8,264.47C386.8,263.37 386.8,262.28 386.8,261.18C386.8,260.09 386.8,258.99 386.8,257.9C386.8,256.8 386.8,255.71 386.8,254.61C386.8,253.51 386.8,252.42 386.8,251.32C386.8,250.22 386.8,249.13 386.8,248.03C386.8,246.93 386.8,245.84 386.8,244.74C386.8,243.65 386.8,242.55 386.8,241.46C386.8,240.36 386.81,239.27 386.81,238.17C386.81,237.07 386.81,235.98 386.82,234.88C386.83,233.78 386.84,232.69 386.85,231.59C386.87,230.49 386.88,229.4 386.91,228.3C386.93,227.21 386.96,226.11 387,225.02C387.04,223.92 387.08,222.83 387.13,221.73C387.18,220.63 387.24,219.54 387.29,218.44C387.34,217.34 387.4,216.25 387.44,215.15C387.48,214.06 387.53,212.96 387.55,211.87C387.58,210.77 387.59,209.68 387.59,208.58C387.59,207.48 387.58,206.39 387.55,205.29C387.52,204.19 387.47,203.1 387.43,202C387.38,200.9 387.33,199.81 387.28,198.71C387.23,197.62 387.17,196.52 387.12,195.43C387.07,194.33 387.03,193.24 386.99,192.14Q386.95,191.04 386.9,188.85L386.69,188.85Q386.64,191.04 386.6,192.14C386.56,193.24 386.52,194.33 386.47,195.43C386.42,196.52 386.36,197.62 386.31,198.71C386.26,199.81 386.21,200.9 386.16,202C386.12,203.1 386.07,204.19 386.04,205.29C386.01,206.39 386,207.48 386,208.58C386,209.68 386.01,210.77 386.04,211.87C386.06,212.96 386.11,214.06 386.15,215.15C386.19,216.25 386.25,217.34 386.3,218.44C386.35,219.54 386.41,220.63 386.46,221.73C386.51,222.83 386.55,223.92 386.59,225.02C386.63,226.11 386.66,227.21 386.68,228.3C386.71,229.4 386.72,230.49 386.74,231.59C386.75,232.69 386.76,233.78 386.77,234.88C386.78,235.98 386.79,237.07 386.79,238.17C386.79,239.27 386.79,240.36 386.79,241.46C386.79,242.55 386.79,243.65 386.79,244.74C386.79,245.84 386.8,246.93 386.8,248.03C386.8,249.13 386.8,250.22 386.8,251.32C386.8,252.42 386.8,253.51 386.8,254.61C386.8,255.71 386.8,256.8 386.8,257.9C386.8,258.99 386.8,260.09 386.8,261.18C386.8,262.28 386.79,263.37 386.79,264.47C386.79,265.57 386.79,266.66 386.79,267.76C386.79,268.86 386.79,269.95 386.78,271.05C386.78,272.14 386.77,273.24 386.76,274.33C386.75,275.43 386.74,276.52 386.72,277.62C386.7,278.72 386.68,279.81 386.64,280.91C386.6,282.01 386.55,283.1 386.49,284.2C386.43,285.3 386.36,286.39 386.27,287.49C386.19,288.58 386.08,289.68 385.98,290.77C385.88,291.87 385.75,292.96 385.65,294.06C385.55,295.16 385.45,296.25 385.37,297.35C385.29,298.45 385.23,299.54 385.19,300.64C385.15,301.74 385.14,302.83 385.15,303.93C385.16,305.02 385.2,306.12 385.24,307.21C385.28,308.31 385.34,309.4 385.39,310.5C385.43,311.6 385.49,312.69 385.51,313.79C385.53,314.89 385.54,315.98 385.52,317.08C385.5,318.17 385.45,319.27 385.37,320.36C385.29,321.46 385.17,322.56 385.02,323.65C384.87,324.75 384.68,325.85 384.45,326.94C384.22,328.04 383.96,329.14 383.66,330.23C383.36,331.33 383.02,332.43 382.65,333.52C382.28,334.62 381.86,335.71 381.45,336.8C381.03,337.9 380.59,338.99 380.16,340.09C379.73,341.19 379.3,342.28 378.89,343.38C378.48,344.47 378.09,345.57 377.72,346.67C377.35,347.76 377.02,348.86 376.68,349.96C376.34,351.05 376.03,352.15 375.7,353.24C375.36,354.34 375.05,355.44 374.67,356.53C374.29,357.63 373.88,358.73 373.43,359.82C372.97,360.92 372.46,362.02 371.92,363.11C371.37,364.21 370.76,365.3 370.15,366.39C369.54,367.49 368.87,368.58 368.27,369.68C367.67,370.77 367.06,371.86 366.54,372.97C366.03,374.05 365.54,375.15 365.19,376.26C364.85,377.34 364.58,378.45 364.44,379.55C364.3,380.64 364.27,381.74 364.34,382.83C364.41,383.93 364.59,385.03 364.86,386.12C365.13,387.23 365.52,388.33 365.98,389.41C366.45,390.52 367.03,391.62 367.68,392.7C368.35,393.82 369.14,394.91 369.97,395.99C370.84,397.11 371.82,398.19 372.79,399.27C373.78,400.38 374.86,401.46 375.88,402.56C376.9,403.66 377.97,404.74 378.93,405.85C379.87,406.93 380.79,408.02 381.59,409.14C382.36,410.21 383.06,411.3 383.65,412.42C384.21,413.49 384.68,414.6 385.06,415.71C385.43,416.79 385.71,417.9 385.93,419Q386.15,420.09 386.4,422.29Z" style="vector-effect: none; stroke-width: 2px; stroke: rgb(233, 167, 148); stroke-opacity: 1; fill: rgb(233, 167, 148); fill-opacity: 0.5;"/><path class="box" d="M381.18,378.23H392.41M381.18,388.46H392.41V359.72H381.18ZM386.8,388.46V402.45M386.8,359.72V325.61" style="vector-effect: non-scaling-stroke; stroke-width: 2px; stroke: rgb(233, 167, 148); stroke-opacity: 1; fill: rgb(233, 167, 148); fill-opacity: 0.5;"/><path class="mean" d="M381.18,369.5H392.41" style="fill: none; vector-effect: non-scaling-stroke; stroke-width: 2px; stroke-dasharray: 4px, 2px; stroke: rgb(233, 167, 148); stroke-opacity: 1;"/><g class="points"><path class="point" transform="translate(378.39,302.23)" d="M3,0A3,3 0 1,1 0,-3A3,3 0 0,1 3,0Z" style="opacity: 1; stroke-width: 0px; fill: rgb(233, 167, 148); fill-opacity: 1;"/><path class="point" transform="translate(377.1,302.23)" d="M3,0A3,3 0 1,1 0,-3A3,3 0 0,1 3,0Z" style="opacity: 1; stroke-width: 0px; fill: rgb(233, 167, 148); fill-opacity: 1;"/><path class="point" transform="translate(378.68,208.68)" d="M3,0A3,3 0 1,1 0,-3A3,3 0 0,1 3,0Z" style="opacity: 1; stroke-width: 0px; fill: rgb(233, 167, 148); fill-opacity: 1;"/></g></g><g class="trace violins" style="opacity: 1;"><path class="violin" d="M444.06,422.58Q444.67,419.63 445.13,418.17C445.6,416.68 446.16,415.21 446.84,413.76C447.54,412.27 448.39,410.8 449.3,409.36C450.25,407.86 451.34,406.4 452.44,404.95C453.57,403.46 454.82,402.01 456,400.54C457.18,399.07 458.43,397.62 459.53,396.13C460.6,394.68 461.68,393.23 462.53,391.73C463.34,390.29 464.09,388.82 464.57,387.32C465.03,385.88 465.32,384.39 465.4,382.91C465.48,381.45 465.33,379.96 465.07,378.5C464.81,377.02 464.33,375.55 463.83,374.1C463.32,372.62 462.67,371.15 462.05,369.69C461.42,368.21 460.72,366.75 460.07,365.28C459.42,363.81 458.77,362.34 458.15,360.87C457.53,359.41 456.94,357.94 456.36,356.47C455.78,355 455.24,353.53 454.69,352.06C454.14,350.59 453.6,349.12 453.06,347.65C452.52,346.18 451.98,344.71 451.44,343.24C450.9,341.77 450.35,340.31 449.84,338.84C449.33,337.37 448.82,335.9 448.36,334.43C447.9,332.96 447.46,331.5 447.07,330.02C446.69,328.56 446.34,327.08 446.04,325.61C445.75,324.15 445.5,322.68 445.3,321.21C445.1,319.74 444.94,318.27 444.82,316.8C444.7,315.33 444.63,313.86 444.58,312.39C444.53,310.92 444.51,309.45 444.5,307.98C444.49,306.51 444.51,305.05 444.51,303.58C444.52,302.11 444.53,300.64 444.53,299.17C444.53,297.7 444.54,296.23 444.53,294.76C444.52,293.29 444.51,291.82 444.49,290.35C444.47,288.88 444.44,287.42 444.42,285.95C444.39,284.48 444.36,283.01 444.34,281.54C444.32,280.07 444.3,278.6 444.29,277.13C444.28,275.66 444.28,274.19 444.29,272.72C444.3,271.25 444.32,269.79 444.34,268.32C444.36,266.85 444.39,265.38 444.4,263.91C444.41,262.44 444.42,260.97 444.42,259.5C444.42,258.03 444.4,256.56 444.37,255.09C444.34,253.62 444.29,252.16 444.23,250.69C444.17,249.22 444.08,247.75 444,246.28C443.92,244.81 443.82,243.34 443.73,241.87C443.64,240.4 443.55,238.94 443.47,237.47C443.39,236 443.32,234.53 443.26,233.06Q443.2,231.59 443.12,228.65L442.77,228.65Q442.68,231.59 442.62,233.06C442.56,234.53 442.49,236 442.41,237.47C442.33,238.94 442.25,240.4 442.16,241.87C442.07,243.34 441.97,244.81 441.89,246.28C441.81,247.75 441.72,249.22 441.66,250.69C441.6,252.16 441.54,253.62 441.51,255.09C441.48,256.56 441.46,258.03 441.46,259.5C441.46,260.97 441.48,262.44 441.49,263.91C441.51,265.38 441.53,266.85 441.55,268.32C441.57,269.79 441.58,271.25 441.59,272.72C441.6,274.19 441.6,275.66 441.59,277.13C441.58,278.6 441.57,280.07 441.55,281.54C441.53,283.01 441.5,284.48 441.47,285.95C441.45,287.42 441.42,288.88 441.4,290.35C441.38,291.82 441.36,293.29 441.35,294.76C441.34,296.23 441.35,297.7 441.35,299.17C441.35,300.64 441.37,302.11 441.38,303.58C441.39,305.05 441.4,306.51 441.39,307.98C441.38,309.45 441.36,310.92 441.31,312.39C441.26,313.86 441.18,315.33 441.06,316.8C440.94,318.27 440.79,319.74 440.59,321.21C440.39,322.68 440.13,324.15 439.84,325.61C439.54,327.08 439.2,328.56 438.82,330.02C438.43,331.5 437.99,332.96 437.53,334.43C437.07,335.9 436.56,337.37 436.05,338.84C435.54,340.31 434.99,341.77 434.45,343.24C433.91,344.71 433.36,346.18 432.82,347.65C432.28,349.12 431.74,350.59 431.19,352.06C430.64,353.53 430.09,355 429.52,356.47C428.94,357.94 428.35,359.41 427.74,360.87C427.12,362.34 426.47,363.81 425.82,365.28C425.17,366.75 424.47,368.21 423.84,369.69C423.22,371.15 422.57,372.62 422.06,374.1C421.56,375.55 421.07,377.02 420.81,378.5C420.55,379.96 420.4,381.45 420.48,382.91C420.56,384.39 420.86,385.88 421.32,387.32C421.8,388.82 422.54,390.29 423.35,391.73C424.2,393.23 425.28,394.68 426.35,396.13C427.45,397.62 428.71,399.07 429.89,400.54C431.07,402.01 432.32,403.46 433.45,404.95C434.55,406.4 435.65,407.86 436.59,409.36C437.5,410.8 438.34,412.27 439.04,413.76C439.72,415.21 440.29,416.68 440.76,418.17Q441.22,419.62 441.83,422.58Z" style="vector-effect: none; stroke-width: 2px; stroke: rgb(217, 96, 63); stroke-opacity: 1; fill: rgb(217, 96, 63); fill-opacity: 0.5;"/><path class="box" d="M437.33,377.06H448.56M437.33,387.98H448.56V349H437.33ZM442.94,387.98V395.77M442.94,349V295.55" style="vector-effect: non-scaling-stroke; stroke-width: 2px; stroke: rgb(217, 96, 63); stroke-opacity: 1; fill: rgb(217, 96, 63); fill-opacity: 0.5;"/><path class="mean" d="M437.33,366.21H448.56" style="fill: none; vector-effect: non-scaling-stroke; stroke-width: 2px; stroke-dasharray: 4px, 2px; stroke: rgb(217, 96, 63); stroke-opacity: 1;"/><g class="points"><path class="point" transform="translate(434.54,278.84)" d="M3,0A3,3 0 1,1 0,-3A3,3 0 0,1 3,0Z" style="opacity: 1; stroke-width: 0px; fill: rgb(217, 96, 63); fill-opacity: 1;"/><path class="point" transform="translate(433.24,255.46)" d="M3,0A3,3 0 1,1 0,-3A3,3 0 0,1 3,0Z" style="opacity: 1; stroke-width: 0px; fill: rgb(217, 96, 63); fill-opacity: 1;"/><path class="point" transform="translate(434.83,255.46)" d="M3,0A3,3 0 1,1 0,-3A3,3 0 0,1 3,0Z" style="opacity: 1; stroke-width: 0px; fill: rgb(217, 96, 63); fill-opacity: 1;"/></g></g><g class="trace violins" style="opacity: 1;"><path class="violin" d="M500.71,416.28Q501.55,414.02 502.12,412.92C502.72,411.77 503.45,410.65 504.25,409.56C505.09,408.41 506.06,407.31 507.06,406.21C508.09,405.07 509.25,403.97 510.35,402.85C511.46,401.73 512.63,400.63 513.7,399.49C514.74,398.38 515.79,397.28 516.69,396.13C517.54,395.04 518.34,393.92 518.98,392.77C519.59,391.68 520.09,390.56 520.47,389.42C520.84,388.32 521.09,387.19 521.27,386.06C521.45,384.95 521.52,383.82 521.55,382.7C521.58,381.58 521.55,380.46 521.48,379.34C521.41,378.22 521.29,377.1 521.11,375.98C520.93,374.86 520.71,373.74 520.42,372.63C520.13,371.5 519.77,370.38 519.37,369.27C518.96,368.14 518.49,367.02 517.97,365.91C517.44,364.78 516.85,363.66 516.24,362.55C515.62,361.42 514.95,360.3 514.28,359.19C513.6,358.07 512.89,356.96 512.19,355.84C511.49,354.72 510.77,353.6 510.07,352.48C509.37,351.36 508.67,350.25 508.01,349.12C507.36,348.01 506.72,346.89 506.14,345.76C505.57,344.65 505.02,343.53 504.54,342.4C504.07,341.29 503.65,340.18 503.28,339.05C502.92,337.94 502.61,336.82 502.35,335.69C502.09,334.58 501.88,333.45 501.7,332.33C501.52,331.21 501.38,330.09 501.25,328.97C501.12,327.85 501.02,326.73 500.92,325.61C500.83,324.49 500.74,323.38 500.68,322.26C500.61,321.14 500.56,320.02 500.53,318.9C500.5,317.78 500.49,316.66 500.49,315.54C500.49,314.42 500.52,313.3 500.55,312.18C500.58,311.06 500.64,309.94 500.68,308.82C500.72,307.7 500.76,306.59 500.78,305.47C500.8,304.35 500.81,303.23 500.79,302.11C500.77,300.99 500.72,299.87 500.66,298.75C500.6,297.63 500.5,296.51 500.41,295.39C500.31,294.27 500.2,293.15 500.09,292.03C499.99,290.91 499.87,289.8 499.78,288.68C499.69,287.56 499.6,286.44 499.53,285.32C499.46,284.2 499.41,283.08 499.38,281.96C499.35,280.84 499.33,279.72 499.33,278.6C499.33,277.48 499.35,276.37 499.39,275.25C499.43,274.13 499.49,273.01 499.56,271.89C499.63,270.77 499.73,269.65 499.82,268.53C499.92,267.41 500.03,266.29 500.13,265.17C500.23,264.05 500.35,262.93 500.44,261.81C500.53,260.69 500.6,259.58 500.65,258.46C500.7,257.34 500.72,256.22 500.72,255.1C500.72,253.98 500.68,252.86 500.62,251.74C500.56,250.62 500.46,249.5 500.37,248.38C500.28,247.26 500.16,246.14 500.06,245.02C499.96,243.9 499.84,242.79 499.75,241.67C499.65,240.55 499.56,239.43 499.49,238.31Q499.42,237.19 499.31,234.95L498.87,234.95Q498.76,237.19 498.69,238.31C498.62,239.43 498.53,240.55 498.43,241.67C498.34,242.79 498.22,243.9 498.12,245.02C498.02,246.14 497.9,247.26 497.81,248.38C497.72,249.5 497.63,250.62 497.57,251.74C497.51,252.86 497.47,253.98 497.46,255.1C497.45,256.22 497.48,257.34 497.53,258.46C497.58,259.58 497.66,260.69 497.75,261.81C497.84,262.93 497.95,264.05 498.05,265.17C498.15,266.29 498.26,267.41 498.36,268.53C498.45,269.65 498.55,270.77 498.62,271.89C498.69,273.01 498.75,274.13 498.79,275.25C498.83,276.37 498.85,277.48 498.85,278.6C498.85,279.72 498.83,280.84 498.8,281.96C498.77,283.08 498.72,284.2 498.65,285.32C498.58,286.44 498.49,287.56 498.4,288.68C498.31,289.8 498.19,290.91 498.09,292.03C497.98,293.15 497.87,294.27 497.77,295.39C497.68,296.51 497.58,297.63 497.52,298.75C497.46,299.87 497.42,300.99 497.4,302.11C497.38,303.23 497.38,304.35 497.4,305.47C497.42,306.59 497.47,307.7 497.51,308.82C497.55,309.94 497.6,311.06 497.63,312.18C497.66,313.3 497.69,314.42 497.69,315.54C497.69,316.66 497.68,317.78 497.65,318.9C497.62,320.02 497.56,321.14 497.5,322.26C497.44,323.38 497.36,324.49 497.27,325.61C497.18,326.73 497.07,327.85 496.94,328.97C496.81,330.09 496.66,331.21 496.48,332.33C496.29,333.45 496.09,334.58 495.83,335.69C495.57,336.82 495.26,337.94 494.9,339.05C494.53,340.18 494.11,341.29 493.64,342.4C493.16,343.53 492.61,344.65 492.04,345.76C491.46,346.89 490.82,348.01 490.17,349.12C489.51,350.25 488.81,351.36 488.12,352.48C487.42,353.6 486.69,354.72 485.99,355.84C485.29,356.96 484.58,358.07 483.9,359.19C483.23,360.3 482.56,361.42 481.94,362.55C481.33,363.66 480.75,364.78 480.22,365.91C479.7,367.02 479.22,368.14 478.81,369.27C478.4,370.38 478.05,371.5 477.76,372.63C477.47,373.74 477.25,374.86 477.07,375.98C476.89,377.1 476.77,378.22 476.7,379.34C476.63,380.46 476.59,381.58 476.63,382.7C476.67,383.82 476.74,384.95 476.92,386.06C477.1,387.19 477.34,388.32 477.71,389.42C478.09,390.56 478.59,391.68 479.2,392.77C479.84,393.92 480.64,395.04 481.49,396.13C482.39,397.28 483.44,398.38 484.48,399.49C485.55,400.63 486.73,401.73 487.84,402.85C488.94,403.97 490.09,405.07 491.12,406.21C492.11,407.31 493.09,408.41 493.93,409.56C494.73,410.65 495.46,411.77 496.06,412.92Q496.63,414.02 497.47,416.28Z" style="vector-effect: none; stroke-width: 2px; stroke: rgb(149, 55, 29); stroke-opacity: 1; fill: rgb(149, 55, 29); fill-opacity: 0.5;"/><path class="box" d="M493.48,374.06H504.71M493.48,390.32H504.71V360.69H493.48ZM499.09,390.32V395.77M499.09,360.69V325.61" style="vector-effect: non-scaling-stroke; stroke-width: 2px; stroke: rgb(149, 55, 29); stroke-opacity: 1; fill: rgb(149, 55, 29); fill-opacity: 0.5;"/><path class="mean" d="M493.48,369.14H504.71" style="fill: none; vector-effect: non-scaling-stroke; stroke-width: 2px; stroke-dasharray: 4px, 2px; stroke: rgb(149, 55, 29); stroke-opacity: 1;"/><g class="points"><path class="point" transform="translate(490.69,302.23)" d="M3,0A3,3 0 1,1 0,-3A3,3 0 0,1 3,0Z" style="opacity: 1; stroke-width: 0px; fill: rgb(149, 55, 29); fill-opacity: 1;"/><path class="point" transform="translate(489.39,302.23)" d="M3,0A3,3 0 1,1 0,-3A3,3 0 0,1 3,0Z" style="opacity: 1; stroke-width: 0px; fill: rgb(149, 55, 29); fill-opacity: 1;"/><path class="point" transform="translate(490.98,255.46)" d="M3,0A3,3 0 1,1 0,-3A3,3 0 0,1 3,0Z" style="opacity: 1; stroke-width: 0px; fill: rgb(149, 55, 29); fill-opacity: 1;"/><path class="point" transform="translate(489.16,255.46)" d="M3,0A3,3 0 1,1 0,-3A3,3 0 0,1 3,0Z" style="opacity: 1; stroke-width: 0px; fill: rgb(149, 55, 29); fill-opacity: 1;"/></g></g></g></g></g><g class="zerolinelayer-above"/><path class="xlines-above crisp" d="M0,0" style="fill: none;"/><path class="ylines-above crisp" d="M0,0" style="fill: none;"/><g class="overlines-above"/><g class="xaxislayer-above"/><g class="yaxislayer-above"><g class="ytick"><text text-anchor="end" x="63" y="5.25" transform="translate(0,405.77)" style="font-family: Inter, Roboto, Arial, sans-serif; font-size: 15px; fill: rgb(34, 34, 34); fill-opacity: 1; white-space: pre;">0</text></g><g class="ytick"><text text-anchor="end" x="63" y="5.25" style="font-family: Inter, Roboto, Arial, sans-serif; font-size: 15px; fill: rgb(34, 34, 34); fill-opacity: 1; white-space: pre;" transform="translate(0,312.23)">200</text></g><g class="ytick"><text text-anchor="end" x="63" y="5.25" style="font-family: Inter, Roboto, Arial, sans-serif; font-size: 15px; fill: rgb(34, 34, 34); fill-opacity: 1; white-space: pre;" transform="translate(0,218.68)">400</text></g><g class="ytick"><text text-anchor="end" x="63" y="5.25" style="font-family: Inter, Roboto, Arial, sans-serif; font-size: 15px; fill: rgb(34, 34, 34); fill-opacity: 1; white-space: pre;" transform="translate(0,125.14)">600</text></g><g class="ytick"><text text-anchor="end" x="63" y="5.25" style="font-family: Inter, Roboto, Arial, sans-serif; font-size: 15px; fill: rgb(34, 34, 34); fill-opacity: 1; white-space: pre;" transform="translate(0,31.6)">800</text></g></g><g class="overaxes-above"/></g></g><g class="polarlayer"/><g class="smithlayer"/><g class="ternarylayer"/><g class="geolayer"/><g class="funnelarealayer"/><g class="pielayer"/><g class="iciclelayer"/><g class="treemaplayer"/><g class="sunburstlayer"/><g class="glimages"/><defs id="topdefs-94290d"><g class="clips"/><clipPath id="legend94290d"><rect width="166" height="305" x="0" y="0"/></clipPath></defs><g class="layer-above"><g class="imagelayer"/><g class="shapelayer"/></g><g class="infolayer"><g class="legend" pointer-events="all" transform="translate(623.98,10)"><rect class="bg" shape-rendering="crispEdges" style="stroke: rgb(68, 68, 68); stroke-opacity: 1; fill: rgb(255, 255, 255); fill-opacity: 0.9; stroke-width: 0px;" width="166" height="305" x="0" y="0"/><g class="scrollbox" transform="" clip-path="url(#legend94290d)"><g class="groups" transform=""><g class="traces" transform="translate(0,17.55)" style="opacity: 1;"><text class="legendtext" text-anchor="start" x="5" y="6.63" style="font-family: Inter, Roboto, Arial, sans-serif; font-size: 17px; fill: rgb(65, 189, 156); fill-opacity: 1; white-space: pre;"><tspan style="font-weight:bold">GPT 5.1 Codex Max</tspan></text><g class="layers"><g class="legendfill"/><g class="legendlines"/><g class="legendsymbols"><g class="legendpoints"/></g></g><rect class="legendtoggle" x="0" y="-12.55" width="160.84765625" height="25.1" style="fill: rgb(0, 0, 0); fill-opacity: 0;"/></g><g class="traces" transform="translate(0,40.050000000000004)" style="opacity: 1;"><text class="legendtext" text-anchor="start" x="40" y="5.07" style="font-family: Inter, Roboto, Arial, sans-serif; font-size: 13px; fill: rgb(34, 34, 34); fill-opacity: 1; white-space: pre;">No Thinking</text><g class="layers" style="opacity: 1;"><g class="legendfill"/><g class="legendlines"/><g class="legendsymbols"><g class="legendpoints"><path class="legendbox" d="M6,6H-6V-6H6Z" transform="translate(20,0)" style="stroke-width: 2px; fill: rgb(160, 222, 205); fill-opacity: 0.5; stroke: rgb(160, 222, 205); stroke-opacity: 1;"/></g></g></g><rect class="legendtoggle" x="0" y="-9.950000000000001" width="160.84765625" height="19.900000000000002" style="fill: rgb(0, 0, 0); fill-opacity: 0;"/></g><g class="traces" transform="translate(0,59.95)" style="opacity: 1;"><text class="legendtext" text-anchor="start" x="40" y="5.07" style="font-family: Inter, Roboto, Arial, sans-serif; font-size: 13px; fill: rgb(34, 34, 34); fill-opacity: 1; white-space: pre;">Low</text><g class="layers" style="opacity: 1;"><g class="legendfill"/><g class="legendlines"/><g class="legendsymbols"><g class="legendpoints"><path class="legendbox" d="M6,6H-6V-6H6Z" transform="translate(20,0)" style="stroke-width: 2px; fill: rgb(84, 196, 166); fill-opacity: 0.5; stroke: rgb(84, 196, 166); stroke-opacity: 1;"/></g></g></g><rect class="legendtoggle" x="0" y="-9.950000000000001" width="160.84765625" height="19.900000000000002" style="fill: rgb(0, 0, 0); fill-opacity: 0;"/></g><g class="traces" transform="translate(0,79.85000000000001)" style="opacity: 1;"><text class="legendtext" text-anchor="start" x="40" y="5.07" style="font-family: Inter, Roboto, Arial, sans-serif; font-size: 13px; fill: rgb(34, 34, 34); fill-opacity: 1; white-space: pre;">High</text><g class="layers" style="opacity: 1;"><g class="legendfill"/><g class="legendlines"/><g class="legendsymbols"><g class="legendpoints"><path class="legendbox" d="M6,6H-6V-6H6Z" transform="translate(20,0)" style="stroke-width: 2px; fill: rgb(45, 132, 109); fill-opacity: 0.5; stroke: rgb(45, 132, 109); stroke-opacity: 1;"/></g></g></g><rect class="legendtoggle" x="0" y="-9.950000000000001" width="160.84765625" height="19.900000000000002" style="fill: rgb(0, 0, 0); fill-opacity: 0;"/></g></g><g class="groups" transform="translate(0,20)"><g class="traces" transform="translate(0,102.35000000000001)" style="opacity: 1;"><text class="legendtext" text-anchor="start" x="5" y="6.63" style="font-family: Inter, Roboto, Arial, sans-serif; font-size: 17px; fill: rgb(194, 161, 91); fill-opacity: 1; white-space: pre;"><tspan style="font-weight:bold">GPT 5.2</tspan></text><g class="layers"><g class="legendfill"/><g class="legendlines"/><g class="legendsymbols"><g class="legendpoints"/></g></g><rect class="legendtoggle" x="0" y="-12.55" width="160.84765625" height="25.1" style="fill: rgb(0, 0, 0); fill-opacity: 0;"/></g><g class="traces" transform="translate(0,124.85000000000001)" style="opacity: 1;"><text class="legendtext" text-anchor="start" x="40" y="5.07" style="font-family: Inter, Roboto, Arial, sans-serif; font-size: 13px; fill: rgb(34, 34, 34); fill-opacity: 1; white-space: pre;">No Thinking</text><g class="layers" style="opacity: 1;"><g class="legendfill"/><g class="legendlines"/><g class="legendsymbols"><g class="legendpoints"><path class="legendbox" d="M6,6H-6V-6H6Z" transform="translate(20,0)" style="stroke-width: 2px; fill: rgb(220, 202, 161); fill-opacity: 0.5; stroke: rgb(220, 202, 161); stroke-opacity: 1;"/></g></g></g><rect class="legendtoggle" x="0" y="-9.950000000000001" width="160.84765625" height="19.900000000000002" style="fill: rgb(0, 0, 0); fill-opacity: 0;"/></g><g class="traces" transform="translate(0,144.75)" style="opacity: 1;"><text class="legendtext" text-anchor="start" x="40" y="5.07" style="font-family: Inter, Roboto, Arial, sans-serif; font-size: 13px; fill: rgb(34, 34, 34); fill-opacity: 1; white-space: pre;">Low</text><g class="layers" style="opacity: 1;"><g class="legendfill"/><g class="legendlines"/><g class="legendsymbols"><g class="legendpoints"><path class="legendbox" d="M6,6H-6V-6H6Z" transform="translate(20,0)" style="stroke-width: 2px; fill: rgb(193, 159, 87); fill-opacity: 0.5; stroke: rgb(193, 159, 87); stroke-opacity: 1;"/></g></g></g><rect class="legendtoggle" x="0" y="-9.950000000000001" width="160.84765625" height="19.900000000000002" style="fill: rgb(0, 0, 0); fill-opacity: 0;"/></g><g class="traces" transform="translate(0,164.65)" style="opacity: 1;"><text class="legendtext" text-anchor="start" x="40" y="5.07" style="font-family: Inter, Roboto, Arial, sans-serif; font-size: 13px; fill: rgb(34, 34, 34); fill-opacity: 1; white-space: pre;">High</text><g class="layers" style="opacity: 1;"><g class="legendfill"/><g class="legendlines"/><g class="legendsymbols"><g class="legendpoints"><path class="legendbox" d="M6,6H-6V-6H6Z" transform="translate(20,0)" style="stroke-width: 2px; fill: rgb(130, 104, 48); fill-opacity: 0.5; stroke: rgb(130, 104, 48); stroke-opacity: 1;"/></g></g></g><rect class="legendtoggle" x="0" y="-9.950000000000001" width="160.84765625" height="19.900000000000002" style="fill: rgb(0, 0, 0); fill-opacity: 0;"/></g></g><g class="groups" transform="translate(0,40)"><g class="traces" transform="translate(0,187.15000000000003)" style="opacity: 1;"><text class="legendtext" text-anchor="start" x="5" y="6.63" style="font-family: Inter, Roboto, Arial, sans-serif; font-size: 17px; fill: rgb(221, 114, 84); fill-opacity: 1; white-space: pre;"><tspan style="font-weight:bold">Opus 4.5</tspan></text><g class="layers"><g class="legendfill"/><g class="legendlines"/><g class="legendsymbols"><g class="legendpoints"/></g></g><rect class="legendtoggle" x="0" y="-12.55" width="160.84765625" height="25.1" style="fill: rgb(0, 0, 0); fill-opacity: 0;"/></g><g class="traces" transform="translate(0,209.65)" style="opacity: 1;"><text class="legendtext" text-anchor="start" x="40" y="5.07" style="font-family: Inter, Roboto, Arial, sans-serif; font-size: 13px; fill: rgb(34, 34, 34); fill-opacity: 1; white-space: pre;">No Thinking</text><g class="layers" style="opacity: 1;"><g class="legendfill"/><g class="legendlines"/><g class="legendsymbols"><g class="legendpoints"><path class="legendbox" d="M6,6H-6V-6H6Z" transform="translate(20,0)" style="stroke-width: 2px; fill: rgb(233, 167, 148); fill-opacity: 0.5; stroke: rgb(233, 167, 148); stroke-opacity: 1;"/></g></g></g><rect class="legendtoggle" x="0" y="-9.950000000000001" width="160.84765625" height="19.900000000000002" style="fill: rgb(0, 0, 0); fill-opacity: 0;"/></g><g class="traces" transform="translate(0,229.55)" style="opacity: 1;"><text class="legendtext" text-anchor="start" x="40" y="5.07" style="font-family: Inter, Roboto, Arial, sans-serif; font-size: 13px; fill: rgb(34, 34, 34); fill-opacity: 1; white-space: pre;">Low</text><g class="layers" style="opacity: 1;"><g class="legendfill"/><g class="legendlines"/><g class="legendsymbols"><g class="legendpoints"><path class="legendbox" d="M6,6H-6V-6H6Z" transform="translate(20,0)" style="stroke-width: 2px; fill: rgb(217, 96, 63); fill-opacity: 0.5; stroke: rgb(217, 96, 63); stroke-opacity: 1;"/></g></g></g><rect class="legendtoggle" x="0" y="-9.950000000000001" width="160.84765625" height="19.900000000000002" style="fill: rgb(0, 0, 0); fill-opacity: 0;"/></g><g class="traces" transform="translate(0,249.45000000000002)" style="opacity: 1;"><text class="legendtext" text-anchor="start" x="40" y="5.07" style="font-family: Inter, Roboto, Arial, sans-serif; font-size: 13px; fill: rgb(34, 34, 34); fill-opacity: 1; white-space: pre;">High</text><g class="layers" style="opacity: 1;"><g class="legendfill"/><g class="legendlines"/><g class="legendsymbols"><g class="legendpoints"><path class="legendbox" d="M6,6H-6V-6H6Z" transform="translate(20,0)" style="stroke-width: 2px; fill: rgb(149, 55, 29); fill-opacity: 0.5; stroke: rgb(149, 55, 29); stroke-opacity: 1;"/></g></g></g><rect class="legendtoggle" x="0" y="-9.950000000000001" width="160.84765625" height="19.900000000000002" style="fill: rgb(0, 0, 0); fill-opacity: 0;"/></g></g></g><rect class="scrollbar" rx="20" ry="3" width="0" height="0" style="fill: rgb(128, 139, 164); fill-opacity: 1;" x="0" y="0"/></g><g class="g-gtitle"><text class="gtitle" x="400" y="10" text-anchor="middle" dy="0.7em" style="opacity: 1; font-family: Inter, Roboto, Arial, sans-serif; font-size: 28px; fill: rgb(17, 17, 17); fill-opacity: 1; white-space: pre;">High Complexity Symbols Delta</text></g><g class="g-xtitle"/><g class="g-ytitle" transform="translate(0.0966796875,0)"><text class="ytitle" transform="rotate(-90,16.903125000000003,250)" x="16.903125000000003" y="250" text-anchor="middle" style="opacity: 1; font-family: Inter, Roboto, Arial, sans-serif; font-size: 18px; fill: rgb(34, 34, 34); fill-opacity: 1; white-space: pre;">% Change</text></g></g></svg>