<svg class="main-svg" xmlns="http://www.w3.org/2000/svg" xmlns:xlink="http://www.w3.org/1999/xlink" width="1200" height="560" style="" viewBox="0 0 1200 560"><rect x="0" y="0" width="1200" height="560" style="fill: rgb(255, 255, 255); fill-opacity: 1;"/><defs id="defs-30566a"><g class="clips"><clipPath id="clip30566axyplot" class="plotclip"><rect width="399.925" height="400"/></clipPath><clipPath id="clip30566ax2y2plot" class="plotclip"><rect width="399.92500000000007" height="400"/></clipPath><clipPath class="axesclip" id="clip30566ax"><rect x="64" y="0" width="399.925" height="560"/></clipPath><clipPath class="axesclip" id="clip30566ay"><rect x="0" y="80" width="1200" height="400"/></clipPath><clipPath class="axesclip" id="clip30566axy"><rect x="64" y="80" width="399.925" height="400"/></clipPath><clipPath class="axesclip" id="clip30566ay2"><rect x="0" y="80" width="1200" height="400"/></clipPath><clipPath class="axesclip" id="clip30566axy2"><rect x="64" y="80" width="399.925" height="400"/></clipPath><clipPath class="axesclip" id="clip30566ax2"><rect x="605.0749999999999" y="0" width="399.92500000000007" height="560"/></clipPath><clipPath class="axesclip" id="clip30566ax2y"><rect x="605.0749999999999" y="80" width="399.92500000000007" height="400"/></clipPath><clipPath class="axesclip" id="clip30566ax2y2"><rect x="605.0749999999999" y="80" width="399.92500000000007" height="400"/></clipPath></g><g class="gradients"/><g class="patterns"/></defs><g class="bglayer"/><g class="layer-below"><g class="imagelayer"/><g class="shapelayer"/></g><g class="cartesianlayer"><g class="subplot xy"><g class="layer-subplot"><g class="shapelayer"/><g class="imagelayer"/></g><g class="minor-gridlayer"><g class="x"/><g class="y"/></g><g class="gridlayer"><g class="x"/><g class="y"><path class="ygrid crisp" transform="translate(0,453.38)" d="M64,0h399.925" style="stroke: rgb(211, 211, 211); stroke-opacity: 1; stroke-width: 1px;"/><path class="ygrid crisp" transform="translate(0,341.8)" d="M64,0h399.925" style="stroke: rgb(211, 211, 211); stroke-opacity: 1; stroke-width: 1px;"/><path class="ygrid crisp" transform="translate(0,286.01)" d="M64,0h399.925" style="stroke: rgb(211, 211, 211); stroke-opacity: 1; stroke-width: 1px;"/><path class="ygrid crisp" transform="translate(0,230.22)" d="M64,0h399.925" style="stroke: rgb(211, 211, 211); stroke-opacity: 1; stroke-width: 1px;"/><path class="ygrid crisp" transform="translate(0,174.43)" d="M64,0h399.925" style="stroke: rgb(211, 211, 211); stroke-opacity: 1; stroke-width: 1px;"/><path class="ygrid crisp" transform="translate(0,118.63)" d="M64,0h399.925" style="stroke: rgb(211, 211, 211); stroke-opacity: 1; stroke-width: 1px;"/></g></g><g class="zerolinelayer"><path class="yzl zl crisp" transform="translate(0,397.59)" d="M64,0h399.925" style="stroke: rgb(255, 255, 255); stroke-opacity: 1; stroke-width: 2px;"/></g><g class="layer-between"><g class="shapelayer"/><g class="imagelayer"/></g><path class="xlines-below"/><path class="ylines-below"/><g class="overlines-below"/><g class="xaxislayer-below"/><g class="yaxislayer-below"/><g class="overaxes-below"/><g class="overplot"><g class="xy" transform="translate(64,80)" clip-path="url(#clip30566axyplot)"><g class="boxlayer mlayer"><g class="trace boxes" style="opacity: 1;"><path class="box" d="M11.33,268.71H33.1M11.33,293.19H33.1V255.81H11.33ZM22.22,293.19V316.87M22.22,255.81V206.39M16.77,316.87H27.66M16.77,206.39H27.66" style="vector-effect: none; stroke-width: 2px; stroke: rgb(160, 222, 205); stroke-opacity: 1; fill: rgb(160, 222, 205); fill-opacity: 0.5;"/><g class="points"><path class="point" transform="translate(22.22,191.74)" d="M3,0A3,3 0 1,1 0,-3A3,3 0 0,1 3,0Z" style="opacity: 1; stroke-width: 0px; fill: rgb(160, 222, 205); fill-opacity: 1;"/><path class="point" transform="translate(22.22,189.5)" d="M3,0A3,3 0 1,1 0,-3A3,3 0 0,1 3,0Z" style="opacity: 1; stroke-width: 0px; fill: rgb(160, 222, 205); fill-opacity: 1;"/><path class="point" transform="translate(22.22,184.9)" d="M3,0A3,3 0 1,1 0,-3A3,3 0 0,1 3,0Z" style="opacity: 1; stroke-width: 0px; fill: rgb(160, 222, 205); fill-opacity: 1;"/><path class="point" transform="translate(22.22,138.38)" d="M3,0A3,3 0 1,1 0,-3A3,3 0 0,1 3,0Z" style="opacity: 1; stroke-width: 0px; fill: rgb(160, 222, 205); fill-opacity: 1;"/><path class="point" transform="translate(22.22,124.72)" d="M3,0A3,3 0 1,1 0,-3A3,3 0 0,1 3,0Z" style="opacity: 1; stroke-width: 0px; fill: rgb(160, 222, 205); fill-opacity: 1;"/></g></g><g class="trace boxes" style="opacity: 1;"><path class="box" d="M55.77,271.78H77.54M55.77,291.56H77.54V247.02H55.77ZM66.65,291.56V317.03M66.65,247.02V185.4M61.21,317.03H72.1M61.21,185.4H72.1" style="vector-effect: none; stroke-width: 2px; stroke: rgb(84, 196, 166); stroke-opacity: 1; fill: rgb(84, 196, 166); fill-opacity: 0.5;"/><g class="points"><path class="point" transform="translate(66.65,180.05)" d="M3,0A3,3 0 1,1 0,-3A3,3 0 0,1 3,0Z" style="opacity: 1; stroke-width: 0px; fill: rgb(84, 196, 166); fill-opacity: 1;"/><path class="point" transform="translate(66.65,172.16)" d="M3,0A3,3 0 1,1 0,-3A3,3 0 0,1 3,0Z" style="opacity: 1; stroke-width: 0px; fill: rgb(84, 196, 166); fill-opacity: 1;"/><path class="point" transform="translate(66.65,170.9)" d="M3,0A3,3 0 1,1 0,-3A3,3 0 0,1 3,0Z" style="opacity: 1; stroke-width: 0px; fill: rgb(84, 196, 166); fill-opacity: 1;"/><path class="point" transform="translate(66.65,160.75)" d="M3,0A3,3 0 1,1 0,-3A3,3 0 0,1 3,0Z" style="opacity: 1; stroke-width: 0px; fill: rgb(84, 196, 166); fill-opacity: 1;"/></g></g><g class="trace boxes" style="opacity: 1;"><path class="box" d="M100.2,276.05H121.98M100.2,295.15H121.98V243.95H100.2ZM111.09,295.15V316.63M111.09,243.95V173.7M105.65,316.63H116.53M105.65,173.7H116.53" style="vector-effect: none; stroke-width: 2px; stroke: rgb(45, 132, 109); stroke-opacity: 1; fill: rgb(45, 132, 109); fill-opacity: 0.5;"/><g class="points"><path class="point" transform="translate(111.09,380)" d="M3,0A3,3 0 1,1 0,-3A3,3 0 0,1 3,0Z" style="opacity: 1; stroke-width: 0px; fill: rgb(45, 132, 109); fill-opacity: 1;"/><path class="point" transform="translate(111.09,20.91)" d="M3,0A3,3 0 1,1 0,-3A3,3 0 0,1 3,0Z" style="opacity: 1; stroke-width: 0px; fill: rgb(45, 132, 109); fill-opacity: 1;"/></g></g><g class="trace boxes" style="opacity: 1;"><path class="box" d="M144.64,275.95H166.41M144.64,289.62H166.41V244.43H144.64ZM155.53,289.62V317.59M155.53,244.43V192.86M150.08,317.59H160.97M150.08,192.86H160.97" style="vector-effect: none; stroke-width: 2px; stroke: rgb(220, 202, 161); stroke-opacity: 1; fill: rgb(220, 202, 161); fill-opacity: 0.5;"/><g class="points"><path class="point" transform="translate(155.53,170.83)" d="M3,0A3,3 0 1,1 0,-3A3,3 0 0,1 3,0Z" style="opacity: 1; stroke-width: 0px; fill: rgb(220, 202, 161); fill-opacity: 1;"/><path class="point" transform="translate(155.53,161.91)" d="M3,0A3,3 0 1,1 0,-3A3,3 0 0,1 3,0Z" style="opacity: 1; stroke-width: 0px; fill: rgb(220, 202, 161); fill-opacity: 1;"/></g></g><g class="trace boxes" style="opacity: 1;"><path class="box" d="M189.08,267.23H210.85M189.08,288.67H210.85V238.29H189.08ZM199.96,288.67V313M199.96,238.29V183.23M194.52,313H205.41M194.52,183.23H205.41" style="vector-effect: none; stroke-width: 2px; stroke: rgb(193, 159, 87); stroke-opacity: 1; fill: rgb(193, 159, 87); fill-opacity: 0.5;"/><g class="points"><path class="point" transform="translate(199.96,128.33)" d="M3,0A3,3 0 1,1 0,-3A3,3 0 0,1 3,0Z" style="opacity: 1; stroke-width: 0px; fill: rgb(193, 159, 87); fill-opacity: 1;"/><path class="point" transform="translate(199.96,123.68)" d="M3,0A3,3 0 1,1 0,-3A3,3 0 0,1 3,0Z" style="opacity: 1; stroke-width: 0px; fill: rgb(193, 159, 87); fill-opacity: 1;"/></g></g><g class="trace boxes" style="opacity: 1;"><path class="box" d="M233.51,269.86H255.29M233.51,292.24H255.29V237.47H233.51ZM244.4,292.24V317.59M244.4,237.47V184.96M238.96,317.59H249.84M238.96,184.96H249.84" style="vector-effect: none; stroke-width: 2px; stroke: rgb(130, 104, 48); stroke-opacity: 1; fill: rgb(130, 104, 48); fill-opacity: 0.5;"/><g class="points"><path class="point" transform="translate(244.4,144.37)" d="M3,0A3,3 0 1,1 0,-3A3,3 0 0,1 3,0Z" style="opacity: 1; stroke-width: 0px; fill: rgb(130, 104, 48); fill-opacity: 1;"/><path class="point" transform="translate(244.4,114.53)" d="M3,0A3,3 0 1,1 0,-3A3,3 0 0,1 3,0Z" style="opacity: 1; stroke-width: 0px; fill: rgb(130, 104, 48); fill-opacity: 1;"/><path class="point" transform="translate(244.4,79.3)" d="M3,0A3,3 0 1,1 0,-3A3,3 0 0,1 3,0Z" style="opacity: 1; stroke-width: 0px; fill: rgb(130, 104, 48); fill-opacity: 1;"/><path class="point" transform="translate(244.4,20)" d="M3,0A3,3 0 1,1 0,-3A3,3 0 0,1 3,0Z" style="opacity: 1; stroke-width: 0px; fill: rgb(130, 104, 48); fill-opacity: 1;"/></g></g><g class="trace boxes" style="opacity: 1;"><path class="box" d="M277.95,272.27H299.72M277.95,293.77H299.72V240.51H277.95ZM288.83,293.77V317.59M288.83,240.51V170.56M283.39,317.59H294.28M283.39,170.56H294.28" style="vector-effect: none; stroke-width: 2px; stroke: rgb(233, 167, 148); stroke-opacity: 1; fill: rgb(233, 167, 148); fill-opacity: 0.5;"/><g class="points"><path class="point" transform="translate(288.83,138.75)" d="M3,0A3,3 0 1,1 0,-3A3,3 0 0,1 3,0Z" style="opacity: 1; stroke-width: 0px; fill: rgb(233, 167, 148); fill-opacity: 1;"/><path class="point" transform="translate(288.83,81.95)" d="M3,0A3,3 0 1,1 0,-3A3,3 0 0,1 3,0Z" style="opacity: 1; stroke-width: 0px; fill: rgb(233, 167, 148); fill-opacity: 1;"/></g></g><g class="trace boxes" style="opacity: 1;"><path class="box" d="M322.38,272.93H344.16M322.38,296.06H344.16V237.71H322.38ZM333.27,296.06V317.59M333.27,237.71V183.69M327.83,317.59H338.71M327.83,183.69H338.71" style="vector-effect: none; stroke-width: 2px; stroke: rgb(217, 96, 63); stroke-opacity: 1; fill: rgb(217, 96, 63); fill-opacity: 0.5;"/><g class="points"><path class="point" transform="translate(333.27,130.71)" d="M3,0A3,3 0 1,1 0,-3A3,3 0 0,1 3,0Z" style="opacity: 1; stroke-width: 0px; fill: rgb(217, 96, 63); fill-opacity: 1;"/><path class="point" transform="translate(333.27,83.72)" d="M3,0A3,3 0 1,1 0,-3A3,3 0 0,1 3,0Z" style="opacity: 1; stroke-width: 0px; fill: rgb(217, 96, 63); fill-opacity: 1;"/></g></g><g class="trace boxes" style="opacity: 1;"><path class="box" d="M366.82,274.5H388.59M366.82,292.57H388.59V246.53H366.82ZM377.71,292.57V317.59M377.71,246.53V190.69M372.26,317.59H383.15M372.26,190.69H383.15" style="vector-effect: none; stroke-width: 2px; stroke: rgb(149, 55, 29); stroke-opacity: 1; fill: rgb(149, 55, 29); fill-opacity: 0.5;"/><g class="points"><path class="point" transform="translate(377.71,172.57)" d="M3,0A3,3 0 1,1 0,-3A3,3 0 0,1 3,0Z" style="opacity: 1; stroke-width: 0px; fill: rgb(149, 55, 29); fill-opacity: 1;"/><path class="point" transform="translate(377.71,158.75)" d="M3,0A3,3 0 1,1 0,-3A3,3 0 0,1 3,0Z" style="opacity: 1; stroke-width: 0px; fill: rgb(149, 55, 29); fill-opacity: 1;"/><path class="point" transform="translate(377.71,155.18)" d="M3,0A3,3 0 1,1 0,-3A3,3 0 0,1 3,0Z" style="opacity: 1; stroke-width: 0px; fill: rgb(149, 55, 29); fill-opacity: 1;"/><path class="point" transform="translate(377.71,148.27)" d="M3,0A3,3 0 1,1 0,-3A3,3 0 0,1 3,0Z" style="opacity: 1; stroke-width: 0px; fill: rgb(149, 55, 29); fill-opacity: 1;"/><path class="point" transform="translate(377.71,109.52)" d="M3,0A3,3 0 1,1 0,-3A3,3 0 0,1 3,0Z" style="opacity: 1; stroke-width: 0px; fill: rgb(149, 55, 29); fill-opacity: 1;"/></g></g></g></g></g><g class="zerolinelayer-above"/><path class="xlines-above crisp" d="M0,0" style="fill: none;"/><path class="ylines-above crisp" d="M0,0" style="fill: none;"/><g class="overlines-above"/><g class="xaxislayer-above"/><g class="yaxislayer-above"><g class="ytick"><text text-anchor="end" x="63" y="5.25" transform="translate(0,453.38)" style="font-family: Inter, Roboto, Arial, sans-serif; font-size: 15px; fill: rgb(34, 34, 34); fill-opacity: 1; white-space: pre;">−50</text></g><g class="ytick"><text text-anchor="end" x="63" y="5.25" style="font-family: Inter, Roboto, Arial, sans-serif; font-size: 15px; fill: rgb(34, 34, 34); fill-opacity: 1; white-space: pre;" transform="translate(0,397.59)">0</text></g><g class="ytick"><text text-anchor="end" x="63" y="5.25" style="font-family: Inter, Roboto, Arial, sans-serif; font-size: 15px; fill: rgb(34, 34, 34); fill-opacity: 1; white-space: pre;" transform="translate(0,341.8)">50</text></g><g class="ytick"><text text-anchor="end" x="63" y="5.25" style="font-family: Inter, Roboto, Arial, sans-serif; font-size: 15px; fill: rgb(34, 34, 34); fill-opacity: 1; white-space: pre;" transform="translate(0,286.01)">100</text></g><g class="ytick"><text text-anchor="end" x="63" y="5.25" style="font-family: Inter, Roboto, Arial, sans-serif; font-size: 15px; fill: rgb(34, 34, 34); fill-opacity: 1; white-space: pre;" transform="translate(0,230.22)">150</text></g><g class="ytick"><text text-anchor="end" x="63" y="5.25" style="font-family: Inter, Roboto, Arial, sans-serif; font-size: 15px; fill: rgb(34, 34, 34); fill-opacity: 1; white-space: pre;" transform="translate(0,174.43)">200</text></g><g class="ytick"><text text-anchor="end" x="63" y="5.25" style="font-family: Inter, Roboto, Arial, sans-serif; font-size: 15px; fill: rgb(34, 34, 34); fill-opacity: 1; white-space: pre;" transform="translate(0,118.63)">250</text></g></g><g class="overaxes-above"/></g><g class="subplot x2y2"><g class="layer-subplot"><g class="shapelayer"/><g class="imagelayer"/></g><g class="minor-gridlayer"><g class="x2"/><g class="y2"/></g><g class="gridlayer"><g class="x2"/><g class="y2"><path class="y2grid crisp" transform="translate(0,468.82)" d="M605.0749999999999,0h399.92500000000007" style="stroke: rgb(211, 211, 211); stroke-opacity: 1; stroke-width: 1px;"/><path class="y2grid crisp" transform="translate(0,380.65)" d="M605.0749999999999,0h399.92500000000007" style="stroke: rgb(211, 211, 211); stroke-opacity: 1; stroke-width: 1px;"/><path class="y2grid crisp" transform="translate(0,336.57)" d="M605.0749999999999,0h399.92500000000007" style="stroke: rgb(211, 211, 211); stroke-opacity: 1; stroke-width: 1px;"/><path class="y2grid crisp" transform="translate(0,292.49)" d="M605.0749999999999,0h399.92500000000007" style="stroke: rgb(211, 211, 211); stroke-opacity: 1; stroke-width: 1px;"/><path class="y2grid crisp" transform="translate(0,248.41)" d="M605.0749999999999,0h399.92500000000007" style="stroke: rgb(211, 211, 211); stroke-opacity: 1; stroke-width: 1px;"/><path class="y2grid crisp" transform="translate(0,204.32999999999998)" d="M605.0749999999999,0h399.92500000000007" style="stroke: rgb(211, 211, 211); stroke-opacity: 1; stroke-width: 1px;"/><path class="y2grid crisp" transform="translate(0,160.24)" d="M605.0749999999999,0h399.92500000000007" style="stroke: rgb(211, 211, 211); stroke-opacity: 1; stroke-width: 1px;"/><path class="y2grid crisp" transform="translate(0,116.16)" d="M605.0749999999999,0h399.92500000000007" style="stroke: rgb(211, 211, 211); stroke-opacity: 1; stroke-width: 1px;"/></g></g><g class="zerolinelayer"><path class="y2zl zl crisp" transform="translate(0,424.73)" d="M605.0749999999999,0h399.92500000000007" style="stroke: rgb(255, 255, 255); stroke-opacity: 1; stroke-width: 2px;"/></g><g class="layer-between"><g class="shapelayer"/><g class="imagelayer"/></g><path class="xlines-below"/><path class="ylines-below"/><g class="overlines-below"/><g class="xaxislayer-below"/><g class="yaxislayer-below"/><g class="overaxes-below"/><g class="overplot"><g class="x2y2" transform="translate(605.0749999999999,80)" clip-path="url(#clip30566ax2y2plot)"><g class="boxlayer mlayer"><g class="trace boxes" style="opacity: 1;"><path class="box" d="M11.33,328.57H33.1M11.33,342.79H33.1V314.61H11.33ZM22.22,342.79V344.73M22.22,314.61V278.61M16.77,344.73H27.66M16.77,278.61H27.66" style="vector-effect: none; stroke-width: 2px; stroke: rgb(160, 222, 205); stroke-opacity: 1; fill: rgb(160, 222, 205); fill-opacity: 0.5;"/><g class="points"><path class="point" transform="translate(22.22,256.57)" d="M3,0A3,3 0 1,1 0,-3A3,3 0 0,1 3,0Z" style="opacity: 1; stroke-width: 0px; fill: rgb(160, 222, 205); fill-opacity: 1;"/><path class="point" transform="translate(22.22,256.57)" d="M3,0A3,3 0 1,1 0,-3A3,3 0 0,1 3,0Z" style="opacity: 1; stroke-width: 0px; fill: rgb(160, 222, 205); fill-opacity: 1;"/><path class="point" transform="translate(22.22,212.49)" d="M3,0A3,3 0 1,1 0,-3A3,3 0 0,1 3,0Z" style="opacity: 1; stroke-width: 0px; fill: rgb(160, 222, 205); fill-opacity: 1;"/><path class="point" transform="translate(22.22,212.49)" d="M3,0A3,3 0 1,1 0,-3A3,3 0 0,1 3,0Z" style="opacity: 1; stroke-width: 0px; fill: rgb(160, 222, 205); fill-opacity: 1;"/></g></g><g class="trace boxes" style="opacity: 1;"><path class="box" d="M55.77,325.14H77.54M55.77,339.31H77.54V317.55H55.77ZM66.65,339.31V344.73M66.65,317.55V300.65M61.21,344.73H72.1M61.21,300.65H72.1" style="vector-effect: none; stroke-width: 2px; stroke: rgb(84, 196, 166); stroke-opacity: 1; fill: rgb(84, 196, 166); fill-opacity: 0.5;"/><g class="points"><path class="point" transform="translate(66.65,256.57)" d="M3,0A3,3 0 1,1 0,-3A3,3 0 0,1 3,0Z" style="opacity: 1; stroke-width: 0px; fill: rgb(84, 196, 166); fill-opacity: 1;"/></g></g><g class="trace boxes" style="opacity: 1;"><path class="box" d="M100.2,322.69H121.98M100.2,340.73H121.98V309.47H100.2ZM111.09,340.73V380M111.09,309.47V278.61M105.65,380H116.53M105.65,278.61H116.53" style="vector-effect: none; stroke-width: 2px; stroke: rgb(45, 132, 109); stroke-opacity: 1; fill: rgb(45, 132, 109); fill-opacity: 0.5;"/><g class="points"><path class="point" transform="translate(111.09,212.49)" d="M3,0A3,3 0 1,1 0,-3A3,3 0 0,1 3,0Z" style="opacity: 1; stroke-width: 0px; fill: rgb(45, 132, 109); fill-opacity: 1;"/></g></g><g class="trace boxes" style="opacity: 1;"><path class="box" d="M144.64,330.04H166.41M144.64,339.22H166.41V313.25H144.64ZM155.53,339.22V344.73M155.53,313.25V278.61M150.08,344.73H160.97M150.08,278.61H160.97" style="vector-effect: none; stroke-width: 2px; stroke: rgb(220, 202, 161); stroke-opacity: 1; fill: rgb(220, 202, 161); fill-opacity: 0.5;"/><g class="points"><path class="point" transform="translate(155.53,256.57)" d="M3,0A3,3 0 1,1 0,-3A3,3 0 0,1 3,0Z" style="opacity: 1; stroke-width: 0px; fill: rgb(220, 202, 161); fill-opacity: 1;"/><path class="point" transform="translate(155.53,256.57)" d="M3,0A3,3 0 1,1 0,-3A3,3 0 0,1 3,0Z" style="opacity: 1; stroke-width: 0px; fill: rgb(220, 202, 161); fill-opacity: 1;"/><path class="point" transform="translate(155.53,212.49)" d="M3,0A3,3 0 1,1 0,-3A3,3 0 0,1 3,0Z" style="opacity: 1; stroke-width: 0px; fill: rgb(220, 202, 161); fill-opacity: 1;"/><path class="point" transform="translate(155.53,124.33)" d="M3,0A3,3 0 1,1 0,-3A3,3 0 0,1 3,0Z" style="opacity: 1; stroke-width: 0px; fill: rgb(220, 202, 161); fill-opacity: 1;"/></g></g><g class="trace boxes" style="opacity: 1;"><path class="box" d="M189.08,327.65H210.85M189.08,336.65H210.85V300.65H189.08ZM199.96,336.65V344.73M199.96,300.65V256.57M194.52,344.73H205.41M194.52,256.57H205.41" style="vector-effect: none; stroke-width: 2px; stroke: rgb(193, 159, 87); stroke-opacity: 1; fill: rgb(193, 159, 87); fill-opacity: 0.5;"/><g class="points"><path class="point" transform="translate(199.96,234.53)" d="M3,0A3,3 0 1,1 0,-3A3,3 0 0,1 3,0Z" style="opacity: 1; stroke-width: 0px; fill: rgb(193, 159, 87); fill-opacity: 1;"/><path class="point" transform="translate(199.96,212.49)" d="M3,0A3,3 0 1,1 0,-3A3,3 0 0,1 3,0Z" style="opacity: 1; stroke-width: 0px; fill: rgb(193, 159, 87); fill-opacity: 1;"/><path class="point" transform="translate(199.96,168.41)" d="M3,0A3,3 0 1,1 0,-3A3,3 0 0,1 3,0Z" style="opacity: 1; stroke-width: 0px; fill: rgb(193, 159, 87); fill-opacity: 1;"/></g></g><g class="trace boxes" style="opacity: 1;"><path class="box" d="M233.51,329.01H255.29M233.51,337.95H255.29V300.65H233.51ZM244.4,337.95V344.73M244.4,300.65V256.57M238.96,344.73H249.84M238.96,256.57H249.84" style="vector-effect: none; stroke-width: 2px; stroke: rgb(130, 104, 48); stroke-opacity: 1; fill: rgb(130, 104, 48); fill-opacity: 0.5;"/><g class="points"><path class="point" transform="translate(244.4,212.49)" d="M3,0A3,3 0 1,1 0,-3A3,3 0 0,1 3,0Z" style="opacity: 1; stroke-width: 0px; fill: rgb(130, 104, 48); fill-opacity: 1;"/><path class="point" transform="translate(244.4,168.41)" d="M3,0A3,3 0 1,1 0,-3A3,3 0 0,1 3,0Z" style="opacity: 1; stroke-width: 0px; fill: rgb(130, 104, 48); fill-opacity: 1;"/><path class="point" transform="translate(244.4,80.24)" d="M3,0A3,3 0 1,1 0,-3A3,3 0 0,1 3,0Z" style="opacity: 1; stroke-width: 0px; fill: rgb(130, 104, 48); fill-opacity: 1;"/><path class="point" transform="translate(244.4,20)" d="M3,0A3,3 0 1,1 0,-3A3,3 0 0,1 3,0Z" style="opacity: 1; stroke-width: 0px; fill: rgb(130, 104, 48); fill-opacity: 1;"/></g></g><g class="trace boxes" style="opacity: 1;"><path class="box" d="M277.95,328.2H299.72M277.95,337.85H299.72V310.76H277.95ZM288.83,337.85V351.03M288.83,310.76V278.61M283.39,351.03H294.28M283.39,278.61H294.28" style="vector-effect: none; stroke-width: 2px; stroke: rgb(233, 167, 148); stroke-opacity: 1; fill: rgb(233, 167, 148); fill-opacity: 0.5;"/><g class="points"><path class="point" transform="translate(288.83,256.57)" d="M3,0A3,3 0 1,1 0,-3A3,3 0 0,1 3,0Z" style="opacity: 1; stroke-width: 0px; fill: rgb(233, 167, 148); fill-opacity: 1;"/><path class="point" transform="translate(288.83,256.57)" d="M3,0A3,3 0 1,1 0,-3A3,3 0 0,1 3,0Z" style="opacity: 1; stroke-width: 0px; fill: rgb(233, 167, 148); fill-opacity: 1;"/><path class="point" transform="translate(288.83,168.41)" d="M3,0A3,3 0 1,1 0,-3A3,3 0 0,1 3,0Z" style="opacity: 1; stroke-width: 0px; fill: rgb(233, 167, 148); fill-opacity: 1;"/></g></g><g class="trace boxes" style="opacity: 1;"><path class="box" d="M322.38,327.1H344.16M322.38,337.39H344.16V300.65H322.38ZM333.27,337.39V344.73M333.27,300.65V250.27M327.83,344.73H338.71M327.83,250.27H338.71" style="vector-effect: none; stroke-width: 2px; stroke: rgb(217, 96, 63); stroke-opacity: 1; fill: rgb(217, 96, 63); fill-opacity: 0.5;"/><g class="points"><path class="point" transform="translate(333.27,234.53)" d="M3,0A3,3 0 1,1 0,-3A3,3 0 0,1 3,0Z" style="opacity: 1; stroke-width: 0px; fill: rgb(217, 96, 63); fill-opacity: 1;"/><path class="point" transform="translate(333.27,212.49)" d="M3,0A3,3 0 1,1 0,-3A3,3 0 0,1 3,0Z" style="opacity: 1; stroke-width: 0px; fill: rgb(217, 96, 63); fill-opacity: 1;"/><path class="point" transform="translate(333.27,212.49)" d="M3,0A3,3 0 1,1 0,-3A3,3 0 0,1 3,0Z" style="opacity: 1; stroke-width: 0px; fill: rgb(217, 96, 63); fill-opacity: 1;"/></g></g><g class="trace boxes" style="opacity: 1;"><path class="box" d="M366.82,324.27H388.59M366.82,339.59H388.59V311.67H366.82ZM377.71,339.59V344.73M377.71,311.67V278.61M372.26,344.73H383.15M372.26,278.61H383.15" style="vector-effect: none; stroke-width: 2px; stroke: rgb(149, 55, 29); stroke-opacity: 1; fill: rgb(149, 55, 29); fill-opacity: 0.5;"/><g class="points"><path class="point" transform="translate(377.71,256.57)" d="M3,0A3,3 0 1,1 0,-3A3,3 0 0,1 3,0Z" style="opacity: 1; stroke-width: 0px; fill: rgb(149, 55, 29); fill-opacity: 1;"/><path class="point" transform="translate(377.71,256.57)" d="M3,0A3,3 0 1,1 0,-3A3,3 0 0,1 3,0Z" style="opacity: 1; stroke-width: 0px; fill: rgb(149, 55, 29); fill-opacity: 1;"/><path class="point" transform="translate(377.71,212.49)" d="M3,0A3,3 0 1,1 0,-3A3,3 0 0,1 3,0Z" style="opacity: 1; stroke-width: 0px; fill: rgb(149, 55, 29); fill-opacity: 1;"/><path class="point" transform="translate(377.71,212.49)" d="M3,0A3,3 0 1,1 0,-3A3,3 0 0,1 3,0Z" style="opacity: 1; stroke-width: 0px; fill: rgb(149, 55, 29); fill-opacity: 1;"/></g></g></g></g></g><g class="zerolinelayer-above"/><path class="xlines-above crisp" d="M0,0" style="fill: none;"/><path class="ylines-above crisp" d="M0,0" style="fill: none;"/><g class="overlines-above"/><g class="xaxislayer-above"/><g class="yaxislayer-above"><g class="y2tick"><text text-anchor="end" x="604.0749999999999" y="5.25" transform="translate(0,468.82)" style="font-family: Inter, Roboto, Arial, sans-serif; font-size: 15px; fill: rgb(34, 34, 34); fill-opacity: 1; white-space: pre;">−100</text></g><g class="y2tick"><text text-anchor="end" x="604.0749999999999" y="5.25" style="font-family: Inter, Roboto, Arial, sans-serif; font-size: 15px; fill: rgb(34, 34, 34); fill-opacity: 1; white-space: pre;" transform="translate(0,424.73)">0</text></g><g class="y2tick"><text text-anchor="end" x="604.0749999999999" y="5.25" style="font-family: Inter, Roboto, Arial, sans-serif; font-size: 15px; fill: rgb(34, 34, 34); fill-opacity: 1; white-space: pre;" transform="translate(0,380.65)">100</text></g><g class="y2tick"><text text-anchor="end" x="604.0749999999999" y="5.25" style="font-family: Inter, Roboto, Arial, sans-serif; font-size: 15px; fill: rgb(34, 34, 34); fill-opacity: 1; white-space: pre;" transform="translate(0,336.57)">200</text></g><g class="y2tick"><text text-anchor="end" x="604.0749999999999" y="5.25" style="font-family: Inter, Roboto, Arial, sans-serif; font-size: 15px; fill: rgb(34, 34, 34); fill-opacity: 1; white-space: pre;" transform="translate(0,292.49)">300</text></g><g class="y2tick"><text text-anchor="end" x="604.0749999999999" y="5.25" style="font-family: Inter, Roboto, Arial, sans-serif; font-size: 15px; fill: rgb(34, 34, 34); fill-opacity: 1; white-space: pre;" transform="translate(0,248.41)">400</text></g><g class="y2tick"><text text-anchor="end" x="604.0749999999999" y="5.25" style="font-family: Inter, Roboto, Arial, sans-serif; font-size: 15px; fill: rgb(34, 34, 34); fill-opacity: 1; white-space: pre;" transform="translate(0,204.32999999999998)">500</text></g><g class="y2tick"><text text-anchor="end" x="604.0749999999999" y="5.25" style="font-family: Inter, Roboto, Arial, sans-serif; font-size: 15px; fill: rgb(34, 34, 34); fill-opacity: 1; white-space: pre;" transform="translate(0,160.24)">600</text></g><g class="y2tick"><text text-anchor="end" x="604.0749999999999" y="5.25" style="font-family: Inter, Roboto, Arial, sans-serif; font-size: 15px; fill: rgb(34, 34, 34); fill-opacity: 1; white-space: pre;" transform="translate(0,116.16)">700</text></g></g><g class="overaxes-above"/></g></g><g class="polarlayer"/><g class="smithlayer"/><g class="ternarylayer"/><g class="geolayer"/><g class="funnelarealayer"/><g class="pielayer"/><g class="iciclelayer"/><g class="treemaplayer"/><g class="sunburstlayer"/><g class="glimages"/><defs id="topdefs-30566a"><g class="clips"/><clipPath id="legend30566a"><rect width="166" height="305" x="0" y="0"/></clipPath></defs><g class="layer-above"><g class="imagelayer"/><g class="shapelayer"/></g><g class="infolayer"><g class="legend" pointer-events="all" transform="translate(1023.82,80)"><rect class="bg" shape-rendering="crispEdges" style="stroke: rgb(68, 68, 68); stroke-opacity: 1; fill: rgb(255, 255, 255); fill-opacity: 0.9; stroke-width: 0px;" width="166" height="305" x="0" y="0"/><g class="scrollbox" transform="" clip-path="url(#legend30566a)"><g class="groups" transform=""><g class="traces" transform="translate(0,17.55)" style="opacity: 1;"><text class="legendtext" text-anchor="start" x="5" y="6.63" style="font-family: Inter, Roboto, Arial, sans-serif; font-size: 17px; fill: rgb(65, 189, 156); fill-opacity: 1; white-space: pre;"><tspan style="font-weight:bold">GPT 5.1 Codex Max</tspan></text><g class="layers"><g class="legendfill"/><g class="legendlines"/><g class="legendsymbols"><g class="legendpoints"/></g></g><rect class="legendtoggle" x="0" y="-12.55" width="160.84765625" height="25.1" style="fill: rgb(0, 0, 0); fill-opacity: 0;"/></g><g class="traces" transform="translate(0,40.050000000000004)" style="opacity: 1;"><text class="legendtext" text-anchor="start" x="40" y="5.07" style="font-family: Inter, Roboto, Arial, sans-serif; font-size: 13px; fill: rgb(34, 34, 34); fill-opacity: 1; white-space: pre;">No Thinking</text><g class="layers" style="opacity: 1;"><g class="legendfill"/><g class="legendlines"/><g class="legendsymbols"><g class="legendpoints"><path class="legendbox" d="M6,6H-6V-6H6Z" transform="translate(20,0)" style="stroke-width: 2px; fill: rgb(160, 222, 205); fill-opacity: 0.5; stroke: rgb(160, 222, 205); stroke-opacity: 1;"/></g></g></g><rect class="legendtoggle" x="0" y="-9.950000000000001" width="160.84765625" height="19.900000000000002" style="fill: rgb(0, 0, 0); fill-opacity: 0;"/></g><g class="traces" transform="translate(0,59.95)" style="opacity: 1;"><text class="legendtext" text-anchor="start" x="40" y="5.07" style="font-family: Inter, Roboto, Arial, sans-serif; font-size: 13px; fill: rgb(34, 34, 34); fill-opacity: 1; white-space: pre;">Low</text><g class="layers" style="opacity: 1;"><g class="legendfill"/><g class="legendlines"/><g class="legendsymbols"><g class="legendpoints"><path class="legendbox" d="M6,6H-6V-6H6Z" transform="translate(20,0)" style="stroke-width: 2px; fill: rgb(84, 196, 166); fill-opacity: 0.5; stroke: rgb(84, 196, 166); stroke-opacity: 1;"/></g></g></g><rect class="legendtoggle" x="0" y="-9.950000000000001" width="160.84765625" height="19.900000000000002" style="fill: rgb(0, 0, 0); fill-opacity: 0;"/></g><g class="traces" transform="translate(0,79.85000000000001)" style="opacity: 1;"><text class="legendtext" text-anchor="start" x="40" y="5.07" style="font-family: Inter, Roboto, Arial, sans-serif; font-size: 13px; fill: rgb(34, 34, 34); fill-opacity: 1; white-space: pre;">High</text><g class="layers" style="opacity: 1;"><g class="legendfill"/><g class="legendlines"/><g class="legendsymbols"><g class="legendpoints"><path class="legendbox" d="M6,6H-6V-6H6Z" transform="translate(20,0)" style="stroke-width: 2px; fill: rgb(45, 132, 109); fill-opacity: 0.5; stroke: rgb(45, 132, 109); stroke-opacity: 1;"/></g></g></g><rect class="legendtoggle" x="0" y="-9.950000000000001" width="160.84765625" height="19.900000000000002" style="fill: rgb(0, 0, 0); fill-opacity: 0;"/></g></g><g class="groups" transform="translate(0,20)"><g class="traces" transform="translate(0,102.35000000000001)" style="opacity: 1;"><text class="legendtext" text-anchor="start" x="5" y="6.63" style="font-family: Inter, Roboto, Arial, sans-serif; font-size: 17px; fill: rgb(194, 161, 91); fill-opacity: 1; white-space: pre;"><tspan style="font-weight:bold">GPT 5.2</tspan></text><g class="layers"><g class="legendfill"/><g class="legendlines"/><g class="legendsymbols"><g class="legendpoints"/></g></g><rect class="legendtoggle" x="0" y="-12.55" width="160.84765625" height="25.1" style="fill: rgb(0, 0, 0); fill-opacity: 0;"/></g><g class="traces" transform="translate(0,124.85000000000001)" style="opacity: 1;"><text class="legendtext" text-anchor="start" x="40" y="5.07" style="font-family: Inter, Roboto, Arial, sans-serif; font-size: 13px; fill: rgb(34, 34, 34); fill-opacity: 1; white-space: pre;">No Thinking</text><g class="layers" style="opacity: 1;"><g class="legendfill"/><g class="legendlines"/><g class="legendsymbols"><g class="legendpoints"><path class="legendbox" d="M6,6H-6V-6H6Z" transform="translate(20,0)" style="stroke-width: 2px; fill: rgb(220, 202, 161); fill-opacity: 0.5; stroke: rgb(220, 202, 161); stroke-opacity: 1;"/></g></g></g><rect class="legendtoggle" x="0" y="-9.950000000000001" width="160.84765625" height="19.900000000000002" style="fill: rgb(0, 0, 0); fill-opacity: 0;"/></g><g class="traces" transform="translate(0,144.75)" style="opacity: 1;"><text class="legendtext" text-anchor="start" x="40" y="5.07" style="font-family: Inter, Roboto, Arial, sans-serif; font-size: 13px; fill: rgb(34, 34, 34); fill-opacity: 1; white-space: pre;">Low</text><g class="layers" style="opacity: 1;"><g class="legendfill"/><g class="legendlines"/><g class="legendsymbols"><g class="legendpoints"><path class="legendbox" d="M6,6H-6V-6H6Z" transform="translate(20,0)" style="stroke-width: 2px; fill: rgb(193, 159, 87); fill-opacity: 0.5; stroke: rgb(193, 159, 87); stroke-opacity: 1;"/></g></g></g><rect class="legendtoggle" x="0" y="-9.950000000000001" width="160.84765625" height="19.900000000000002" style="fill: rgb(0, 0, 0); fill-opacity: 0;"/></g><g class="traces" transform="translate(0,164.65)" style="opacity: 1;"><text class="legendtext" text-anchor="start" x="40" y="5.07" style="font-family: Inter, Roboto, Arial, sans-serif; font-size: 13px; fill: rgb(34, 34, 34); fill-opacity: 1; white-space: pre;">High</text><g class="layers" style="opacity: 1;"><g class="legendfill"/><g class="legendlines"/><g class="legendsymbols"><g class="legendpoints"><path class="legendbox" d="M6,6H-6V-6H6Z" transform="translate(20,0)" style="stroke-width: 2px; fill: rgb(130, 104, 48); fill-opacity: 0.5; stroke: rgb(130, 104, 48); stroke-opacity: 1;"/></g></g></g><rect class="legendtoggle" x="0" y="-9.950000000000001" width="160.84765625" height="19.900000000000002" style="fill: rgb(0, 0, 0); fill-opacity: 0;"/></g></g><g class="groups" transform="translate(0,40)"><g class="traces" transform="translate(0,187.15000000000003)" style="opacity: 1;"><text class="legendtext" text-anchor="start" x="5" y="6.63" style="font-family: Inter, Roboto, Arial, sans-serif; font-size: 17px; fill: rgb(221, 114, 84); fill-opacity: 1; white-space: pre;"><tspan style="font-weight:bold">Opus 4.5</tspan></text><g class="layers"><g class="legendfill"/><g class="legendlines"/><g class="legendsymbols"><g class="legendpoints"/></g></g><rect class="legendtoggle" x="0" y="-12.55" width="160.84765625" height="25.1" style="fill: rgb(0, 0, 0); fill-opacity: 0;"/></g><g class="traces" transform="translate(0,209.65)" style="opacity: 1;"><text class="legendtext" text-anchor="start" x="40" y="5.07" style="font-family: Inter, Roboto, Arial, sans-serif; font-size: 13px; fill: rgb(34, 34, 34); fill-opacity: 1; white-space: pre;">No Thinking</text><g class="layers" style="opacity: 1;"><g class="legendfill"/><g class="legendlines"/><g class="legendsymbols"><g class="legendpoints"><path class="legendbox" d="M6,6H-6V-6H6Z" transform="translate(20,0)" style="stroke-width: 2px; fill: rgb(233, 167, 148); fill-opacity: 0.5; stroke: rgb(233, 167, 148); stroke-opacity: 1;"/></g></g></g><rect class="legendtoggle" x="0" y="-9.950000000000001" width="160.84765625" height="19.900000000000002" style="fill: rgb(0, 0, 0); fill-opacity: 0;"/></g><g class="traces" transform="translate(0,229.55)" style="opacity: 1;"><text class="legendtext" text-anchor="start" x="40" y="5.07" style="font-family: Inter, Roboto, Arial, sans-serif; font-size: 13px; fill: rgb(34, 34, 34); fill-opacity: 1; white-space: pre;">Low</text><g class="layers" style="opacity: 1;"><g class="legendfill"/><g class="legendlines"/><g class="legendsymbols"><g class="legendpoints"><path class="legendbox" d="M6,6H-6V-6H6Z" transform="translate(20,0)" style="stroke-width: 2px; fill: rgb(217, 96, 63); fill-opacity: 0.5; stroke: rgb(217, 96, 63); stroke-opacity: 1;"/></g></g></g><rect class="legendtoggle" x="0" y="-9.950000000000001" width="160.84765625" height="19.900000000000002" style="fill: rgb(0, 0, 0); fill-opacity: 0;"/></g><g class="traces" transform="translate(0,249.45000000000002)" style="opacity: 1;"><text class="legendtext" text-anchor="start" x="40" y="5.07" style="font-family: Inter, Roboto, Arial, sans-serif; font-size: 13px; fill: rgb(34, 34, 34); fill-opacity: 1; white-space: pre;">High</text><g class="layers" style="opacity: 1;"><g class="legendfill"/><g class="legendlines"/><g class="legendsymbols"><g class="legendpoints"><path class="legendbox" d="M6,6H-6V-6H6Z" transform="translate(20,0)" style="stroke-width: 2px; fill: rgb(149, 55, 29); fill-opacity: 0.5; stroke: rgb(149, 55, 29); stroke-opacity: 1;"/></g></g></g><rect class="legendtoggle" x="0" y="-9.950000000000001" width="160.84765625" height="19.900000000000002" style="fill: rgb(0, 0, 0); fill-opacity: 0;"/></g></g></g><rect class="scrollbar" rx="20" ry="3" width="0" height="0" style="fill: rgb(128, 139, 164); fill-opacity: 1;" x="0" y="0"/></g><g class="g-gtitle"><text class="gtitle" x="600" y="11.200000000000045" text-anchor="middle" dy="0.7em" style="opacity: 1; font-family: Inter, Roboto, Arial, sans-serif; font-size: 28px; fill: rgb(17, 17, 17); fill-opacity: 1; white-space: pre;">Code Churn &amp; Complexity</text></g><g class="g-xtitle"><text class="xtitle" x="263.9625" y="506.7" text-anchor="middle" style="opacity: 1; font-family: Inter, Roboto, Arial, sans-serif; font-size: 16px; fill: rgb(34, 34, 34); fill-opacity: 1; white-space: pre;">LOC Churn</text></g><g class="g-x2title"><text class="x2title" x="805.0374999999999" y="506.7" text-anchor="middle" style="opacity: 1; font-family: Inter, Roboto, Arial, sans-serif; font-size: 16px; fill: rgb(34, 34, 34); fill-opacity: 1; white-space: pre;">High Complexity Symbols</text></g><g class="g-ytitle" transform="translate(0.2373046875,0)"><text class="ytitle" transform="rotate(-90,16.762500000000003,280)" x="16.762500000000003" y="280" text-anchor="middle" style="opacity: 1; font-family: Inter, Roboto, Arial, sans-serif; font-size: 18px; fill: rgb(34, 34, 34); fill-opacity: 1; white-space: pre;">% Change</text></g><g class="g-y2title"/></g></svg>