<svg class="main-svg" xmlns="http://www.w3.org/2000/svg" xmlns:xlink="http://www.w3.org/1999/xlink" width="1200" height="500" style="" viewBox="0 0 1200 500"><rect x="0" y="0" width="1200" height="500" style="fill: rgb(255, 255, 255); fill-opacity: 1;"/><defs id="defs-96e396"><g class="clips"><clipPath id="clip96e396xyplot" class="plotclip"><rect width="263.47999999999996" height="401"/></clipPath><clipPath id="clip96e396x2y2plot" class="plotclip"><rect width="263.4799999999999" height="401"/></clipPath><clipPath id="clip96e396x3y3plot" class="plotclip"><rect width="263.48" height="401"/></clipPath><clipPath class="axesclip" id="clip96e396x"><rect x="64" y="0" width="263.47999999999996" height="500"/></clipPath><clipPath class="axesclip" id="clip96e396y"><rect x="0" y="80" width="1200" height="401"/></clipPath><clipPath class="axesclip" id="clip96e396xy"><rect x="64" y="80" width="263.47999999999996" height="401"/></clipPath><clipPath class="axesclip" id="clip96e396y2"><rect x="0" y="80" width="1200" height="401"/></clipPath><clipPath class="axesclip" id="clip96e396xy2"><rect x="64" y="80" width="263.47999999999996" height="401"/></clipPath><clipPath class="axesclip" id="clip96e396y3"><rect x="0" y="80" width="1200" height="401"/></clipPath><clipPath class="axesclip" id="clip96e396xy3"><rect x="64" y="80" width="263.47999999999996" height="401"/></clipPath><clipPath class="axesclip" id="clip96e396x2"><rect x="402.76" y="0" width="263.4799999999999" height="500"/></clipPath><clipPath class="axesclip" id="clip96e396x2y"><rect x="402.76" y="80" width="263.4799999999999" height="401"/></clipPath><clipPath class="axesclip" id="clip96e396x2y2"><rect x="402.76" y="80" width="263.4799999999999" height="401"/></clipPath><clipPath class="axesclip" id="clip96e396x2y3"><rect x="402.76" y="80" width="263.4799999999999" height="401"/></clipPath><clipPath class="axesclip" id="clip96e396x3"><rect x="741.52" y="0" width="263.48" height="500"/></clipPath><clipPath class="axesclip" id="clip96e396x3y"><rect x="741.52" y="80" width="263.48" height="401"/></clipPath><clipPath class="axesclip" id="clip96e396x3y2"><rect x="741.52" y="80" width="263.48" height="401"/></clipPath><clipPath class="axesclip" id="clip96e396x3y3"><rect x="741.52" y="80" width="263.48" height="401"/></clipPath></g><g class="gradients"/><g class="patterns"/></defs><g class="bglayer"/><g class="layer-below"><g class="imagelayer"/><g class="shapelayer"/></g><g class="cartesianlayer"><g class="subplot xy"><g class="layer-subplot"><g class="shapelayer"/><g class="imagelayer"/></g><g class="minor-gridlayer"><g class="x"/><g class="y"/></g><g class="gridlayer"><g class="x"/><g class="y"><path class="ygrid crisp" transform="translate(0,421.96)" d="M64,0h263.47999999999996" style="stroke: rgb(211, 211, 211); stroke-opacity: 1; stroke-width: 1px;"/><path class="ygrid crisp" transform="translate(0,362.91)" d="M64,0h263.47999999999996" style="stroke: rgb(211, 211, 211); stroke-opacity: 1; stroke-width: 1px;"/><path class="ygrid crisp" transform="translate(0,303.87)" d="M64,0h263.47999999999996" style="stroke: rgb(211, 211, 211); stroke-opacity: 1; stroke-width: 1px;"/><path class="ygrid crisp" transform="translate(0,244.83)" d="M64,0h263.47999999999996" style="stroke: rgb(211, 211, 211); stroke-opacity: 1; stroke-width: 1px;"/><path class="ygrid crisp" transform="translate(0,185.78)" d="M64,0h263.47999999999996" style="stroke: rgb(211, 211, 211); stroke-opacity: 1; stroke-width: 1px;"/><path class="ygrid crisp" transform="translate(0,126.74000000000001)" d="M64,0h263.47999999999996" style="stroke: rgb(211, 211, 211); stroke-opacity: 1; stroke-width: 1px;"/></g></g><g class="zerolinelayer"><path class="yzl zl crisp" transform="translate(0,481)" d="M64,0h263.47999999999996" style="stroke: rgb(255, 255, 255); stroke-opacity: 1; stroke-width: 2px;"/></g><g class="layer-between"><g class="shapelayer"/><g class="imagelayer"/></g><path class="xlines-below"/><path class="ylines-below"/><g class="overlines-below"/><g class="xaxislayer-below"/><g class="yaxislayer-below"/><g class="overaxes-below"/><g class="overplot"><g class="xy" transform="translate(64,80)" clip-path="url(#clip96e396xyplot)"><g class="barlayer mlayer"><g class="trace bars" style="opacity: 1;"><g class="points"><g class="point"><path d="M26.35,401V311.56H49.77V401Z" style="vector-effect: none; opacity: 1; stroke-width: 0.5px; fill: rgb(160, 222, 205); fill-opacity: 1; stroke: rgb(229, 236, 246); stroke-opacity: 1;"/><text class="bartext bartext-inside" text-anchor="middle" data-notex="1" x="0" y="0" style="font-family: Inter, Roboto, Arial, sans-serif; font-size: 15px; fill: rgb(68, 68, 68); fill-opacity: 1; white-space: pre;" transform="translate(38.06,319.03101690060157)scale(0.31935835004296764)">$151.49</text></g></g></g><g class="trace bars" style="opacity: 1;"><g class="points"><g class="point"><path d="M49.77,401V339.46H73.19V401Z" style="vector-effect: none; opacity: 1; stroke-width: 0.5px; fill: rgb(84, 196, 166); fill-opacity: 1; stroke: rgb(229, 236, 246); stroke-opacity: 1;"/><text class="bartext bartext-inside" text-anchor="middle" data-notex="1" x="0" y="0" style="font-family: Inter, Roboto, Arial, sans-serif; font-size: 15px; fill: rgb(68, 68, 68); fill-opacity: 1; white-space: pre;" transform="translate(61.39170837173035,346.8856950450131)scale(0.31612107464379374)">$104.24</text></g></g></g><g class="trace bars" style="opacity: 1;"><g class="points"><g class="point"><path d="M73.19,401V271.37H96.61V401Z" style="vector-effect: none; opacity: 1; stroke-width: 0.5px; fill: rgb(45, 132, 109); fill-opacity: 1; stroke: rgb(229, 236, 246); stroke-opacity: 1;"/><text class="bartext bartext-inside" text-anchor="middle" data-notex="1" x="0" y="0" style="font-family: Inter, Roboto, Arial, sans-serif; font-size: 15px; fill: rgb(255, 255, 255); fill-opacity: 1; white-space: pre;" transform="translate(84.9,278.8410169006016)scale(0.31935835004296764)">$219.55</text></g></g></g><g class="trace bars" style="opacity: 1;"><g class="points"><g class="point"><path d="M96.61,401V330.63H120.03V401Z" style="vector-effect: none; opacity: 1; stroke-width: 0.5px; fill: rgb(220, 202, 161); fill-opacity: 1; stroke: rgb(229, 236, 246); stroke-opacity: 1;"/><text class="bartext bartext-inside" text-anchor="middle" data-notex="1" x="0" y="0" style="font-family: Inter, Roboto, Arial, sans-serif; font-size: 15px; fill: rgb(68, 68, 68); fill-opacity: 1; white-space: pre;" transform="translate(108.32,338.10101690060156)scale(0.31935835004296764)">$119.18</text></g></g></g><g class="trace bars" style="opacity: 1;"><g class="points"><g class="point"><path d="M120.03,401V316.43H143.45V401Z" style="vector-effect: none; opacity: 1; stroke-width: 0.5px; fill: rgb(193, 159, 87); fill-opacity: 1; stroke: rgb(229, 236, 246); stroke-opacity: 1;"/><text class="bartext bartext-inside" text-anchor="middle" data-notex="1" x="0" y="0" style="font-family: Inter, Roboto, Arial, sans-serif; font-size: 15px; fill: rgb(68, 68, 68); fill-opacity: 1; white-space: pre;" transform="translate(131.65170837173036,323.85569504501314)scale(0.31612107464379363)">$143.24</text></g></g></g><g class="trace bars" style="opacity: 1;"><g class="points"><g class="point"><path d="M143.45,401V206.96H166.87V401Z" style="vector-effect: none; opacity: 1; stroke-width: 0.5px; fill: rgb(130, 104, 48); fill-opacity: 1; stroke: rgb(229, 236, 246); stroke-opacity: 1;"/><text class="bartext bartext-inside" text-anchor="middle" data-notex="1" x="0" y="0" style="font-family: Inter, Roboto, Arial, sans-serif; font-size: 15px; fill: rgb(255, 255, 255); fill-opacity: 1; white-space: pre;" transform="translate(155.07170837173035,214.38569504501314)scale(0.31612107464379413)">$328.64</text></g></g></g><g class="trace bars" style="opacity: 1;"><g class="points"><g class="point"><path d="M166.87,401V20.05H190.29V401Z" style="vector-effect: none; opacity: 1; stroke-width: 0.5px; fill: rgb(233, 167, 148); fill-opacity: 1; stroke: rgb(229, 236, 246); stroke-opacity: 1;"/><text class="bartext bartext-inside" text-anchor="middle" data-notex="1" x="0" y="0" style="font-family: Inter, Roboto, Arial, sans-serif; font-size: 15px; fill: rgb(68, 68, 68); fill-opacity: 1; white-space: pre;" transform="translate(178.57999999999998,27.521016900601545)scale(0.3193583500429674)">$645.21</text></g></g></g><g class="trace bars" style="opacity: 1;"><g class="points"><g class="point"><path d="M190.29,401V95.29H213.71V401Z" style="vector-effect: none; opacity: 1; stroke-width: 0.5px; fill: rgb(217, 96, 63); fill-opacity: 1; stroke: rgb(229, 236, 246); stroke-opacity: 1;"/><text class="bartext bartext-inside" text-anchor="middle" data-notex="1" x="0" y="0" style="font-family: Inter, Roboto, Arial, sans-serif; font-size: 15px; fill: rgb(68, 68, 68); fill-opacity: 1; white-space: pre;" transform="translate(202,102.76101690060156)scale(0.3193583500429679)">$517.78</text></g></g></g><g class="trace bars" style="opacity: 1;"><g class="points"><g class="point"><path d="M213.71,401V61.99H237.13V401Z" style="vector-effect: none; opacity: 1; stroke-width: 0.5px; fill: rgb(149, 55, 29); fill-opacity: 1; stroke: rgb(229, 236, 246); stroke-opacity: 1;"/><text class="bartext bartext-inside" text-anchor="middle" data-notex="1" x="0" y="0" style="font-family: Inter, Roboto, Arial, sans-serif; font-size: 15px; fill: rgb(255, 255, 255); fill-opacity: 1; white-space: pre;" transform="translate(225.42000000000002,69.46101690060155)scale(0.3193583500429674)">$574.18</text></g></g></g></g></g></g><g class="zerolinelayer-above"/><path class="xlines-above crisp" d="M0,0" style="fill: none;"/><path class="ylines-above crisp" d="M0,0" style="fill: none;"/><g class="overlines-above"/><g class="xaxislayer-above"/><g class="yaxislayer-above"><g class="ytick"><text text-anchor="end" x="63" y="5.25" transform="translate(0,481)" style="font-family: Inter, Roboto, Arial, sans-serif; font-size: 15px; fill: rgb(34, 34, 34); fill-opacity: 1; white-space: pre;">0</text></g><g class="ytick"><text text-anchor="end" x="63" y="5.25" style="font-family: Inter, Roboto, Arial, sans-serif; font-size: 15px; fill: rgb(34, 34, 34); fill-opacity: 1; white-space: pre;" transform="translate(0,421.96)">100</text></g><g class="ytick"><text text-anchor="end" x="63" y="5.25" style="font-family: Inter, Roboto, Arial, sans-serif; font-size: 15px; fill: rgb(34, 34, 34); fill-opacity: 1; white-space: pre;" transform="translate(0,362.91)">200</text></g><g class="ytick"><text text-anchor="end" x="63" y="5.25" style="font-family: Inter, Roboto, Arial, sans-serif; font-size: 15px; fill: rgb(34, 34, 34); fill-opacity: 1; white-space: pre;" transform="translate(0,303.87)">300</text></g><g class="ytick"><text text-anchor="end" x="63" y="5.25" style="font-family: Inter, Roboto, Arial, sans-serif; font-size: 15px; fill: rgb(34, 34, 34); fill-opacity: 1; white-space: pre;" transform="translate(0,244.83)">400</text></g><g class="ytick"><text text-anchor="end" x="63" y="5.25" style="font-family: Inter, Roboto, Arial, sans-serif; font-size: 15px; fill: rgb(34, 34, 34); fill-opacity: 1; white-space: pre;" transform="translate(0,185.78)">500</text></g><g class="ytick"><text text-anchor="end" x="63" y="5.25" style="font-family: Inter, Roboto, Arial, sans-serif; font-size: 15px; fill: rgb(34, 34, 34); fill-opacity: 1; white-space: pre;" transform="translate(0,126.74000000000001)">600</text></g></g><g class="overaxes-above"/></g><g class="subplot x2y2"><g class="layer-subplot"><g class="shapelayer"/><g class="imagelayer"/></g><g class="minor-gridlayer"><g class="x2"/><g class="y2"/></g><g class="gridlayer"><g class="x2"/><g class="y2"><path class="y2grid crisp" transform="translate(0,431.91)" d="M402.76,0h263.4799999999999" style="stroke: rgb(211, 211, 211); stroke-opacity: 1; stroke-width: 1px;"/><path class="y2grid crisp" transform="translate(0,382.82)" d="M402.76,0h263.4799999999999" style="stroke: rgb(211, 211, 211); stroke-opacity: 1; stroke-width: 1px;"/><path class="y2grid crisp" transform="translate(0,333.73)" d="M402.76,0h263.4799999999999" style="stroke: rgb(211, 211, 211); stroke-opacity: 1; stroke-width: 1px;"/><path class="y2grid crisp" transform="translate(0,284.64)" d="M402.76,0h263.4799999999999" style="stroke: rgb(211, 211, 211); stroke-opacity: 1; stroke-width: 1px;"/><path class="y2grid crisp" transform="translate(0,235.55)" d="M402.76,0h263.4799999999999" style="stroke: rgb(211, 211, 211); stroke-opacity: 1; stroke-width: 1px;"/><path class="y2grid crisp" transform="translate(0,186.45999999999998)" d="M402.76,0h263.4799999999999" style="stroke: rgb(211, 211, 211); stroke-opacity: 1; stroke-width: 1px;"/><path class="y2grid crisp" transform="translate(0,137.37)" d="M402.76,0h263.4799999999999" style="stroke: rgb(211, 211, 211); stroke-opacity: 1; stroke-width: 1px;"/><path class="y2grid crisp" transform="translate(0,88.28)" d="M402.76,0h263.4799999999999" style="stroke: rgb(211, 211, 211); stroke-opacity: 1; stroke-width: 1px;"/></g></g><g class="zerolinelayer"><path class="y2zl zl crisp" transform="translate(0,481)" d="M402.76,0h263.4799999999999" style="stroke: rgb(255, 255, 255); stroke-opacity: 1; stroke-width: 2px;"/></g><g class="layer-between"><g class="shapelayer"/><g class="imagelayer"/></g><path class="xlines-below"/><path class="ylines-below"/><g class="overlines-below"/><g class="xaxislayer-below"/><g class="yaxislayer-below"/><g class="overaxes-below"/><g class="overplot"><g class="x2y2" transform="translate(402.76,80)" clip-path="url(#clip96e396x2y2plot)"><g class="barlayer mlayer"><g class="trace bars" style="opacity: 1;"><g class="points"><g class="point"><path d="M26.35,401V153.96H49.77V401Z" style="vector-effect: none; opacity: 1; stroke-width: 0.5px; fill: rgb(160, 222, 205); fill-opacity: 1; stroke: rgb(229, 236, 246); stroke-opacity: 1;"/><text class="bartext bartext-inside" text-anchor="middle" data-notex="1" x="0" y="0" style="font-family: Inter, Roboto, Arial, sans-serif; font-size: 15px; fill: rgb(68, 68, 68); fill-opacity: 1; white-space: pre;" transform="translate(38.06,164.1494610778443)scale(0.5135329341317366)">2.5M</text></g></g></g><g class="trace bars" style="opacity: 1;"><g class="points"><g class="point"><path d="M49.77,401V237.13H73.19V401Z" style="vector-effect: none; opacity: 1; stroke-width: 0.5px; fill: rgb(84, 196, 166); fill-opacity: 1; stroke: rgb(229, 236, 246); stroke-opacity: 1;"/><text class="bartext bartext-inside" text-anchor="middle" data-notex="1" x="0" y="0" style="font-family: Inter, Roboto, Arial, sans-serif; font-size: 15px; fill: rgb(68, 68, 68); fill-opacity: 1; white-space: pre;" transform="translate(61.480000000000004,247.3194610778443)scale(0.5135329341317364)">1.7M</text></g></g></g><g class="trace bars" style="opacity: 1;"><g class="points"><g class="point"><path d="M73.19,401V54.08H96.61V401Z" style="vector-effect: none; opacity: 1; stroke-width: 0.5px; fill: rgb(45, 132, 109); fill-opacity: 1; stroke: rgb(229, 236, 246); stroke-opacity: 1;"/><text class="bartext bartext-inside" text-anchor="middle" data-notex="1" x="0" y="0" style="font-family: Inter, Roboto, Arial, sans-serif; font-size: 15px; fill: rgb(255, 255, 255); fill-opacity: 1; white-space: pre;" transform="translate(84.9,64.26946107784431)scale(0.5135329341317366)">3.5M</text></g></g></g><g class="trace bars" style="opacity: 1;"><g class="points"><g class="point"><path d="M96.61,401V289.31H120.03V401Z" style="vector-effect: none; opacity: 1; stroke-width: 0.5px; fill: rgb(220, 202, 161); fill-opacity: 1; stroke: rgb(229, 236, 246); stroke-opacity: 1;"/><text class="bartext bartext-inside" text-anchor="middle" data-notex="1" x="0" y="0" style="font-family: Inter, Roboto, Arial, sans-serif; font-size: 15px; fill: rgb(68, 68, 68); fill-opacity: 1; white-space: pre;" transform="translate(108.32,299.49946107784433)scale(0.5135329341317366)">1.1M</text></g></g></g><g class="trace bars" style="opacity: 1;"><g class="points"><g class="point"><path d="M120.03,401V287.06H143.45V401Z" style="vector-effect: none; opacity: 1; stroke-width: 0.5px; fill: rgb(193, 159, 87); fill-opacity: 1; stroke: rgb(229, 236, 246); stroke-opacity: 1;"/><text class="bartext bartext-inside" text-anchor="middle" data-notex="1" x="0" y="0" style="font-family: Inter, Roboto, Arial, sans-serif; font-size: 15px; fill: rgb(68, 68, 68); fill-opacity: 1; white-space: pre;" transform="translate(131.74,297.24946107784433)scale(0.5135329341317362)">1.2M</text></g></g></g><g class="trace bars" style="opacity: 1;"><g class="points"><g class="point"><path d="M143.45,401V124.52H166.87V401Z" style="vector-effect: none; opacity: 1; stroke-width: 0.5px; fill: rgb(130, 104, 48); fill-opacity: 1; stroke: rgb(229, 236, 246); stroke-opacity: 1;"/><text class="bartext bartext-inside" text-anchor="middle" data-notex="1" x="0" y="0" style="font-family: Inter, Roboto, Arial, sans-serif; font-size: 15px; fill: rgb(255, 255, 255); fill-opacity: 1; white-space: pre;" transform="translate(155.16,134.7094610778443)scale(0.513532934131737)">2.8M</text></g></g></g><g class="trace bars" style="opacity: 1;"><g class="points"><g class="point"><path d="M166.87,401V28.68H190.29V401Z" style="vector-effect: none; opacity: 1; stroke-width: 0.5px; fill: rgb(233, 167, 148); fill-opacity: 1; stroke: rgb(229, 236, 246); stroke-opacity: 1;"/><text class="bartext bartext-inside" text-anchor="middle" data-notex="1" x="0" y="0" style="font-family: Inter, Roboto, Arial, sans-serif; font-size: 15px; fill: rgb(68, 68, 68); fill-opacity: 1; white-space: pre;" transform="translate(178.57999999999998,38.869461077844306)scale(0.5135329341317362)">3.8M</text></g></g></g><g class="trace bars" style="opacity: 1;"><g class="points"><g class="point"><path d="M190.29,401V53.06H213.71V401Z" style="vector-effect: none; opacity: 1; stroke-width: 0.5px; fill: rgb(217, 96, 63); fill-opacity: 1; stroke: rgb(229, 236, 246); stroke-opacity: 1;"/><text class="bartext bartext-inside" text-anchor="middle" data-notex="1" x="0" y="0" style="font-family: Inter, Roboto, Arial, sans-serif; font-size: 15px; fill: rgb(68, 68, 68); fill-opacity: 1; white-space: pre;" transform="translate(202,63.249461077844316)scale(0.513532934131737)">3.5M</text></g></g></g><g class="trace bars" style="opacity: 1;"><g class="points"><g class="point"><path d="M213.71,401V20.05H237.13V401Z" style="vector-effect: none; opacity: 1; stroke-width: 0.5px; fill: rgb(149, 55, 29); fill-opacity: 1; stroke: rgb(229, 236, 246); stroke-opacity: 1;"/><text class="bartext bartext-inside" text-anchor="middle" data-notex="1" x="0" y="0" style="font-family: Inter, Roboto, Arial, sans-serif; font-size: 15px; fill: rgb(255, 255, 255); fill-opacity: 1; white-space: pre;" transform="translate(225.42000000000002,30.239461077844307)scale(0.5135329341317362)">3.9M</text></g></g></g></g></g></g><g class="zerolinelayer-above"/><path class="xlines-above crisp" d="M0,0" style="fill: none;"/><path class="ylines-above crisp" d="M0,0" style="fill: none;"/><g class="overlines-above"/><g class="xaxislayer-above"/><g class="yaxislayer-above"><g class="y2tick"><text text-anchor="end" x="401.76" y="5.25" transform="translate(0,481)" style="font-family: Inter, Roboto, Arial, sans-serif; font-size: 15px; fill: rgb(34, 34, 34); fill-opacity: 1; white-space: pre;">0</text></g><g class="y2tick"><text text-anchor="end" x="401.76" y="5.25" style="font-family: Inter, Roboto, Arial, sans-serif; font-size: 15px; fill: rgb(34, 34, 34); fill-opacity: 1; white-space: pre;" transform="translate(0,431.91)">0.5M</text></g><g class="y2tick"><text text-anchor="end" x="401.76" y="5.25" style="font-family: Inter, Roboto, Arial, sans-serif; font-size: 15px; fill: rgb(34, 34, 34); fill-opacity: 1; white-space: pre;" transform="translate(0,382.82)">1M</text></g><g class="y2tick"><text text-anchor="end" x="401.76" y="5.25" style="font-family: Inter, Roboto, Arial, sans-serif; font-size: 15px; fill: rgb(34, 34, 34); fill-opacity: 1; white-space: pre;" transform="translate(0,333.73)">1.5M</text></g><g class="y2tick"><text text-anchor="end" x="401.76" y="5.25" style="font-family: Inter, Roboto, Arial, sans-serif; font-size: 15px; fill: rgb(34, 34, 34); fill-opacity: 1; white-space: pre;" transform="translate(0,284.64)">2M</text></g><g class="y2tick"><text text-anchor="end" x="401.76" y="5.25" style="font-family: Inter, Roboto, Arial, sans-serif; font-size: 15px; fill: rgb(34, 34, 34); fill-opacity: 1; white-space: pre;" transform="translate(0,235.55)">2.5M</text></g><g class="y2tick"><text text-anchor="end" x="401.76" y="5.25" style="font-family: Inter, Roboto, Arial, sans-serif; font-size: 15px; fill: rgb(34, 34, 34); fill-opacity: 1; white-space: pre;" transform="translate(0,186.45999999999998)">3M</text></g><g class="y2tick"><text text-anchor="end" x="401.76" y="5.25" style="font-family: Inter, Roboto, Arial, sans-serif; font-size: 15px; fill: rgb(34, 34, 34); fill-opacity: 1; white-space: pre;" transform="translate(0,137.37)">3.5M</text></g><g class="y2tick"><text text-anchor="end" x="401.76" y="5.25" style="font-family: Inter, Roboto, Arial, sans-serif; font-size: 15px; fill: rgb(34, 34, 34); fill-opacity: 1; white-space: pre;" transform="translate(0,88.28)">4M</text></g></g><g class="overaxes-above"/></g><g class="subplot x3y3"><g class="layer-subplot"><g class="shapelayer"/><g class="imagelayer"/></g><g class="minor-gridlayer"><g class="x3"/><g class="y3"/></g><g class="gridlayer"><g class="x3"/><g class="y3"><path class="y3grid crisp" transform="translate(0,397.13)" d="M741.52,0h263.48" style="stroke: rgb(211, 211, 211); stroke-opacity: 1; stroke-width: 1px;"/><path class="y3grid crisp" transform="translate(0,332.05)" d="M741.52,0h263.48" style="stroke: rgb(211, 211, 211); stroke-opacity: 1; stroke-width: 1px;"/><path class="y3grid crisp" transform="translate(0,266.98)" d="M741.52,0h263.48" style="stroke: rgb(211, 211, 211); stroke-opacity: 1; stroke-width: 1px;"/><path class="y3grid crisp" transform="translate(0,201.91)" d="M741.52,0h263.48" style="stroke: rgb(211, 211, 211); stroke-opacity: 1; stroke-width: 1px;"/><path class="y3grid crisp" transform="translate(0,136.82999999999998)" d="M741.52,0h263.48" style="stroke: rgb(211, 211, 211); stroke-opacity: 1; stroke-width: 1px;"/></g></g><g class="zerolinelayer"><path class="y3zl zl crisp" transform="translate(0,462.2)" d="M741.52,0h263.48" style="stroke: rgb(255, 255, 255); stroke-opacity: 1; stroke-width: 2px;"/></g><g class="layer-between"><g class="shapelayer"/><g class="imagelayer"/></g><path class="xlines-below"/><path class="ylines-below"/><g class="overlines-below"/><g class="xaxislayer-below"/><g class="yaxislayer-below"/><g class="overaxes-below"/><g class="overplot"><g class="x3y3" transform="translate(741.52,80)" clip-path="url(#clip96e396x3y3plot)"><g class="boxlayer mlayer"><g class="trace boxes" style="opacity: 1;"><path class="box" d="M7.47,356.51H21.81M7.47,372.39H21.81V338.38H7.47ZM14.64,372.39V380.52M14.64,338.38V296.49M11.05,380.52H18.22M11.05,296.49H18.22" style="vector-effect: none; stroke-width: 2px; stroke: rgb(160, 222, 205); stroke-opacity: 1; fill: rgb(160, 222, 205); fill-opacity: 0.5;"/><g class="points"><path class="point" transform="translate(14.64,282.4)" d="M3,0A3,3 0 1,1 0,-3A3,3 0 0,1 3,0Z" style="opacity: 1; stroke-width: 0px; fill: rgb(160, 222, 205); fill-opacity: 1;"/><path class="point" transform="translate(14.64,274.44)" d="M3,0A3,3 0 1,1 0,-3A3,3 0 0,1 3,0Z" style="opacity: 1; stroke-width: 0px; fill: rgb(160, 222, 205); fill-opacity: 1;"/><path class="point" transform="translate(14.64,218.71)" d="M3,0A3,3 0 1,1 0,-3A3,3 0 0,1 3,0Z" style="opacity: 1; stroke-width: 0px; fill: rgb(160, 222, 205); fill-opacity: 1;"/><path class="point" transform="translate(14.64,216.96)" d="M3,0A3,3 0 1,1 0,-3A3,3 0 0,1 3,0Z" style="opacity: 1; stroke-width: 0px; fill: rgb(160, 222, 205); fill-opacity: 1;"/><path class="point" transform="translate(14.64,194.91)" d="M3,0A3,3 0 1,1 0,-3A3,3 0 0,1 3,0Z" style="opacity: 1; stroke-width: 0px; fill: rgb(160, 222, 205); fill-opacity: 1;"/><path class="point" transform="translate(14.64,168.38)" d="M3,0A3,3 0 1,1 0,-3A3,3 0 0,1 3,0Z" style="opacity: 1; stroke-width: 0px; fill: rgb(160, 222, 205); fill-opacity: 1;"/><path class="point" transform="translate(14.64,20.05)" d="M3,0A3,3 0 1,1 0,-3A3,3 0 0,1 3,0Z" style="opacity: 1; stroke-width: 0px; fill: rgb(160, 222, 205); fill-opacity: 1;"/></g></g><g class="trace boxes" style="opacity: 1;"><path class="box" d="M36.74,356.49H51.09M36.74,368.63H51.09V336.24H36.74ZM43.91,368.63V380.79M43.91,336.24V290.25M40.33,380.79H47.5M40.33,290.25H47.5" style="vector-effect: none; stroke-width: 2px; stroke: rgb(84, 196, 166); stroke-opacity: 1; fill: rgb(84, 196, 166); fill-opacity: 0.5;"/><g class="points"><path class="point" transform="translate(43.91,282.06)" d="M3,0A3,3 0 1,1 0,-3A3,3 0 0,1 3,0Z" style="opacity: 1; stroke-width: 0px; fill: rgb(84, 196, 166); fill-opacity: 1;"/><path class="point" transform="translate(43.91,266.23)" d="M3,0A3,3 0 1,1 0,-3A3,3 0 0,1 3,0Z" style="opacity: 1; stroke-width: 0px; fill: rgb(84, 196, 166); fill-opacity: 1;"/><path class="point" transform="translate(43.91,257.95)" d="M3,0A3,3 0 1,1 0,-3A3,3 0 0,1 3,0Z" style="opacity: 1; stroke-width: 0px; fill: rgb(84, 196, 166); fill-opacity: 1;"/><path class="point" transform="translate(43.91,257.23)" d="M3,0A3,3 0 1,1 0,-3A3,3 0 0,1 3,0Z" style="opacity: 1; stroke-width: 0px; fill: rgb(84, 196, 166); fill-opacity: 1;"/><path class="point" transform="translate(43.91,236.15)" d="M3,0A3,3 0 1,1 0,-3A3,3 0 0,1 3,0Z" style="opacity: 1; stroke-width: 0px; fill: rgb(84, 196, 166); fill-opacity: 1;"/><path class="point" transform="translate(43.91,196.95)" d="M3,0A3,3 0 1,1 0,-3A3,3 0 0,1 3,0Z" style="opacity: 1; stroke-width: 0px; fill: rgb(84, 196, 166); fill-opacity: 1;"/><path class="point" transform="translate(43.91,148.69)" d="M3,0A3,3 0 1,1 0,-3A3,3 0 0,1 3,0Z" style="opacity: 1; stroke-width: 0px; fill: rgb(84, 196, 166); fill-opacity: 1;"/></g></g><g class="trace boxes" style="opacity: 1;"><path class="box" d="M66.02,358.33H80.36M66.02,371.45H80.36V321.07H66.02ZM73.19,371.45V379.55M73.19,321.07V274.23M69.6,379.55H76.78M69.6,274.23H76.78" style="vector-effect: none; stroke-width: 2px; stroke: rgb(45, 132, 109); stroke-opacity: 1; fill: rgb(45, 132, 109); fill-opacity: 0.5;"/><g class="points"><path class="point" transform="translate(73.19,241.57)" d="M3,0A3,3 0 1,1 0,-3A3,3 0 0,1 3,0Z" style="opacity: 1; stroke-width: 0px; fill: rgb(45, 132, 109); fill-opacity: 1;"/><path class="point" transform="translate(73.19,239.48)" d="M3,0A3,3 0 1,1 0,-3A3,3 0 0,1 3,0Z" style="opacity: 1; stroke-width: 0px; fill: rgb(45, 132, 109); fill-opacity: 1;"/><path class="point" transform="translate(73.19,232.98)" d="M3,0A3,3 0 1,1 0,-3A3,3 0 0,1 3,0Z" style="opacity: 1; stroke-width: 0px; fill: rgb(45, 132, 109); fill-opacity: 1;"/><path class="point" transform="translate(73.19,214.69)" d="M3,0A3,3 0 1,1 0,-3A3,3 0 0,1 3,0Z" style="opacity: 1; stroke-width: 0px; fill: rgb(45, 132, 109); fill-opacity: 1;"/><path class="point" transform="translate(73.19,209.59)" d="M3,0A3,3 0 1,1 0,-3A3,3 0 0,1 3,0Z" style="opacity: 1; stroke-width: 0px; fill: rgb(45, 132, 109); fill-opacity: 1;"/><path class="point" transform="translate(73.19,178.52)" d="M3,0A3,3 0 1,1 0,-3A3,3 0 0,1 3,0Z" style="opacity: 1; stroke-width: 0px; fill: rgb(45, 132, 109); fill-opacity: 1;"/><path class="point" transform="translate(73.19,162.37)" d="M3,0A3,3 0 1,1 0,-3A3,3 0 0,1 3,0Z" style="opacity: 1; stroke-width: 0px; fill: rgb(45, 132, 109); fill-opacity: 1;"/></g></g><g class="trace boxes" style="opacity: 1;"><path class="box" d="M95.29,367.06H109.64M95.29,374.42H109.64V349.27H95.29ZM102.46,374.42V380.24M102.46,349.27V314.71M98.88,380.24H106.05M98.88,314.71H106.05" style="vector-effect: none; stroke-width: 2px; stroke: rgb(220, 202, 161); stroke-opacity: 1; fill: rgb(220, 202, 161); fill-opacity: 0.5;"/><g class="points"><path class="point" transform="translate(102.46,310.77)" d="M3,0A3,3 0 1,1 0,-3A3,3 0 0,1 3,0Z" style="opacity: 1; stroke-width: 0px; fill: rgb(220, 202, 161); fill-opacity: 1;"/><path class="point" transform="translate(102.46,304.14)" d="M3,0A3,3 0 1,1 0,-3A3,3 0 0,1 3,0Z" style="opacity: 1; stroke-width: 0px; fill: rgb(220, 202, 161); fill-opacity: 1;"/><path class="point" transform="translate(102.46,294.53)" d="M3,0A3,3 0 1,1 0,-3A3,3 0 0,1 3,0Z" style="opacity: 1; stroke-width: 0px; fill: rgb(220, 202, 161); fill-opacity: 1;"/><path class="point" transform="translate(102.46,290.94)" d="M3,0A3,3 0 1,1 0,-3A3,3 0 0,1 3,0Z" style="opacity: 1; stroke-width: 0px; fill: rgb(220, 202, 161); fill-opacity: 1;"/><path class="point" transform="translate(102.46,276.88)" d="M3,0A3,3 0 1,1 0,-3A3,3 0 0,1 3,0Z" style="opacity: 1; stroke-width: 0px; fill: rgb(220, 202, 161); fill-opacity: 1;"/><path class="point" transform="translate(102.46,260.09)" d="M3,0A3,3 0 1,1 0,-3A3,3 0 0,1 3,0Z" style="opacity: 1; stroke-width: 0px; fill: rgb(220, 202, 161); fill-opacity: 1;"/></g></g><g class="trace boxes" style="opacity: 1;"><path class="box" d="M124.57,365.37H138.91M124.57,374.3H138.91V343.81H124.57ZM131.74,374.3V380.27M131.74,343.81V300.6M128.15,380.27H135.33M128.15,300.6H135.33" style="vector-effect: none; stroke-width: 2px; stroke: rgb(193, 159, 87); stroke-opacity: 1; fill: rgb(193, 159, 87); fill-opacity: 0.5;"/><g class="points"><path class="point" transform="translate(131.74,289.33)" d="M3,0A3,3 0 1,1 0,-3A3,3 0 0,1 3,0Z" style="opacity: 1; stroke-width: 0px; fill: rgb(193, 159, 87); fill-opacity: 1;"/><path class="point" transform="translate(131.74,276.04)" d="M3,0A3,3 0 1,1 0,-3A3,3 0 0,1 3,0Z" style="opacity: 1; stroke-width: 0px; fill: rgb(193, 159, 87); fill-opacity: 1;"/><path class="point" transform="translate(131.74,270.16)" d="M3,0A3,3 0 1,1 0,-3A3,3 0 0,1 3,0Z" style="opacity: 1; stroke-width: 0px; fill: rgb(193, 159, 87); fill-opacity: 1;"/><path class="point" transform="translate(131.74,261.66)" d="M3,0A3,3 0 1,1 0,-3A3,3 0 0,1 3,0Z" style="opacity: 1; stroke-width: 0px; fill: rgb(193, 159, 87); fill-opacity: 1;"/><path class="point" transform="translate(131.74,163.5)" d="M3,0A3,3 0 1,1 0,-3A3,3 0 0,1 3,0Z" style="opacity: 1; stroke-width: 0px; fill: rgb(193, 159, 87); fill-opacity: 1;"/></g></g><g class="trace boxes" style="opacity: 1;"><path class="box" d="M153.84,366.08H168.19M153.84,375.44H168.19V347.22H153.84ZM161.02,375.44V379.89M161.02,347.22V322.63M157.43,379.89H164.6M157.43,322.63H164.6" style="vector-effect: none; stroke-width: 2px; stroke: rgb(130, 104, 48); stroke-opacity: 1; fill: rgb(130, 104, 48); fill-opacity: 0.5;"/><g class="points"><path class="point" transform="translate(161.02,300.61)" d="M3,0A3,3 0 1,1 0,-3A3,3 0 0,1 3,0Z" style="opacity: 1; stroke-width: 0px; fill: rgb(130, 104, 48); fill-opacity: 1;"/><path class="point" transform="translate(161.02,297.95)" d="M3,0A3,3 0 1,1 0,-3A3,3 0 0,1 3,0Z" style="opacity: 1; stroke-width: 0px; fill: rgb(130, 104, 48); fill-opacity: 1;"/><path class="point" transform="translate(161.02,239.4)" d="M3,0A3,3 0 1,1 0,-3A3,3 0 0,1 3,0Z" style="opacity: 1; stroke-width: 0px; fill: rgb(130, 104, 48); fill-opacity: 1;"/><path class="point" transform="translate(161.02,187.81)" d="M3,0A3,3 0 1,1 0,-3A3,3 0 0,1 3,0Z" style="opacity: 1; stroke-width: 0px; fill: rgb(130, 104, 48); fill-opacity: 1;"/></g></g><g class="trace boxes" style="opacity: 1;"><path class="box" d="M183.12,364.33H197.46M183.12,373.77H197.46V340.22H183.12ZM190.29,373.77V380.28M190.29,340.22V306.1M186.7,380.28H193.88M186.7,306.1H193.88" style="vector-effect: none; stroke-width: 2px; stroke: rgb(233, 167, 148); stroke-opacity: 1; fill: rgb(233, 167, 148); fill-opacity: 0.5;"/><g class="points"><path class="point" transform="translate(190.29,283.94)" d="M3,0A3,3 0 1,1 0,-3A3,3 0 0,1 3,0Z" style="opacity: 1; stroke-width: 0px; fill: rgb(233, 167, 148); fill-opacity: 1;"/><path class="point" transform="translate(190.29,283.23)" d="M3,0A3,3 0 1,1 0,-3A3,3 0 0,1 3,0Z" style="opacity: 1; stroke-width: 0px; fill: rgb(233, 167, 148); fill-opacity: 1;"/></g></g><g class="trace boxes" style="opacity: 1;"><path class="box" d="M212.39,366.31H226.74M212.39,374.32H226.74V351.73H212.39ZM219.57,374.32V380.95M219.57,351.73V324.03M215.98,380.95H223.15M215.98,324.03H223.15" style="vector-effect: none; stroke-width: 2px; stroke: rgb(217, 96, 63); stroke-opacity: 1; fill: rgb(217, 96, 63); fill-opacity: 0.5;"/><g class="points"><path class="point" transform="translate(219.57,311)" d="M3,0A3,3 0 1,1 0,-3A3,3 0 0,1 3,0Z" style="opacity: 1; stroke-width: 0px; fill: rgb(217, 96, 63); fill-opacity: 1;"/><path class="point" transform="translate(219.57,308.25)" d="M3,0A3,3 0 1,1 0,-3A3,3 0 0,1 3,0Z" style="opacity: 1; stroke-width: 0px; fill: rgb(217, 96, 63); fill-opacity: 1;"/><path class="point" transform="translate(219.57,293.01)" d="M3,0A3,3 0 1,1 0,-3A3,3 0 0,1 3,0Z" style="opacity: 1; stroke-width: 0px; fill: rgb(217, 96, 63); fill-opacity: 1;"/><path class="point" transform="translate(219.57,288.61)" d="M3,0A3,3 0 1,1 0,-3A3,3 0 0,1 3,0Z" style="opacity: 1; stroke-width: 0px; fill: rgb(217, 96, 63); fill-opacity: 1;"/><path class="point" transform="translate(219.57,260.55)" d="M3,0A3,3 0 1,1 0,-3A3,3 0 0,1 3,0Z" style="opacity: 1; stroke-width: 0px; fill: rgb(217, 96, 63); fill-opacity: 1;"/></g></g><g class="trace boxes" style="opacity: 1;"><path class="box" d="M241.67,360.57H256.01M241.67,372.15H256.01V328.76H241.67ZM248.84,372.15V380.3M248.84,328.76V268.52M245.26,380.3H252.43M245.26,268.52H252.43" style="vector-effect: none; stroke-width: 2px; stroke: rgb(149, 55, 29); stroke-opacity: 1; fill: rgb(149, 55, 29); fill-opacity: 0.5;"/><g class="points"><path class="point" transform="translate(248.84,238.55)" d="M3,0A3,3 0 1,1 0,-3A3,3 0 0,1 3,0Z" style="opacity: 1; stroke-width: 0px; fill: rgb(149, 55, 29); fill-opacity: 1;"/><path class="point" transform="translate(248.84,235.53)" d="M3,0A3,3 0 1,1 0,-3A3,3 0 0,1 3,0Z" style="opacity: 1; stroke-width: 0px; fill: rgb(149, 55, 29); fill-opacity: 1;"/><path class="point" transform="translate(248.84,232.29)" d="M3,0A3,3 0 1,1 0,-3A3,3 0 0,1 3,0Z" style="opacity: 1; stroke-width: 0px; fill: rgb(149, 55, 29); fill-opacity: 1;"/><path class="point" transform="translate(248.84,211.6)" d="M3,0A3,3 0 1,1 0,-3A3,3 0 0,1 3,0Z" style="opacity: 1; stroke-width: 0px; fill: rgb(149, 55, 29); fill-opacity: 1;"/><path class="point" transform="translate(248.84,163.71)" d="M3,0A3,3 0 1,1 0,-3A3,3 0 0,1 3,0Z" style="opacity: 1; stroke-width: 0px; fill: rgb(149, 55, 29); fill-opacity: 1;"/></g></g></g></g></g><g class="zerolinelayer-above"/><path class="xlines-above crisp" d="M0,0" style="fill: none;"/><path class="ylines-above crisp" d="M0,0" style="fill: none;"/><g class="overlines-above"/><g class="xaxislayer-above"/><g class="yaxislayer-above"><g class="y3tick"><text text-anchor="end" x="740.52" y="5.25" transform="translate(0,462.2)" style="font-family: Inter, Roboto, Arial, sans-serif; font-size: 15px; fill: rgb(34, 34, 34); fill-opacity: 1; white-space: pre;">0</text></g><g class="y3tick"><text text-anchor="end" x="740.52" y="5.25" style="font-family: Inter, Roboto, Arial, sans-serif; font-size: 15px; fill: rgb(34, 34, 34); fill-opacity: 1; white-space: pre;" transform="translate(0,397.13)">10</text></g><g class="y3tick"><text text-anchor="end" x="740.52" y="5.25" style="font-family: Inter, Roboto, Arial, sans-serif; font-size: 15px; fill: rgb(34, 34, 34); fill-opacity: 1; white-space: pre;" transform="translate(0,332.05)">20</text></g><g class="y3tick"><text text-anchor="end" x="740.52" y="5.25" style="font-family: Inter, Roboto, Arial, sans-serif; font-size: 15px; fill: rgb(34, 34, 34); fill-opacity: 1; white-space: pre;" transform="translate(0,266.98)">30</text></g><g class="y3tick"><text text-anchor="end" x="740.52" y="5.25" style="font-family: Inter, Roboto, Arial, sans-serif; font-size: 15px; fill: rgb(34, 34, 34); fill-opacity: 1; white-space: pre;" transform="translate(0,201.91)">40</text></g><g class="y3tick"><text text-anchor="end" x="740.52" y="5.25" style="font-family: Inter, Roboto, Arial, sans-serif; font-size: 15px; fill: rgb(34, 34, 34); fill-opacity: 1; white-space: pre;" transform="translate(0,136.82999999999998)">50</text></g></g><g class="overaxes-above"/></g></g><g class="polarlayer"/><g class="smithlayer"/><g class="ternarylayer"/><g class="geolayer"/><g class="funnelarealayer"/><g class="pielayer"/><g class="iciclelayer"/><g class="treemaplayer"/><g class="sunburstlayer"/><g class="glimages"/><defs id="topdefs-96e396"><g class="clips"/><clipPath id="legend96e396"><rect width="166" height="305" x="0" y="0"/></clipPath></defs><g class="layer-above"><g class="imagelayer"/><g class="shapelayer"/></g><g class="infolayer"><g class="legend" pointer-events="all" transform="translate(1023.82,80)"><rect class="bg" shape-rendering="crispEdges" style="stroke: rgb(68, 68, 68); stroke-opacity: 1; fill: rgb(255, 255, 255); fill-opacity: 0.9; stroke-width: 0px;" width="166" height="305" x="0" y="0"/><g class="scrollbox" transform="" clip-path="url(#legend96e396)"><g class="groups" transform=""><g class="traces" transform="translate(0,17.55)" style="opacity: 1;"><text class="legendtext" text-anchor="start" x="5" y="6.63" style="font-family: Inter, Roboto, Arial, sans-serif; font-size: 17px; fill: rgb(65, 189, 156); fill-opacity: 1; white-space: pre;"><tspan style="font-weight:bold">GPT 5.1 Codex Max</tspan></text><g class="layers"><g class="legendfill"/><g class="legendlines"/><g class="legendsymbols"><g class="legendpoints"/></g></g><rect class="legendtoggle" x="0" y="-12.55" width="160.84765625" height="25.1" style="fill: rgb(0, 0, 0); fill-opacity: 0;"/></g><g class="traces" transform="translate(0,40.050000000000004)" style="opacity: 1;"><text class="legendtext" text-anchor="start" x="40" y="5.07" style="font-family: Inter, Roboto, Arial, sans-serif; font-size: 13px; fill: rgb(34, 34, 34); fill-opacity: 1; white-space: pre;">No Thinking</text><g class="layers" style="opacity: 1;"><g class="legendfill"/><g class="legendlines"/><g class="legendsymbols"><g class="legendpoints"><path class="legendundefined" d="M6,6H-6V-6H6Z" transform="translate(20,0)" style="stroke-width: 0.5px; fill: rgb(160, 222, 205); fill-opacity: 1; stroke: rgb(229, 236, 246); stroke-opacity: 1;"/></g></g></g><rect class="legendtoggle" x="0" y="-9.950000000000001" width="160.84765625" height="19.900000000000002" style="fill: rgb(0, 0, 0); fill-opacity: 0;"/></g><g class="traces" transform="translate(0,59.95)" style="opacity: 1;"><text class="legendtext" text-anchor="start" x="40" y="5.07" style="font-family: Inter, Roboto, Arial, sans-serif; font-size: 13px; fill: rgb(34, 34, 34); fill-opacity: 1; white-space: pre;">Low</text><g class="layers" style="opacity: 1;"><g class="legendfill"/><g class="legendlines"/><g class="legendsymbols"><g class="legendpoints"><path class="legendundefined" d="M6,6H-6V-6H6Z" transform="translate(20,0)" style="stroke-width: 0.5px; fill: rgb(84, 196, 166); fill-opacity: 1; stroke: rgb(229, 236, 246); stroke-opacity: 1;"/></g></g></g><rect class="legendtoggle" x="0" y="-9.950000000000001" width="160.84765625" height="19.900000000000002" style="fill: rgb(0, 0, 0); fill-opacity: 0;"/></g><g class="traces" transform="translate(0,79.85000000000001)" style="opacity: 1;"><text class="legendtext" text-anchor="start" x="40" y="5.07" style="font-family: Inter, Roboto, Arial, sans-serif; font-size: 13px; fill: rgb(34, 34, 34); fill-opacity: 1; white-space: pre;">High</text><g class="layers" style="opacity: 1;"><g class="legendfill"/><g class="legendlines"/><g class="legendsymbols"><g class="legendpoints"><path class="legendundefined" d="M6,6H-6V-6H6Z" transform="translate(20,0)" style="stroke-width: 0.5px; fill: rgb(45, 132, 109); fill-opacity: 1; stroke: rgb(229, 236, 246); stroke-opacity: 1;"/></g></g></g><rect class="legendtoggle" x="0" y="-9.950000000000001" width="160.84765625" height="19.900000000000002" style="fill: rgb(0, 0, 0); fill-opacity: 0;"/></g></g><g class="groups" transform="translate(0,20)"><g class="traces" transform="translate(0,102.35000000000001)" style="opacity: 1;"><text class="legendtext" text-anchor="start" x="5" y="6.63" style="font-family: Inter, Roboto, Arial, sans-serif; font-size: 17px; fill: rgb(194, 161, 91); fill-opacity: 1; white-space: pre;"><tspan style="font-weight:bold">GPT 5.2</tspan></text><g class="layers"><g class="legendfill"/><g class="legendlines"/><g class="legendsymbols"><g class="legendpoints"/></g></g><rect class="legendtoggle" x="0" y="-12.55" width="160.84765625" height="25.1" style="fill: rgb(0, 0, 0); fill-opacity: 0;"/></g><g class="traces" transform="translate(0,124.85000000000001)" style="opacity: 1;"><text class="legendtext" text-anchor="start" x="40" y="5.07" style="font-family: Inter, Roboto, Arial, sans-serif; font-size: 13px; fill: rgb(34, 34, 34); fill-opacity: 1; white-space: pre;">No Thinking</text><g class="layers" style="opacity: 1;"><g class="legendfill"/><g class="legendlines"/><g class="legendsymbols"><g class="legendpoints"><path class="legendundefined" d="M6,6H-6V-6H6Z" transform="translate(20,0)" style="stroke-width: 0.5px; fill: rgb(220, 202, 161); fill-opacity: 1; stroke: rgb(229, 236, 246); stroke-opacity: 1;"/></g></g></g><rect class="legendtoggle" x="0" y="-9.950000000000001" width="160.84765625" height="19.900000000000002" style="fill: rgb(0, 0, 0); fill-opacity: 0;"/></g><g class="traces" transform="translate(0,144.75)" style="opacity: 1;"><text class="legendtext" text-anchor="start" x="40" y="5.07" style="font-family: Inter, Roboto, Arial, sans-serif; font-size: 13px; fill: rgb(34, 34, 34); fill-opacity: 1; white-space: pre;">Low</text><g class="layers" style="opacity: 1;"><g class="legendfill"/><g class="legendlines"/><g class="legendsymbols"><g class="legendpoints"><path class="legendundefined" d="M6,6H-6V-6H6Z" transform="translate(20,0)" style="stroke-width: 0.5px; fill: rgb(193, 159, 87); fill-opacity: 1; stroke: rgb(229, 236, 246); stroke-opacity: 1;"/></g></g></g><rect class="legendtoggle" x="0" y="-9.950000000000001" width="160.84765625" height="19.900000000000002" style="fill: rgb(0, 0, 0); fill-opacity: 0;"/></g><g class="traces" transform="translate(0,164.65)" style="opacity: 1;"><text class="legendtext" text-anchor="start" x="40" y="5.07" style="font-family: Inter, Roboto, Arial, sans-serif; font-size: 13px; fill: rgb(34, 34, 34); fill-opacity: 1; white-space: pre;">High</text><g class="layers" style="opacity: 1;"><g class="legendfill"/><g class="legendlines"/><g class="legendsymbols"><g class="legendpoints"><path class="legendundefined" d="M6,6H-6V-6H6Z" transform="translate(20,0)" style="stroke-width: 0.5px; fill: rgb(130, 104, 48); fill-opacity: 1; stroke: rgb(229, 236, 246); stroke-opacity: 1;"/></g></g></g><rect class="legendtoggle" x="0" y="-9.950000000000001" width="160.84765625" height="19.900000000000002" style="fill: rgb(0, 0, 0); fill-opacity: 0;"/></g></g><g class="groups" transform="translate(0,40)"><g class="traces" transform="translate(0,187.15000000000003)" style="opacity: 1;"><text class="legendtext" text-anchor="start" x="5" y="6.63" style="font-family: Inter, Roboto, Arial, sans-serif; font-size: 17px; fill: rgb(221, 114, 84); fill-opacity: 1; white-space: pre;"><tspan style="font-weight:bold">Opus 4.5</tspan></text><g class="layers"><g class="legendfill"/><g class="legendlines"/><g class="legendsymbols"><g class="legendpoints"/></g></g><rect class="legendtoggle" x="0" y="-12.55" width="160.84765625" height="25.1" style="fill: rgb(0, 0, 0); fill-opacity: 0;"/></g><g class="traces" transform="translate(0,209.65)" style="opacity: 1;"><text class="legendtext" text-anchor="start" x="40" y="5.07" style="font-family: Inter, Roboto, Arial, sans-serif; font-size: 13px; fill: rgb(34, 34, 34); fill-opacity: 1; white-space: pre;">No Thinking</text><g class="layers" style="opacity: 1;"><g class="legendfill"/><g class="legendlines"/><g class="legendsymbols"><g class="legendpoints"><path class="legendundefined" d="M6,6H-6V-6H6Z" transform="translate(20,0)" style="stroke-width: 0.5px; fill: rgb(233, 167, 148); fill-opacity: 1; stroke: rgb(229, 236, 246); stroke-opacity: 1;"/></g></g></g><rect class="legendtoggle" x="0" y="-9.950000000000001" width="160.84765625" height="19.900000000000002" style="fill: rgb(0, 0, 0); fill-opacity: 0;"/></g><g class="traces" transform="translate(0,229.55)" style="opacity: 1;"><text class="legendtext" text-anchor="start" x="40" y="5.07" style="font-family: Inter, Roboto, Arial, sans-serif; font-size: 13px; fill: rgb(34, 34, 34); fill-opacity: 1; white-space: pre;">Low</text><g class="layers" style="opacity: 1;"><g class="legendfill"/><g class="legendlines"/><g class="legendsymbols"><g class="legendpoints"><path class="legendundefined" d="M6,6H-6V-6H6Z" transform="translate(20,0)" style="stroke-width: 0.5px; fill: rgb(217, 96, 63); fill-opacity: 1; stroke: rgb(229, 236, 246); stroke-opacity: 1;"/></g></g></g><rect class="legendtoggle" x="0" y="-9.950000000000001" width="160.84765625" height="19.900000000000002" style="fill: rgb(0, 0, 0); fill-opacity: 0;"/></g><g class="traces" transform="translate(0,249.45000000000002)" style="opacity: 1;"><text class="legendtext" text-anchor="start" x="40" y="5.07" style="font-family: Inter, Roboto, Arial, sans-serif; font-size: 13px; fill: rgb(34, 34, 34); fill-opacity: 1; white-space: pre;">High</text><g class="layers" style="opacity: 1;"><g class="legendfill"/><g class="legendlines"/><g class="legendsymbols"><g class="legendpoints"><path class="legendundefined" d="M6,6H-6V-6H6Z" transform="translate(20,0)" style="stroke-width: 0.5px; fill: rgb(149, 55, 29); fill-opacity: 1; stroke: rgb(229, 236, 246); stroke-opacity: 1;"/></g></g></g><rect class="legendtoggle" x="0" y="-9.950000000000001" width="160.84765625" height="19.900000000000002" style="fill: rgb(0, 0, 0); fill-opacity: 0;"/></g></g></g><rect class="scrollbar" rx="20" ry="3" width="0" height="0" style="fill: rgb(128, 139, 164); fill-opacity: 1;" x="0" y="0"/></g><g class="g-gtitle"><text class="gtitle" x="600" y="10" text-anchor="middle" dy="0.7em" style="opacity: 1; font-family: Inter, Roboto, Arial, sans-serif; font-size: 28px; fill: rgb(17, 17, 17); fill-opacity: 1; white-space: pre;">Resource Usage</text></g><g class="g-xtitle"/><g class="g-x2title"/><g class="g-x3title"/><g class="g-ytitle" transform="translate(0.0966796875,0)"><text class="ytitle" transform="rotate(-90,16.903125000000003,280.5)" x="16.903125000000003" y="280.5" text-anchor="middle" style="opacity: 1; font-family: Inter, Roboto, Arial, sans-serif; font-size: 18px; fill: rgb(34, 34, 34); fill-opacity: 1; white-space: pre;">Cost ($)</text></g><g class="g-y2title"><text class="y2title" transform="rotate(-90,347.037890625,280.5)" x="347.037890625" y="280.5" text-anchor="middle" style="opacity: 1; font-family: Inter, Roboto, Arial, sans-serif; font-size: 18px; fill: rgb(34, 34, 34); fill-opacity: 1; white-space: pre;">Tokens</text></g><g class="g-y3title"><text class="y3title" transform="rotate(-90,702.84453125,280.5)" x="702.84453125" y="280.5" text-anchor="middle" style="opacity: 1; font-family: Inter, Roboto, Arial, sans-serif; font-size: 18px; fill: rgb(34, 34, 34); fill-opacity: 1; white-space: pre;">Time (M)</text></g></g></svg>